<svg width="21" height="18" viewBox="0 0 21 18" fill="none" xmlns="http://www.w3.org/2000/svg">
<path d="M0.899902 10.2C0.899902 9.53723 1.43716 8.99998 2.0999 8.99998H4.4999C5.16264 8.99998 5.6999 9.53723 5.6999 10.2V16.2C5.6999 16.8627 5.16264 17.4 4.4999 17.4H2.0999C1.43716 17.4 0.899902 16.8627 0.899902 16.2V10.2Z" fill="#CA1F27"/>
<path d="M8.0999 5.39997C8.0999 4.73723 8.63716 4.19998 9.2999 4.19998H11.6999C12.3626 4.19998 12.8999 4.73723 12.8999 5.39998V16.2C12.8999 16.8627 12.3626 17.4 11.6999 17.4H9.2999C8.63716 17.4 8.0999 16.8627 8.0999 16.2V5.39997Z" fill="#CA1F27"/>
<path d="M15.2999 1.79998C15.2999 1.13723 15.8372 0.599976 16.4999 0.599976H18.8999C19.5626 0.599976 20.0999 1.13723 20.0999 1.79998V16.2C20.0999 16.8627 19.5626 17.4 18.8999 17.4H16.4999C15.8372 17.4 15.2999 16.8627 15.2999 16.2V1.79998Z" fill="#CA1F27"/>
</svg>
