<svg width="21" height="20" viewBox="0 0 21 20" fill="none" xmlns="http://www.w3.org/2000/svg">
<path d="M3.62104 15.8037C5.65267 14.6554 7.9998 14 10.5 14C13.0002 14 15.3473 14.6554 17.379 15.8037M13.5 8C13.5 9.65685 12.1569 11 10.5 11C8.84315 11 7.5 9.65685 7.5 8C7.5 6.34315 8.84315 5 10.5 5C12.1569 5 13.5 6.34315 13.5 8ZM19.5 10C19.5 14.9706 15.4706 19 10.5 19C5.52944 19 1.5 14.9706 1.5 10C1.5 5.02944 5.52944 1 10.5 1C15.4706 1 19.5 5.02944 19.5 10Z" stroke="#6B7280" stroke-width="2" stroke-linecap="round" stroke-linejoin="round"/>
</svg>
