<svg width="21" height="20" viewBox="0 0 21 20" fill="none" xmlns="http://www.w3.org/2000/svg">
<path d="M7.5 17V11C7.5 9.89543 6.60457 9 5.5 9H3.5C2.39543 9 1.5 9.89543 1.5 11V17C1.5 18.1046 2.39543 19 3.5 19H5.5C6.60457 19 7.5 18.1046 7.5 17ZM7.5 17V7C7.5 5.89543 8.39543 5 9.5 5H11.5C12.6046 5 13.5 5.89543 13.5 7V17M7.5 17C7.5 18.1046 8.39543 19 9.5 19H11.5C12.6046 19 13.5 18.1046 13.5 17M13.5 17V3C13.5 1.89543 14.3954 1 15.5 1H17.5C18.6046 1 19.5 1.89543 19.5 3V17C19.5 18.1046 18.6046 19 17.5 19H15.5C14.3954 19 13.5 18.1046 13.5 17Z" stroke="#6B7280" stroke-width="2" stroke-linecap="round" stroke-linejoin="round"/>
</svg>
