<svg width="21" height="20" viewBox="0 0 21 20" fill="none" xmlns="http://www.w3.org/2000/svg">
<path fill-rule="evenodd" clip-rule="evenodd" d="M20.1003 10C20.1003 15.302 15.8023 19.6 10.5004 19.6C5.19845 19.6 0.900391 15.302 0.900391 10C0.900391 4.69809 5.19845 0.400024 10.5004 0.400024C15.8023 0.400024 20.1003 4.69809 20.1003 10ZM12.9004 6.40002C12.9004 7.72551 11.8258 8.80002 10.5004 8.80002C9.17489 8.80002 8.10037 7.72551 8.10037 6.40002C8.10037 5.07454 9.17489 4.00002 10.5004 4.00002C11.8258 4.00002 12.9004 5.07454 12.9004 6.40002ZM10.5003 11.2C8.07924 11.2 5.99311 12.634 5.04486 14.6989C6.36521 16.2305 8.31955 17.2 10.5003 17.2C12.6811 17.2 14.6354 16.2305 15.9558 14.699C15.0075 12.634 12.9214 11.2 10.5003 11.2Z" fill="#CA1F27"/>
</svg>
