<svg width="21" height="18" viewBox="0 0 21 18" fill="none" xmlns="http://www.w3.org/2000/svg">
<path d="M8.10039 7.79998C10.0886 7.79998 11.7004 6.1882 11.7004 4.19998C11.7004 2.21175 10.0886 0.599976 8.10039 0.599976C6.11217 0.599976 4.50039 2.21175 4.50039 4.19998C4.50039 6.1882 6.11217 7.79998 8.10039 7.79998Z" fill="#CA1F27"/>
<path d="M8.10039 10.2C12.0768 10.2 15.3004 13.4235 15.3004 17.4H0.900391C0.900391 13.4235 4.12394 10.2 8.10039 10.2Z" fill="#CA1F27"/>
<path d="M17.7004 5.39998C17.7004 4.73723 17.1631 4.19998 16.5004 4.19998C15.8377 4.19998 15.3004 4.73723 15.3004 5.39998V6.59998H14.1004C13.4376 6.59997 12.9004 7.13723 12.9004 7.79998C12.9004 8.46272 13.4376 8.99998 14.1004 8.99998H15.3004V10.2C15.3004 10.8627 15.8377 11.4 16.5004 11.4C17.1631 11.4 17.7004 10.8627 17.7004 10.2V8.99998H18.9004C19.5631 8.99998 20.1004 8.46272 20.1004 7.79998C20.1004 7.13723 19.5631 6.59998 18.9004 6.59998H17.7004V5.39998Z" fill="#CA1F27"/>
</svg>
