<svg width="20" height="20" viewBox="0 0 20 20" fill="none" xmlns="http://www.w3.org/2000/svg">
<path d="M2.5 7.49992C2.5 6.57944 3.24619 5.83325 4.16667 5.83325H4.94136C5.49862 5.83325 6.019 5.55475 6.32811 5.09109L7.00522 4.07542C7.31433 3.61175 7.83472 3.33325 8.39197 3.33325H11.608C12.1653 3.33325 12.6857 3.61175 12.9948 4.07542L13.6719 5.09109C13.981 5.55475 14.5014 5.83325 15.0586 5.83325H15.8333C16.7538 5.83325 17.5 6.57944 17.5 7.49992V14.9999C17.5 15.9204 16.7538 16.6666 15.8333 16.6666H4.16667C3.24619 16.6666 2.5 15.9204 2.5 14.9999V7.49992Z" stroke="#4B5563" stroke-width="2" stroke-linecap="round" stroke-linejoin="round"/>
<path d="M12.5 10.8333C12.5 12.214 11.3807 13.3333 10 13.3333C8.61929 13.3333 7.5 12.214 7.5 10.8333C7.5 9.45254 8.61929 8.33325 10 8.33325C11.3807 8.33325 12.5 9.45254 12.5 10.8333Z" stroke="#4B5563" stroke-width="2" stroke-linecap="round" stroke-linejoin="round"/>
</svg>
