<svg width="265" height="255" viewBox="0 0 265 255" fill="none" xmlns="http://www.w3.org/2000/svg">
<path d="M251.469 248.884L245.771 248.883L243.062 226.904L251.471 226.905L251.469 248.884Z" fill="#FFB8B8"/>
<path d="M241.701 247.255H252.69V254.175H234.781C234.781 253.266 234.96 252.366 235.308 251.527C235.656 250.687 236.165 249.924 236.808 249.282C237.45 248.639 238.213 248.13 239.053 247.782C239.892 247.434 240.792 247.255 241.701 247.255Z" fill="#2F2E41"/>
<path d="M228.79 248.884L223.091 248.883L220.382 226.904L228.792 226.905L228.79 248.884Z" fill="#FFB8B8"/>
<path d="M219.021 247.255H230.011V254.175H212.102C212.102 253.266 212.281 252.366 212.628 251.527C212.976 250.687 213.486 249.924 214.128 249.282C214.771 248.639 215.534 248.13 216.373 247.782C217.213 247.434 218.112 247.255 219.021 247.255Z" fill="#2F2E41"/>
<path d="M255.86 172.895C255.401 172.389 255.059 171.788 254.858 171.135C254.656 170.482 254.601 169.793 254.695 169.116C254.789 168.439 255.03 167.791 255.401 167.217C255.773 166.644 256.265 166.159 256.845 165.796L255.08 155.262L261.219 152.628L263.503 167.539C264.047 168.553 264.201 169.731 263.935 170.85C263.67 171.969 263.002 172.952 262.06 173.612C261.118 174.272 259.966 174.564 258.824 174.432C257.681 174.3 256.626 173.753 255.86 172.895Z" fill="#FFB8B8"/>
<path d="M207.79 167.918C208.326 167.494 208.763 166.958 209.069 166.347C209.375 165.736 209.544 165.066 209.563 164.383C209.582 163.7 209.452 163.021 209.18 162.394C208.908 161.767 208.503 161.207 207.991 160.754L211.472 150.656L205.852 147.044L201.136 161.373C200.432 162.282 200.086 163.419 200.163 164.566C200.24 165.714 200.736 166.794 201.556 167.6C202.376 168.407 203.464 168.885 204.613 168.944C205.762 169.002 206.892 168.637 207.79 167.918Z" fill="#FFB8B8"/>
<path d="M236.974 93.5293C243.735 93.5293 249.216 88.0482 249.216 81.2869C249.216 74.5256 243.735 69.0444 236.974 69.0444C230.213 69.0444 224.731 74.5256 224.731 81.2869C224.731 88.0482 230.213 93.5293 236.974 93.5293Z" fill="#FFB8B8"/>
<path d="M207.412 160.363C207.202 160.363 206.993 160.333 206.791 160.275L203.223 159.251C202.653 159.086 202.171 158.703 201.883 158.185C201.595 157.666 201.523 157.055 201.684 156.484L209.048 130.484L219.317 105.274C220.338 102.768 222.471 101.125 224.884 100.985C225.986 100.931 227.08 101.198 228.034 101.754C228.988 102.309 229.76 103.129 230.257 104.114C230.809 105.168 231.112 106.335 231.143 107.525C231.174 108.715 230.931 109.896 230.434 110.978L218.762 136.504L209.483 158.976C209.314 159.386 209.027 159.737 208.658 159.984C208.289 160.231 207.855 160.363 207.412 160.363Z" fill="#CA1F27"/>
<path d="M243.882 91.5535L237.08 91.6744C236.372 91.6884 235.67 91.5357 235.031 91.2285C234.392 90.9214 233.835 90.4685 233.403 89.9064C232.972 89.3442 232.678 88.6886 232.547 87.9922C232.415 87.2959 232.449 86.5784 232.646 85.8975C232.791 85.4056 232.9 84.9037 232.973 84.3958C233.049 83.842 233.064 83.2814 233.017 82.7243C232.974 82.1664 232.743 81.6397 232.361 81.2306C231.979 80.8215 231.47 80.5542 230.916 80.4726C230.363 80.391 229.798 80.4999 229.314 80.7815C228.831 81.063 228.457 81.5005 228.255 82.0223C227.111 82.0386 224.675 81.6657 223.531 81.682C221.102 75.4565 226.394 67.3101 232.091 64.2503C237.899 61.131 245.437 64.3045 247.663 70.8058C250.753 70.8613 253.263 73.9084 253.662 77.3386C254.06 80.7688 252.648 84.3505 250.49 86.9795C248.331 89.6085 245.497 91.5248 243.882 91.5535Z" fill="#2F2E41"/>
<path d="M221.523 246.832C220.972 246.829 220.441 246.624 220.031 246.255C219.621 245.887 219.361 245.381 219.299 244.833L216.775 159.979L248.57 162.243L248.595 162.447C255.78 222.591 253.324 243.411 253.298 243.614C253.28 243.922 253.199 244.223 253.06 244.498C252.921 244.773 252.727 245.016 252.489 245.213C252.252 245.41 251.977 245.555 251.68 245.64C251.384 245.726 251.074 245.749 250.768 245.709L243.742 245.878C243.209 245.817 242.715 245.568 242.351 245.175C241.986 244.783 241.774 244.272 241.753 243.736L235.188 182.278C235.147 182.118 235.052 181.978 234.918 181.881C234.785 181.785 234.621 181.739 234.457 181.751C234.288 181.751 234.124 181.809 233.993 181.916C233.862 182.023 233.773 182.172 233.74 182.338L231.203 243.998C231.23 244.57 231.036 245.131 230.661 245.564C230.286 245.998 229.759 246.27 229.189 246.326L221.746 246.821C221.672 246.828 221.598 246.832 221.523 246.832Z" fill="#2F2E41"/>
<path d="M234.717 170.118C234.527 170.118 234.337 170.115 234.146 170.11C225.004 169.834 217.851 162.917 215.877 160.804C215.625 160.534 215.444 160.207 215.35 159.85C215.256 159.494 215.252 159.12 215.338 158.762L220.612 136.449L219.213 117.051C218.993 114.358 219.346 111.65 220.248 109.104C221.151 106.558 222.583 104.233 224.449 102.28C226.004 100.637 227.895 99.3476 229.992 98.4991C232.089 97.6506 234.344 97.263 236.604 97.3624C245.504 97.7871 252.526 105.742 252.589 115.472C252.688 130.543 252.244 131.578 252.098 131.919C247.657 142.285 250.082 156.836 250.932 161.049C251.007 161.424 250.986 161.813 250.869 162.179C250.753 162.544 250.545 162.874 250.265 163.136C245.38 167.771 240.152 170.118 234.717 170.118Z" fill="#CA1F27"/>
<path d="M257.677 164.446C257.17 164.446 256.677 164.274 256.281 163.957C255.884 163.641 255.607 163.199 255.494 162.705L250.052 139L242.76 111.905C242.448 110.757 242.404 109.552 242.631 108.383C242.858 107.215 243.35 106.114 244.069 105.165C244.722 104.276 245.619 103.595 246.651 103.205C247.683 102.815 248.806 102.732 249.884 102.967C252.241 103.503 254.074 105.477 254.667 108.117L260.626 134.649L263.598 161.536C263.662 162.126 263.49 162.717 263.12 163.18C262.75 163.644 262.212 163.942 261.623 164.011L257.934 164.432C257.849 164.441 257.763 164.446 257.677 164.446Z" fill="#CA1F27"/>
<path d="M146.046 25.9194H12.9597C9.52257 25.9194 6.22621 24.554 3.7958 22.1236C1.36538 19.6932 0 16.3968 0 12.9597C0 9.52257 1.36538 6.22622 3.7958 3.7958C6.22621 1.36539 9.52257 0 12.9597 0H146.046C149.483 0 152.779 1.36539 155.21 3.7958C157.64 6.22622 159.005 9.52257 159.005 12.9597C159.005 16.3968 157.64 19.6932 155.21 22.1236C152.779 24.554 149.483 25.9194 146.046 25.9194Z" fill="#E6E6E6"/>
<path d="M12.9592 4.23682C10.6457 4.23682 8.42706 5.15583 6.7912 6.79168C5.15535 8.42754 4.23633 10.6462 4.23633 12.9597C4.23633 15.2731 5.15535 17.4918 6.7912 19.1277C8.42706 20.7635 10.6457 21.6826 12.9592 21.6826H146.045C148.359 21.6826 150.577 20.7635 152.213 19.1277C153.849 17.4918 154.768 15.2731 154.768 12.9597C154.768 10.6462 153.849 8.42754 152.213 6.79168C150.577 5.15583 148.359 4.23682 146.045 4.23682H12.9592Z" fill="white"/>
<path d="M193.076 0.837891C189.884 0.837879 186.823 2.10588 184.566 4.36294C182.309 6.62001 181.041 9.68125 181.041 12.8732C181.041 16.0652 182.309 19.1265 184.566 21.3836C186.823 23.6406 189.884 24.9087 193.076 24.9087C196.268 24.9087 199.33 23.6407 201.587 21.3836C203.844 19.1265 205.112 16.0653 205.112 12.8733C205.112 9.6813 203.844 6.62005 201.587 4.36297C199.33 2.1059 196.268 0.837891 193.076 0.837891Z" fill="#CA1F27"/>
<path d="M191.935 17.8716C191.618 17.8721 191.31 17.7696 191.056 17.5796L191.04 17.5678L187.731 15.0359C187.577 14.9185 187.449 14.7719 187.352 14.6047C187.255 14.4374 187.192 14.2527 187.167 14.0612C187.142 13.8697 187.154 13.675 187.204 13.4884C187.254 13.3017 187.34 13.1267 187.458 12.9734C187.575 12.8201 187.722 12.6914 187.889 12.5948C188.057 12.4981 188.241 12.4353 188.433 12.4101C188.624 12.3848 188.819 12.3976 189.006 12.4475C189.192 12.4975 189.367 12.5838 189.52 12.7014L191.664 14.3454L196.73 7.73636C196.848 7.58313 196.994 7.45454 197.161 7.35793C197.328 7.26133 197.513 7.19859 197.704 7.1733C197.896 7.14802 198.09 7.16069 198.277 7.21058C198.463 7.26047 198.638 7.34662 198.791 7.46409L198.792 7.46441L198.76 7.50806L198.793 7.46441C199.102 7.70199 199.304 8.0525 199.355 8.43902C199.406 8.82555 199.302 9.21651 199.065 9.52612L193.106 17.2963C192.968 17.4753 192.791 17.6202 192.588 17.7197C192.385 17.8191 192.162 17.8705 191.936 17.8699L191.935 17.8716Z" fill="white"/>
<path d="M146.046 69.7829H12.9597C9.52257 69.7829 6.22621 68.4175 3.7958 65.9871C1.36538 63.5567 0 60.2603 0 56.8232C0 53.3861 1.36538 50.0897 3.7958 47.6593C6.22621 45.2289 9.52257 43.8635 12.9597 43.8635H146.046C149.483 43.8635 152.779 45.2289 155.21 47.6593C157.64 50.0897 159.005 53.3861 159.005 56.8232C159.005 60.2603 157.64 63.5567 155.21 65.9871C152.779 68.4175 149.483 69.7829 146.046 69.7829Z" fill="#E6E6E6"/>
<path d="M12.9592 48.1003C10.6457 48.1003 8.42706 49.0194 6.7912 50.6552C5.15535 52.2911 4.23633 54.5098 4.23633 56.8232C4.23633 59.1367 5.15535 61.3553 6.7912 62.9912C8.42706 64.6271 10.6457 65.5461 12.9592 65.5461H146.045C148.359 65.5461 150.577 64.6271 152.213 62.9912C153.849 61.3553 154.768 59.1367 154.768 56.8232C154.768 54.5098 153.849 52.2911 152.213 50.6552C150.577 49.0194 148.359 48.1003 146.045 48.1003H12.9592Z" fill="white"/>
<path d="M193.076 44.7017C189.884 44.7016 186.823 45.9697 184.566 48.2267C182.309 50.4838 181.041 53.545 181.041 56.737C181.041 59.929 182.309 62.9903 184.566 65.2473C186.823 67.5044 189.884 68.7725 193.076 68.7725C196.268 68.7725 199.33 67.5044 201.587 65.2474C203.844 62.9903 205.112 59.9291 205.112 56.7371C205.112 53.5451 203.844 50.4838 201.587 48.2268C199.33 45.9697 196.268 44.7017 193.076 44.7017Z" fill="#CA1F27"/>
<path d="M191.935 61.7354C191.618 61.7359 191.31 61.6334 191.056 61.4433L191.04 61.4316L187.731 58.8997C187.577 58.7822 187.449 58.6357 187.352 58.4684C187.255 58.3012 187.192 58.1165 187.167 57.925C187.142 57.7334 187.154 57.5388 187.204 57.3521C187.254 57.1655 187.34 56.9905 187.458 56.8372C187.575 56.6838 187.722 56.5552 187.889 56.4585C188.057 56.3619 188.241 56.2991 188.433 56.2739C188.624 56.2486 188.819 56.2613 189.006 56.3113C189.192 56.3613 189.367 56.4476 189.52 56.5652L191.664 58.2091L196.73 51.6001C196.848 51.4469 196.994 51.3183 197.161 51.2217C197.328 51.1251 197.513 51.0624 197.704 51.0371C197.896 51.0118 198.09 51.0245 198.277 51.0744C198.463 51.1242 198.638 51.2104 198.791 51.3279L198.792 51.3282L198.76 51.3718L198.793 51.3282C199.102 51.5658 199.304 51.9163 199.355 52.3028C199.406 52.6893 199.302 53.0803 199.065 53.3899L193.106 61.16C192.968 61.3391 192.791 61.484 192.588 61.5834C192.385 61.6829 192.162 61.7343 191.936 61.7336L191.935 61.7354Z" fill="white"/>
<path d="M146.046 113.646H12.9597C9.52257 113.646 6.22621 112.281 3.7958 109.851C1.36538 107.42 0 104.124 0 100.687C0 97.2496 1.36538 93.9533 3.7958 91.5229C6.22621 89.0924 9.52257 87.7271 12.9597 87.7271H146.046C149.483 87.7271 152.779 89.0924 155.21 91.5229C157.64 93.9533 159.005 97.2496 159.005 100.687C159.005 104.124 157.64 107.42 155.21 109.851C152.779 112.281 149.483 113.646 146.046 113.646Z" fill="#E6E6E6"/>
<path d="M12.9592 91.9639C10.6457 91.9639 8.42706 92.8829 6.7912 94.5187C5.15535 96.1546 4.23633 98.3733 4.23633 100.687C4.23633 103 5.15535 105.219 6.7912 106.855C8.42706 108.491 10.6457 109.41 12.9592 109.41H146.045C148.359 109.41 150.577 108.491 152.213 106.855C153.849 105.219 154.768 103 154.768 100.687C154.768 98.3733 153.849 96.1546 152.213 94.5187C150.577 92.8829 148.359 91.9639 146.045 91.9639H12.9592Z" fill="white"/>
<path d="M193.076 88.5649C189.884 88.5649 186.823 89.8329 184.566 92.09C182.309 94.3471 181.041 97.4083 181.041 100.6C181.041 103.792 182.309 106.854 184.566 109.111C186.823 111.368 189.884 112.636 193.076 112.636C196.268 112.636 199.33 111.368 201.587 109.111C203.844 106.854 205.112 103.792 205.112 100.6C205.112 97.4084 203.844 94.3471 201.587 92.09C199.33 89.833 196.268 88.5649 193.076 88.5649Z" fill="#E6E6E6"/>
<path d="M253.711 254.368H193.289C193.212 254.368 193.139 254.315 193.085 254.221C193.03 254.127 193 254 193 253.868C193 253.735 193.03 253.608 193.085 253.514C193.139 253.42 193.212 253.368 193.289 253.368H253.711C253.788 253.368 253.861 253.42 253.915 253.514C253.97 253.608 254 253.735 254 253.868C254 254 253.97 254.127 253.915 254.221C253.861 254.315 253.788 254.368 253.711 254.368Z" fill="#CCCCCC"/>
</svg>
