<svg width="16" height="16" viewBox="0 0 16 16" fill="none" xmlns="http://www.w3.org/2000/svg">
<path d="M8.89444 0.552786C8.72505 0.214002 8.37878 0 8.00001 0C7.62124 0 7.27498 0.214002 7.10558 0.552786L0.105584 14.5528C-0.0717665 14.9075 -0.0227602 15.3335 0.230502 15.6386C0.483764 15.9438 0.893423 16.0705 1.27473 15.9615L6.27472 14.533C6.70402 14.4103 7 14.0179 7 13.5714V9C7 8.44771 7.44772 8 8 8C8.55229 8 9 8.44771 9 9V13.5714C9 14.0179 9.29598 14.4103 9.72528 14.533L14.7253 15.9615C15.1066 16.0705 15.5163 15.9438 15.7695 15.6386C16.0228 15.3335 16.0718 14.9075 15.8944 14.5528L8.89444 0.552786Z" fill="white"/>
</svg>
