<svg width="125" height="122" viewBox="0 0 125 122" fill="none" xmlns="http://www.w3.org/2000/svg">
<g opacity="0.75">
<path d="M124.483 12.6636C124.483 12.6636 123.326 10.269 121.49 6.9624C121.49 6.9624 115.596 11.9027 115.641 11.6285C115.686 11.3544 124.483 12.6636 124.483 12.6636Z" fill="#9CA3AF"/>
<path d="M124.482 12.9433H124.448C121.346 12.4789 116.284 11.7907 115.73 11.8747C115.585 11.9418 115.541 11.9082 115.491 11.8747C115.448 11.8421 115.414 11.7962 115.394 11.7426C115.373 11.689 115.367 11.63 115.376 11.5725C115.376 11.4942 115.406 11.4159 115.571 11.3711C115.91 11.2201 119.281 8.45062 121.321 6.7386C121.348 6.71532 121.38 6.6988 121.413 6.69013C121.447 6.68145 121.481 6.68081 121.515 6.68824C121.549 6.69442 121.581 6.7086 121.609 6.72983C121.638 6.75105 121.662 6.77884 121.68 6.81133C123.52 10.0899 124.672 12.5069 124.702 12.5293C124.723 12.5719 124.733 12.6199 124.732 12.6685C124.732 12.7172 124.72 12.7647 124.697 12.8065C124.675 12.8483 124.644 12.8829 124.606 12.9069C124.568 12.9309 124.526 12.9434 124.482 12.9433ZM116.503 11.3543C117.59 11.4215 119.74 11.6844 124.009 12.3167C123.595 11.483 122.662 9.65351 121.385 7.37082C118.722 9.60876 117.301 10.7669 116.518 11.3543H116.503Z" fill="#9CA3AF"/>
<path d="M46.3743 112.448L43.4319 106.942L47.5063 102.813L46.3743 112.448Z" fill="#9CA3AF"/>
<path d="M46.3744 112.727C46.3316 112.727 46.2896 112.714 46.2521 112.69C46.2147 112.667 46.1831 112.634 46.16 112.593L43.2176 107.088C43.188 107.032 43.1768 106.966 43.1859 106.901C43.195 106.837 43.2239 106.778 43.2675 106.735L47.3369 102.606C47.375 102.568 47.4227 102.543 47.4736 102.536C47.5244 102.529 47.576 102.54 47.6212 102.567C47.6658 102.595 47.702 102.636 47.7251 102.687C47.7482 102.738 47.7572 102.796 47.7509 102.852L46.6238 112.47C46.6174 112.528 46.5947 112.583 46.5589 112.627C46.523 112.67 46.4759 112.699 46.4243 112.71L46.3744 112.727ZM43.7512 106.998L46.2448 111.614L47.1923 103.529L43.7512 106.998Z" fill="#9CA3AF"/>
<path d="M48.2857 113.589L95.6628 121.159C96.6345 121.303 97.6203 121.054 98.4429 120.456C99.2656 119.858 99.8713 118.951 100.151 117.897L124.668 15.0078C125.166 12.8761 123.954 11.0019 121.945 10.8172L73.6349 6.44766C72.6799 6.39502 71.7369 6.70401 70.9573 7.32499C70.1776 7.94596 69.6067 8.84289 69.3361 9.87171L45.8121 109.359C45.69 109.821 45.6591 110.307 45.7217 110.783C45.7842 111.26 45.9386 111.715 46.174 112.118C46.4095 112.521 46.7205 112.861 47.0851 113.115C47.4498 113.369 47.8595 113.531 48.2857 113.589Z" fill="#9CA3AF"/>
<path d="M96.1853 121.5C95.9934 121.499 95.8019 121.484 95.6117 121.455L48.2346 113.88C47.7764 113.817 47.3357 113.643 46.9424 113.372C46.5492 113.101 46.2126 112.738 45.9555 112.308C45.6999 111.866 45.5316 111.367 45.462 110.846C45.3923 110.325 45.4228 109.793 45.5515 109.286L69.0755 9.81569C69.3633 8.72293 69.969 7.76984 70.7962 7.10861C71.6233 6.44739 72.6241 6.11617 73.6387 6.16784L121.948 10.5374C122.438 10.5702 122.915 10.7235 123.346 10.9865C123.777 11.2495 124.151 11.6157 124.442 12.0592C124.709 12.4953 124.886 12.9928 124.961 13.5155C125.035 14.0381 125.004 14.5728 124.871 15.0804L100.354 117.97C100.088 118.981 99.5387 119.87 98.7883 120.505C98.0378 121.141 97.1254 121.49 96.1853 121.5ZM48.3094 113.326L95.6866 120.901C96.6 121.038 97.527 120.805 98.3011 120.244C99.0753 119.683 99.6459 118.831 99.9106 117.841L124.407 14.9573C124.523 14.5286 124.551 14.0763 124.49 13.6337C124.428 13.1911 124.279 12.7697 124.053 12.4005C123.803 12.0205 123.481 11.7079 123.11 11.4853C122.739 11.2626 122.329 11.1357 121.909 11.1137L73.5988 6.72733C72.7009 6.67441 71.8133 6.96334 71.0801 7.54728C70.3468 8.13121 69.811 8.9759 69.5593 9.94437L46.0502 109.432C45.9388 109.862 45.911 110.314 45.9687 110.757C46.0263 111.2 46.1681 111.624 46.3844 112C46.604 112.363 46.8903 112.669 47.224 112.898C47.5578 113.126 47.9312 113.272 48.3194 113.326H48.3094Z" fill="#9CA3AF"/>
<path d="M45.2023 107.927L92.5794 115.497C93.5508 115.639 94.5356 115.388 95.3578 114.791C96.18 114.193 96.7861 113.287 97.0678 112.235L121.579 9.34552C122.078 7.21388 120.866 5.33961 118.856 5.15498L70.5366 0.785404C69.5811 0.733477 68.6377 1.04265 67.8575 1.66343C67.0772 2.28421 66.5051 3.18071 66.2327 4.20945L42.7237 103.68C42.599 104.143 42.5663 104.632 42.6279 105.11C42.6895 105.589 42.8438 106.047 43.0801 106.452C43.3163 106.857 43.6288 107.199 43.9954 107.453C44.362 107.708 44.774 107.87 45.2023 107.927Z" fill="white"/>
<path d="M93.1022 115.827C92.9104 115.826 92.7188 115.811 92.5287 115.782L45.1515 108.207C44.6933 108.143 44.2526 107.97 43.8594 107.699C43.4661 107.428 43.1295 107.065 42.8724 106.634C42.6165 106.193 42.4481 105.694 42.3784 105.173C42.3087 104.652 42.3394 104.12 42.4685 103.613L65.9975 4.14245C66.2855 3.05073 66.8917 2.09901 67.719 1.43966C68.5463 0.78031 69.5469 0.451472 70.5606 0.505795L118.86 4.87537C119.354 4.90445 119.836 5.05601 120.272 5.31915C120.707 5.58229 121.085 5.95046 121.379 6.39717C121.645 6.83395 121.821 7.33142 121.895 7.8538C121.97 8.37619 121.94 8.91052 121.808 9.41839L97.2913 112.308C97.0218 113.321 96.4691 114.21 95.7148 114.843C94.9604 115.477 94.0445 115.822 93.1022 115.827ZM70.2465 1.05409C69.3979 1.08045 68.5785 1.40676 67.905 1.98646C67.2316 2.56617 66.7385 3.36966 66.4962 4.28232L42.9672 103.753C42.8558 104.183 42.828 104.635 42.8856 105.078C42.9433 105.521 43.085 105.945 43.3013 106.321C43.5209 106.684 43.8072 106.99 44.141 107.219C44.4747 107.448 44.8481 107.594 45.2363 107.647L92.6135 115.223C93.5245 115.355 94.448 115.12 95.2189 114.559C95.9899 113.999 96.5582 113.149 96.8225 112.162L121.324 9.27852C121.439 8.84966 121.466 8.39751 121.405 7.95514C121.344 7.51276 121.195 7.09134 120.97 6.72167C120.72 6.341 120.397 6.02789 120.025 5.80524C119.653 5.58259 119.242 5.45604 118.821 5.43485L70.5158 1.06528L70.2465 1.05409Z" fill="#9CA3AF"/>
<path d="M116.887 16.1155L67.4299 11.3096L48.4541 91.5732L97.1877 98.841L116.887 16.1155Z" fill="#CA1F27"/>
<path d="M95.1929 87.7798C95.1455 87.7801 95.099 87.7649 95.0592 87.7361C95.0193 87.7073 94.9878 87.6661 94.9685 87.6176L84.9943 63.9569C84.98 63.9235 84.9718 63.8873 84.9701 63.8503C84.9683 63.8133 84.9732 63.7763 84.9843 63.7414C84.9955 63.7066 85.0127 63.6745 85.0349 63.6472C85.0572 63.6198 85.0841 63.5977 85.114 63.5821C85.1736 63.5514 85.2415 63.5484 85.3031 63.5735C85.3647 63.5986 85.415 63.6499 85.4432 63.7164L95.4173 87.3826C95.4315 87.4155 95.4397 87.4514 95.4413 87.488C95.443 87.5245 95.4381 87.5611 95.4269 87.5955C95.4158 87.63 95.3986 87.6615 95.3764 87.6884C95.3542 87.7152 95.3274 87.7368 95.2976 87.7518C95.2647 87.769 95.2291 87.7785 95.1929 87.7798Z" fill="white"/>
<path d="M64.7758 107.328L74.0218 108.788C74.609 108.87 75.2028 108.714 75.6971 108.349C76.1913 107.984 76.5538 107.434 76.7198 106.797L77.6374 102.931C77.7143 102.637 77.7325 102.328 77.6908 102.026C77.6491 101.723 77.5484 101.435 77.396 101.181C77.2436 100.928 77.0433 100.715 76.8092 100.558C76.575 100.401 76.3129 100.304 76.0416 100.273L66.7856 98.8632C66.2039 98.7919 65.6184 98.9524 65.1316 99.3165C64.6447 99.6806 64.2875 100.225 64.1225 100.855L63.2098 104.687C63.133 104.978 63.1139 105.283 63.1539 105.582C63.194 105.882 63.2922 106.167 63.4416 106.419C63.591 106.671 63.788 106.883 64.0185 107.04C64.2491 107.197 64.5076 107.296 64.7758 107.328Z" fill="white"/>
<path d="M74.332 109.113C74.2168 109.115 74.1017 109.106 73.9879 109.085L64.7419 107.63C64.439 107.591 64.1473 107.478 63.8874 107.299C63.6274 107.121 63.4053 106.88 63.2367 106.595C63.0681 106.31 62.957 105.987 62.9112 105.649C62.8654 105.311 62.886 104.966 62.9715 104.637L63.8791 100.805C64.0607 100.109 64.4554 99.5072 64.9937 99.1059C65.532 98.7047 66.1793 98.5296 66.8215 98.6115L76.0775 100.016C76.3854 100.057 76.6819 100.171 76.9469 100.352C77.2119 100.532 77.4392 100.774 77.6135 101.062C77.7799 101.349 77.8896 101.673 77.9352 102.012C77.9808 102.351 77.9612 102.696 77.8778 103.026L76.9702 106.875C76.8045 107.517 76.4581 108.083 75.9826 108.486C75.5071 108.889 74.9281 109.109 74.332 109.113ZM64.8117 107.077L74.0577 108.531C74.584 108.603 75.1159 108.463 75.5588 108.136C76.0017 107.809 76.3269 107.317 76.4765 106.746L77.3991 102.88C77.4628 102.627 77.478 102.361 77.4436 102.101C77.4092 101.841 77.3261 101.591 77.1996 101.37C77.0635 101.15 76.8874 100.965 76.6827 100.827C76.4781 100.689 76.2497 100.601 76.0127 100.57L66.7517 99.1654C66.2304 99.0982 65.7048 99.2399 65.2676 99.5655C64.8305 99.8911 64.51 100.38 64.3629 100.945L63.4552 104.783C63.3871 105.034 63.3693 105.3 63.4033 105.56C63.4373 105.82 63.5221 106.069 63.6517 106.288C63.7813 106.507 63.9525 106.692 64.1531 106.828C64.3536 106.964 64.5785 107.049 64.8117 107.077Z" fill="#111827"/>
<path d="M102.254 9.21692L88.1254 7.89094C88.0926 7.88763 88.0608 7.87712 88.0317 7.86001C88.0025 7.8429 87.9767 7.81951 87.9556 7.7912C87.9346 7.76289 87.9187 7.73019 87.9089 7.69499C87.8991 7.65978 87.8955 7.62275 87.8985 7.58602C87.9014 7.54928 87.9108 7.51356 87.926 7.48088C87.9413 7.44821 87.9621 7.41922 87.9874 7.39558C88.0126 7.37195 88.0418 7.35411 88.0731 7.34311C88.1045 7.33211 88.1375 7.32815 88.1703 7.33145L102.294 8.65184C102.36 8.65184 102.423 8.68131 102.47 8.73377C102.517 8.78623 102.543 8.85739 102.543 8.93158C102.543 9.00577 102.517 9.07692 102.47 9.12939C102.423 9.18185 102.36 9.21132 102.294 9.21132L102.254 9.21692Z" fill="#9CA3AF"/>
<path d="M86.1656 7.7064L84.2905 7.53296C84.2579 7.53017 84.2261 7.52007 84.1971 7.50327C84.168 7.48646 84.1423 7.46328 84.1213 7.43511C84.1004 7.40694 84.0847 7.37435 84.0752 7.33926C84.0657 7.30418 84.0626 7.26731 84.066 7.23084C84.0724 7.15712 84.104 7.08905 84.1543 7.04103C84.2045 6.993 84.2695 6.96878 84.3354 6.97348L86.2055 7.15251C86.2716 7.15251 86.3351 7.18199 86.3818 7.23445C86.4286 7.28691 86.4549 7.35806 86.4549 7.43225C86.4549 7.50645 86.4286 7.5776 86.3818 7.63006C86.3351 7.68252 86.2716 7.712 86.2055 7.712L86.1656 7.7064Z" fill="#9CA3AF"/>
<path d="M100.041 60.4044C100.041 60.4044 106.115 37.9355 100.849 32.9561L75.0756 29.4761C75.0756 29.4761 70.6571 34.6401 70.0187 38.6069C69.3804 42.5736 64.0342 51.0218 66.0291 56.0628L100.041 60.4044Z" fill="#9CA3AF"/>
<path d="M100.04 60.6841H100.016L65.9988 56.3369C65.956 56.3311 65.9152 56.3131 65.8803 56.2847C65.8454 56.2563 65.8176 56.2185 65.7993 56.1747C64.4179 52.6723 66.4376 47.6202 68.0634 43.5583C68.8663 41.5553 69.5595 39.8209 69.759 38.5565C70.4023 34.5506 74.6962 29.4928 74.8807 29.2802C74.9075 29.249 74.9403 29.2252 74.9767 29.2106C75.013 29.1961 75.0519 29.1912 75.0902 29.1963L100.863 32.6819C100.911 32.6892 100.955 32.7104 100.993 32.7435C106.324 37.7788 100.494 59.5652 100.265 60.4883C100.25 60.5427 100.22 60.5906 100.18 60.6256C100.14 60.6606 100.091 60.681 100.04 60.6841ZM66.2182 55.7998L99.861 60.1023C100.469 57.7636 105.451 37.8683 100.744 33.247L75.17 29.7894C74.5616 30.5279 70.8312 35.138 70.2627 38.6796C70.0483 40.0112 69.3451 41.7735 68.5322 43.8101C66.9962 47.6873 65.0363 52.5268 66.2182 55.7998Z" fill="#9CA3AF"/>
<path d="M59.4009 54.0039L102.474 60.7849L59.4009 54.0039Z" fill="white"/>
<path d="M102.474 61.0642H102.439L59.3654 54.2833C59.3009 54.2722 59.2428 54.2332 59.2037 54.1746C59.1645 54.116 59.1474 54.0425 59.156 53.97C59.1647 53.8966 59.1989 53.83 59.2513 53.7849C59.3036 53.7398 59.3698 53.7198 59.4352 53.7294L102.509 60.5103C102.574 60.5214 102.634 60.561 102.674 60.6207C102.714 60.6803 102.732 60.7552 102.723 60.8292C102.713 60.8949 102.682 60.9544 102.636 60.9974C102.591 61.0403 102.533 61.064 102.474 61.0642Z" fill="#9CA3AF"/>
<path d="M100.848 32.9559C100.848 32.9559 98.2346 33.3587 96.6338 39.4571C94.1851 48.7893 90.9585 68.4832 88.9188 75.8907C85.9266 86.6664 77.9472 88.1994 77.9472 88.1994L44.2097 82.7109C44.2097 82.7109 57.9391 77.3734 60.2581 68.2985C62.6968 58.7369 66.073 40.6712 66.9857 36.6373C68.5965 29.4927 75.0896 29.4927 75.0896 29.4927L100.848 32.9559Z" fill="white"/>
<path d="M77.9324 88.4625H77.8975L44.16 82.974C44.1045 82.9644 44.0533 82.9346 44.0146 82.889C43.9758 82.8435 43.9515 82.7848 43.9455 82.7222C43.9401 82.66 43.9533 82.5976 43.9832 82.5449C44.013 82.4922 44.0577 82.4522 44.1101 82.4313C44.2497 82.3809 57.7497 77.0322 60.0039 68.2036C61.6945 61.5737 63.8639 50.7309 65.2952 43.5527C65.9385 40.3356 66.4472 37.79 66.7265 36.5535C68.3672 29.2802 75.01 29.1963 75.0748 29.1963L100.878 32.6819C100.938 32.69 100.993 32.7223 101.034 32.7727C101.074 32.8231 101.097 32.8883 101.097 32.956C101.097 33.0236 101.075 33.0888 101.036 33.14C100.997 33.1912 100.942 33.2252 100.883 33.2358C100.843 33.2358 98.3894 33.7449 96.8932 39.5356C95.6515 44.2576 94.2202 51.6204 92.8288 58.7427C91.4723 65.7195 90.1856 72.3102 89.1782 75.9748C87.6223 81.62 84.6899 84.714 82.4657 86.3141C81.1024 87.3387 79.58 88.0674 77.9773 88.4625H77.9324ZM45.1823 82.5767L77.9274 87.903C78.5109 87.7687 85.9067 85.9168 88.6795 75.807C89.677 72.1647 90.9686 65.5852 92.3251 58.6252C93.7115 51.4918 95.1528 44.1177 96.3945 39.3789C97.4468 35.3786 98.933 33.7841 99.8855 33.1071L75.0449 29.7502C74.8155 29.7502 68.7562 29.8453 67.2102 36.6934C66.9359 37.9187 66.4272 40.4587 65.7839 43.6758C64.3476 50.8595 62.1783 61.7135 60.4827 68.3602C59.2608 73.1326 54.9121 76.8532 51.476 79.1303C49.4581 80.4545 47.3543 81.6066 45.1823 82.5767Z" fill="#9CA3AF"/>
<path d="M84.6296 76.5453H84.5997L80.0365 75.9858C79.9712 75.9774 79.9114 75.9403 79.8703 75.8826C79.8292 75.825 79.8101 75.7515 79.8171 75.6781C79.8202 75.6415 79.8298 75.6059 79.8453 75.5736C79.8609 75.5412 79.8821 75.5127 79.9077 75.4898C79.9333 75.4668 79.9628 75.4498 79.9943 75.4399C80.0259 75.43 80.0589 75.4272 80.0914 75.4319L84.6595 75.9914C84.7249 75.9998 84.7846 76.0369 84.8257 76.0945C84.8668 76.1522 84.886 76.2257 84.879 76.2991C84.8706 76.3669 84.8408 76.429 84.7951 76.4742C84.7493 76.5193 84.6906 76.5446 84.6296 76.5453Z" fill="#9CA3AF"/>
<path d="M76.3552 75.4934H76.3253L62.6657 73.7534C62.6003 73.7449 62.5406 73.7079 62.4995 73.6502C62.4584 73.5926 62.4392 73.519 62.4462 73.4457C62.4493 73.4091 62.4589 73.3735 62.4745 73.3412C62.4901 73.3088 62.5113 73.2803 62.5369 73.2573C62.5625 73.2344 62.5919 73.2174 62.6235 73.2075C62.655 73.1975 62.688 73.1948 62.7205 73.1995L76.3851 74.9339C76.4512 74.9383 76.5131 74.9721 76.557 75.0277C76.601 75.0833 76.6235 75.1562 76.6195 75.2304C76.6155 75.3046 76.5854 75.374 76.5359 75.4233C76.4863 75.4726 76.4213 75.4978 76.3552 75.4934Z" fill="#9CA3AF"/>
<path d="M80.5512 82.392H80.5213L76.3272 81.8325C76.2944 81.8281 76.2628 81.8165 76.234 81.7983C76.2053 81.7802 76.18 81.7559 76.1596 81.7268C76.1392 81.6977 76.1242 81.6644 76.1153 81.6288C76.1064 81.5932 76.1038 81.5559 76.1077 81.5192C76.1117 81.4824 76.122 81.4469 76.1382 81.4147C76.1543 81.3824 76.176 81.3541 76.2019 81.3312C76.2279 81.3083 76.2576 81.2914 76.2893 81.2814C76.3211 81.2715 76.3543 81.2686 76.387 81.273L80.5811 81.8325C80.6139 81.8347 80.6459 81.8441 80.6754 81.8602C80.7049 81.8763 80.7313 81.8988 80.7531 81.9263C80.7748 81.9538 80.7916 81.9859 80.8023 82.0207C80.813 82.0555 80.8175 82.0923 80.8155 82.129C80.8136 82.1658 80.8052 82.2017 80.7908 82.2348C80.7765 82.2679 80.7565 82.2975 80.7319 82.3219C80.7074 82.3463 80.6788 82.3651 80.6478 82.3771C80.6168 82.3891 80.584 82.3942 80.5512 82.392Z" fill="#9CA3AF"/>
<path d="M71.6787 81.2618H71.6488L58.5877 79.5834C58.5216 79.5752 58.461 79.5379 58.4194 79.4797C58.3778 79.4215 58.3585 79.3471 58.3658 79.2729C58.373 79.1987 58.4063 79.1308 58.4582 79.0841C58.5101 79.0374 58.5764 79.0157 58.6425 79.0239L71.7087 80.7024C71.774 80.7108 71.8338 80.7479 71.8749 80.8055C71.916 80.8632 71.9351 80.9367 71.9281 81.0101C71.9208 81.0788 71.8915 81.1423 71.8457 81.1886C71.7998 81.2349 71.7405 81.261 71.6787 81.2618Z" fill="#9CA3AF"/>
<path d="M77.9324 88.1827C75.9589 86.1371 74.4411 83.6002 73.5013 80.7762C72.5615 77.9523 72.2258 74.9202 72.5215 71.9241L37.1133 64.7571C37.1133 64.7571 40.1504 78.056 44.1899 82.6942L77.9324 88.1827Z" fill="white"/>
<path d="M77.9324 88.4625H77.8975L44.16 82.9739C44.1052 82.9634 44.0547 82.9341 44.0154 82.89C39.9758 78.2519 36.9986 65.3725 36.8739 64.8242C36.8636 64.7792 36.8637 64.7319 36.8741 64.6869C36.8846 64.6418 36.9051 64.6006 36.9337 64.5669C36.962 64.5313 36.9979 64.5043 37.0381 64.4887C37.0782 64.473 37.1213 64.4691 37.1631 64.4774L72.5713 71.6444C72.6325 71.6591 72.6867 71.6987 72.7235 71.7555C72.7603 71.8122 72.7771 71.8822 72.7708 71.9521C72.4912 74.9025 72.8268 77.8854 73.7512 80.6653C74.6755 83.4452 76.1633 85.946 78.097 87.9701C78.1386 88.0055 78.1691 88.0549 78.1838 88.1111C78.1986 88.1673 78.197 88.2273 78.1791 88.2823C78.1613 88.3374 78.1282 88.3846 78.0847 88.417C78.0412 88.4494 77.9896 88.4654 77.9374 88.4625H77.9324ZM44.3146 82.4312L77.1894 87.7799C75.4058 85.7323 74.04 83.2745 73.1867 80.5763C72.3334 77.8782 72.0128 75.0043 72.2472 72.1535L37.4574 65.1096C38.0159 67.3979 40.7987 78.3078 44.3146 82.4312Z" fill="#9CA3AF"/>
<path d="M91.955 41.6783H91.9301L69.987 38.8809C69.9539 38.8775 69.9217 38.8666 69.8925 38.8487C69.8633 38.8309 69.8377 38.8066 69.8171 38.7773C69.7966 38.7479 69.7816 38.7142 69.7731 38.6782C69.7645 38.6421 69.7627 38.6045 69.7675 38.5676C69.7751 38.4943 69.8081 38.4272 69.8595 38.3811C69.9109 38.335 69.9764 38.3136 70.0418 38.3214L91.9849 41.1188C92.0511 41.1226 92.1132 41.1556 92.1576 41.2107C92.202 41.2658 92.2251 41.3384 92.2218 41.4126C92.2185 41.4868 92.1891 41.5564 92.14 41.6063C92.0909 41.6561 92.0261 41.682 91.96 41.6783H91.955Z" fill="#9CA3AF"/>
<path d="M91.0372 48.0117H91.0073L86.888 47.4858C86.8552 47.4814 86.8236 47.4698 86.7948 47.4517C86.7661 47.4335 86.7408 47.4092 86.7204 47.3801C86.7 47.351 86.685 47.3177 86.6761 47.2821C86.6672 47.2465 86.6646 47.2092 86.6685 47.1725C86.6725 47.1358 86.6828 47.1003 86.699 47.068C86.7151 47.0357 86.7368 47.0074 86.7627 46.9845C86.7887 46.9617 86.8184 46.9448 86.8501 46.9348C86.8819 46.9248 86.9151 46.9219 86.9478 46.9263L91.0622 47.4466C91.0949 47.4485 91.127 47.4575 91.1566 47.4733C91.1862 47.489 91.2128 47.5112 91.2348 47.5385C91.2568 47.5657 91.2738 47.5976 91.2848 47.6323C91.2958 47.6669 91.3007 47.7036 91.299 47.7404C91.2974 47.7771 91.2893 47.8131 91.2753 47.8464C91.2612 47.8796 91.2415 47.9094 91.2172 47.9341C91.1929 47.9588 91.1645 47.9778 91.1336 47.9902C91.1027 48.0026 91.07 48.008 91.0372 48.0061V48.0117Z" fill="#9CA3AF"/>
<path d="M82.3047 46.8983L69.0989 45.2199C69.0328 45.2117 68.9723 45.1744 68.9306 45.1162C68.889 45.0579 68.8697 44.9835 68.877 44.9094C68.8843 44.8352 68.9175 44.7672 68.9694 44.7206C69.0213 44.6739 69.0876 44.6522 69.1538 44.6604L82.3595 46.3388C82.3923 46.341 82.4243 46.3505 82.4538 46.3665C82.4833 46.3826 82.5097 46.4051 82.5315 46.4326C82.5532 46.4602 82.57 46.4922 82.5807 46.527C82.5914 46.5618 82.5959 46.5986 82.5939 46.6354C82.592 46.6721 82.5836 46.708 82.5692 46.7411C82.5549 46.7742 82.5349 46.8038 82.5103 46.8283C82.4858 46.8527 82.4572 46.8714 82.4262 46.8834C82.3952 46.8955 82.3624 46.9005 82.3296 46.8983H82.3047Z" fill="#9CA3AF"/>
<path d="M89.6815 53.9144H89.6516L82.8642 53.0528C82.7984 53.043 82.7387 53.0048 82.6977 52.9462C82.6567 52.8877 82.6377 52.8135 82.6448 52.7395C82.6535 52.6657 82.6876 52.5987 82.7398 52.5527C82.7919 52.5067 82.8581 52.4854 82.924 52.4933L89.7064 53.3605C89.7391 53.364 89.7708 53.3748 89.7996 53.3922C89.8284 53.4097 89.8538 53.4335 89.8743 53.4622C89.8948 53.4909 89.9099 53.5239 89.9188 53.5593C89.9276 53.5947 89.93 53.6318 89.9259 53.6682C89.9186 53.7355 89.8899 53.7976 89.8449 53.8428C89.8 53.8881 89.7419 53.9136 89.6815 53.9144Z" fill="#9CA3AF"/>
<path d="M76.3559 52.2192H76.326L67.7183 51.1002C67.6856 51.0962 67.6538 51.085 67.625 51.0672C67.5961 51.0494 67.5706 51.0254 67.55 50.9965C67.5294 50.9677 67.5141 50.9346 67.5049 50.8991C67.4957 50.8636 67.4928 50.8265 67.4964 50.7897C67.5 50.753 67.51 50.7174 67.5258 50.685C67.5417 50.6526 67.5631 50.624 67.5888 50.6009C67.6145 50.5778 67.644 50.5606 67.6756 50.5503C67.7073 50.5399 67.7404 50.5367 67.7732 50.5407L76.3858 51.6317C76.4516 51.6415 76.5114 51.6798 76.5524 51.7383C76.5934 51.7969 76.6123 51.871 76.6053 51.9451C76.6027 52.0178 76.5755 52.0867 76.5291 52.1377C76.4828 52.1887 76.4208 52.2178 76.3559 52.2192Z" fill="#9CA3AF"/>
<path d="M88.5244 59.5035H88.4945L82.8342 58.7594C82.7684 58.7496 82.7086 58.7113 82.6676 58.6528C82.6266 58.5942 82.6077 58.5201 82.6147 58.446C82.6246 58.3728 82.659 58.3066 82.7109 58.2609C82.7628 58.2152 82.8283 58.1933 82.894 58.1999L88.5493 58.9216C88.6155 58.9253 88.6776 58.9583 88.722 59.0134C88.7664 59.0685 88.7895 59.1411 88.7862 59.2153C88.7829 59.2895 88.7535 59.3592 88.7044 59.409C88.6553 59.4589 88.5905 59.4848 88.5244 59.4811V59.5035Z" fill="#9CA3AF"/>
<path d="M76.8235 58.0154H76.7935L66.5551 56.7118C66.4897 56.7033 66.43 56.6663 66.3889 56.6086C66.3478 56.551 66.3286 56.4774 66.3356 56.404C66.3444 56.3303 66.3785 56.2632 66.4306 56.2172C66.4828 56.1712 66.549 56.1499 66.6149 56.1579L76.8484 57.4615C76.9145 57.4615 76.978 57.4909 77.0247 57.5434C77.0715 57.5959 77.0977 57.667 77.0977 57.7412C77.0977 57.8154 77.0715 57.8866 77.0247 57.939C76.978 57.9915 76.9145 58.021 76.8484 58.021L76.8235 58.0154Z" fill="#9CA3AF"/>
<path d="M87.3222 65.6915L82.3002 65.0537C82.2348 65.0452 82.1751 65.0082 82.134 64.9505C82.0929 64.8929 82.0738 64.8193 82.0808 64.7459C82.0838 64.7093 82.0935 64.6738 82.109 64.6415C82.1246 64.6091 82.1458 64.5806 82.1714 64.5576C82.197 64.5347 82.2264 64.5177 82.258 64.5078C82.2895 64.4978 82.3225 64.4951 82.3551 64.4998L87.377 65.1376C87.4432 65.142 87.505 65.1758 87.549 65.2314C87.5929 65.287 87.6154 65.3599 87.6114 65.4341C87.6075 65.5083 87.5774 65.5777 87.5278 65.627C87.4782 65.6763 87.4132 65.7015 87.3471 65.6971L87.3222 65.6915Z" fill="#9CA3AF"/>
<path d="M79.1677 64.6564H79.1378L65.3585 62.8996C65.2932 62.8912 65.2334 62.8541 65.1923 62.7965C65.1512 62.7388 65.1321 62.6653 65.1391 62.5919C65.1422 62.5553 65.1518 62.5198 65.1674 62.4874C65.1829 62.4551 65.2042 62.4265 65.2297 62.4036C65.2553 62.3806 65.2848 62.3637 65.3163 62.3537C65.3479 62.3438 65.3809 62.3411 65.4134 62.3457L79.1927 64.0969C79.2588 64.1006 79.3209 64.1336 79.3653 64.1887C79.4098 64.2438 79.4329 64.3164 79.4296 64.3906C79.4263 64.4648 79.3968 64.5345 79.3477 64.5843C79.2986 64.6342 79.2339 64.6601 79.1677 64.6564Z" fill="#9CA3AF"/>
<path d="M86.0553 70.6988H86.0254L80.0409 69.9379C79.9756 69.9295 79.9158 69.8924 79.8747 69.8348C79.8336 69.7771 79.8145 69.7036 79.8215 69.6302C79.8246 69.5936 79.8342 69.5581 79.8498 69.5257C79.8653 69.4934 79.8865 69.4649 79.9121 69.4419C79.9377 69.4189 79.9672 69.402 79.9987 69.392C80.0303 69.3821 80.0633 69.3794 80.0958 69.3841L86.0803 70.145C86.1464 70.1494 86.2082 70.1831 86.2522 70.2387C86.2962 70.2944 86.3186 70.3673 86.3147 70.4415C86.3107 70.5157 86.2806 70.5851 86.231 70.6344C86.1815 70.6837 86.1165 70.7089 86.0503 70.7044L86.0553 70.6988Z" fill="#9CA3AF"/>
<path d="M77.3629 69.5966L64.1172 67.9181C64.0511 67.9099 63.9906 67.8726 63.9489 67.8144C63.9073 67.7562 63.888 67.6818 63.8953 67.6076C63.9026 67.5334 63.9358 67.4655 63.9877 67.4188C64.0396 67.3721 64.1059 67.3505 64.1721 67.3586L77.4177 69.0371C77.4839 69.0415 77.5457 69.0753 77.5897 69.1309C77.6336 69.1865 77.6561 69.2594 77.6521 69.3336C77.6482 69.4078 77.6181 69.4772 77.5685 69.5265C77.519 69.5758 77.4539 69.601 77.3878 69.5966H77.3629Z" fill="#9CA3AF"/>
<path d="M8.48616 33.2379L19.9344 60.8436C20.8825 63.1297 23.3029 64.1207 25.3407 63.0571L63.101 43.3483C65.1388 42.2847 66.0222 39.5692 65.0741 37.2831L53.6259 9.67739C52.6778 7.3913 50.2573 6.40028 48.2196 7.46387L10.4592 27.1727C8.42148 28.2363 7.53811 30.9518 8.48616 33.2379Z" fill="white"/>
<path d="M23.6327 63.7948C22.8096 63.796 22.0034 63.5333 21.3089 63.0377C20.6145 62.5421 20.0607 61.8342 19.7129 60.9973L8.2426 33.3924C7.76023 32.2275 7.70989 30.8954 8.10266 29.6889C8.49543 28.4824 9.29915 27.5002 10.3372 26.9583L48.0993 7.24764C49.1376 6.70649 50.325 6.65002 51.4004 7.09066C52.4758 7.53129 53.3513 8.43297 53.8344 9.59748L65.2797 37.2025C65.5194 37.7788 65.6555 38.4025 65.6802 39.0378C65.7048 39.6732 65.6177 40.3078 65.4236 40.9054C65.2295 41.5029 64.9324 42.0517 64.5492 42.5203C64.1659 42.989 63.7041 43.3683 63.1901 43.6365L25.428 63.3472C24.8655 63.6403 24.2529 63.793 23.6327 63.7948ZM49.9345 7.32038C49.3799 7.32079 48.832 7.45633 48.3287 7.71761L10.5666 27.4283C9.64912 27.9081 8.93896 28.7769 8.59205 29.8438C8.24515 30.9106 8.28986 32.0883 8.71637 33.1182L20.1866 60.7288C20.6154 61.7584 21.3907 62.5552 22.3425 62.9444C23.2942 63.3335 24.3447 63.2832 25.2635 62.8045L63.0056 43.0938C63.923 42.614 64.6332 41.7452 64.9801 40.6783C65.327 39.6115 65.2823 38.4338 64.8558 37.4039L53.3855 9.7933C53.0783 9.05656 52.5908 8.43294 51.9798 7.99512C51.3688 7.55729 50.6595 7.32329 49.9345 7.32038Z" fill="#9CA3AF"/>
<path d="M41.5121 20.679L44.4004 27.6438C45.0859 29.2967 46.836 30.0133 48.3094 29.2443L52.7044 26.9503C54.1778 26.1813 54.8165 24.2179 54.131 22.565L51.2427 15.6001C50.5572 13.9472 48.8071 13.2306 47.3337 13.9997L42.9387 16.2936C41.4653 17.0627 40.8266 19.026 41.5121 20.679Z" fill="#CA1F27"/>
<path d="M14.4603 31.1556C13.5538 31.6287 13.1608 32.8367 13.5826 33.8537C14.0043 34.8706 15.0811 35.3115 15.9876 34.8384L24.4476 30.4227C25.3541 29.9496 25.747 28.7416 25.3253 27.7246C24.9036 26.7076 23.8268 26.2668 22.9203 26.7399L14.4603 31.1556Z" fill="#9CA3AF"/>
<path d="M50.9941 38.543L51.804 40.496C52.0166 41.0087 52.5594 41.231 53.0164 40.9924L59.3829 37.6695C59.8399 37.4309 60.038 36.822 59.8254 36.3093L59.0155 34.3563C58.8029 33.8436 58.2601 33.6213 57.8031 33.8599L51.4366 37.1828C50.9796 37.4213 50.7815 38.0303 50.9941 38.543Z" fill="#9CA3AF"/>
<path d="M41.2768 43.6202L42.0867 45.5732C42.2993 46.0858 42.8421 46.3081 43.2991 46.0696L49.6656 42.7466C50.1226 42.5081 50.3207 41.8991 50.1081 41.3864L49.2982 39.4334C49.0856 38.9207 48.5428 38.6985 48.0858 38.937L41.7193 42.26C41.2623 42.4985 41.0642 43.1075 41.2768 43.6202Z" fill="#9CA3AF"/>
<path d="M31.5529 48.6895L32.3628 50.6425C32.5754 51.1552 33.1183 51.3774 33.5753 51.1389L39.9418 47.8159C40.3988 47.5774 40.5969 46.9684 40.3842 46.4557L39.5743 44.5028C39.3617 43.9901 38.8189 43.7678 38.3619 44.0063L31.9954 47.3293C31.5384 47.5678 31.3403 48.1768 31.5529 48.6895Z" fill="#9CA3AF"/>
<path d="M21.8357 53.7613L22.6457 55.7143C22.8583 56.227 23.4011 56.4492 23.8581 56.2107L30.2246 52.8877C30.6816 52.6492 30.8797 52.0402 30.6671 51.5275L29.8572 49.5745C29.6446 49.0618 29.1017 48.8396 28.6447 49.0781L22.2782 52.4011C21.8212 52.6396 21.6231 53.2486 21.8357 53.7613Z" fill="#9CA3AF"/>
<path d="M92.7443 28.5472C92.7025 28.5476 92.6613 28.536 92.6246 28.5135C92.588 28.491 92.5571 28.4583 92.5349 28.4185L85.8472 16.6693C85.8156 16.6071 85.8064 16.5336 85.8216 16.4641C85.8368 16.3945 85.8753 16.3341 85.929 16.2954C85.9827 16.2567 86.0476 16.2425 86.1103 16.2559C86.173 16.2692 86.2288 16.3091 86.2661 16.3672L92.9538 28.1164C92.9894 28.1787 93.0015 28.2544 92.9875 28.3268C92.9735 28.3991 92.9345 28.4623 92.879 28.5024C92.8395 28.5331 92.7923 28.5488 92.7443 28.5472Z" fill="white"/>
<path d="M72.5215 25.1345C72.4754 25.1345 72.4301 25.1204 72.3906 25.0938C72.3511 25.0672 72.3187 25.029 72.297 24.9834L68.8809 17.5814C68.8654 17.5492 68.8558 17.5138 68.8527 17.4774C68.8496 17.4409 68.853 17.4041 68.8628 17.3692C68.8725 17.3343 68.8884 17.3019 68.9095 17.2739C68.9306 17.246 68.9565 17.2231 68.9856 17.2066C69.0147 17.1891 69.0466 17.1782 69.0795 17.1746C69.1124 17.1711 69.1455 17.1749 69.1771 17.1858C69.2086 17.1967 69.2379 17.2146 69.2633 17.2383C69.2886 17.262 69.3095 17.2912 69.3247 17.3241L72.7409 24.726C72.7711 24.7923 72.777 24.8691 72.7575 24.9401C72.7379 25.0112 72.6944 25.0709 72.6362 25.1065C72.5997 25.1232 72.5608 25.1327 72.5215 25.1345Z" fill="white"/>
<path d="M16.8116 68.5113L14.722 71.2024C13.3904 73.0711 9.15642 71.7619 5.27648 68.2652C1.39654 64.7684 -0.67808 60.438 0.668428 58.5637L2.763 55.8726L16.8116 68.5113Z" fill="white"/>
<path d="M12.7464 72.3381C10.7516 72.3381 7.87406 70.9561 5.11621 68.4832C3.36584 66.9682 1.8955 65.0849 0.787432 62.9387C-0.135176 60.9973 -0.249876 59.386 0.458287 58.3901L2.55784 55.6878C2.60024 55.6334 2.65974 55.5996 2.72388 55.5933C2.78802 55.5871 2.85183 55.6089 2.90195 55.6542L16.9655 68.2706C16.9925 68.2929 17.0149 68.3214 17.0313 68.3542C17.0476 68.387 17.0575 68.4234 17.0602 68.4608C17.0657 68.5377 17.0442 68.614 17.0004 68.6734L14.9058 71.3645C14.6362 71.7013 14.3013 71.9641 13.927 72.1329C13.5526 72.3016 13.1488 72.3718 12.7464 72.3381ZM2.77229 56.2585L0.84229 58.7594C0.278751 59.5482 0.418391 60.9973 1.2263 62.6758C2.30189 64.7583 3.73004 66.5847 5.4304 68.0524C9.13579 71.4093 13.3 72.7465 14.5268 71.0345L16.4518 68.5503L2.77229 56.2585Z" fill="#9CA3AF"/>
<path d="M16.8091 68.5065C18.1418 66.6398 16.0729 62.297 12.1881 58.8067C8.30339 55.3164 4.07389 54.0003 2.74127 55.867C1.40866 57.7338 3.47757 62.0765 7.36231 65.5668C11.247 69.0571 15.4765 70.3733 16.8091 68.5065Z" fill="white"/>
<path d="M14.8372 69.6414C12.8424 69.6414 9.95984 68.2594 7.21196 65.7921C5.45883 64.2788 3.98658 62.3952 2.8782 60.2476C1.95559 58.3062 1.84089 56.6949 2.55404 55.699C3.2622 54.7031 4.69349 54.4737 6.5786 55.0612C8.68878 55.8045 10.6489 57.0038 12.3486 58.5915C16.4031 62.2338 18.4478 66.6649 17.0066 68.6623C16.7357 69.0005 16.3993 69.2647 16.0232 69.4344C15.6472 69.6041 15.2414 69.6749 14.8372 69.6414ZM4.71843 55.3074C4.39204 55.2727 4.06289 55.3211 3.7555 55.449C3.44811 55.5769 3.17039 55.7809 2.94303 56.0459C2.36951 56.8459 2.50915 58.2838 3.32205 59.9623C4.39617 62.0443 5.8226 63.8707 7.52116 65.3389C11.2266 68.6958 15.3957 70.033 16.6176 68.321C17.8394 66.609 15.7448 62.3401 12.0345 59.0112C10.3886 57.4704 8.48923 56.307 6.44395 55.5871C5.88282 55.4061 5.30228 55.312 4.71843 55.3074Z" fill="#9CA3AF"/>
<path d="M6.50761 57.4055L7.42025 58.379H7.52498C7.81921 58.4405 8.09849 58.4853 8.39771 58.5692C9.18401 58.8052 9.92689 59.1954 10.592 59.7217C11.0079 60.0383 11.3851 60.4145 11.7141 60.8407C11.9209 61.0715 12.0585 61.3687 12.1081 61.6911C12.1183 61.8053 12.0969 61.9201 12.047 62.0202C11.997 62.1203 11.9209 62.2007 11.8288 62.2506C11.6842 62.3625 11.5246 62.4632 11.365 62.5751L13.0806 64.4046C13.3748 64.1696 13.2451 63.7724 12.8412 63.2857L13.8935 63.0842C14.2135 63.3959 14.4747 63.7764 14.6615 64.2032C14.7408 64.3636 14.7751 64.5472 14.76 64.7298C14.7448 64.9125 14.681 65.0858 14.5767 65.2271C14.472 65.3558 14.3273 65.4677 14.1977 65.5963L14.8211 66.2621L13.8236 66.6146L13.1853 65.9376C12.8761 65.9376 12.5869 65.9376 12.2677 65.9376C11.6524 65.8717 11.0528 65.6821 10.4973 65.3781C9.7437 65.0047 9.06518 64.4642 8.50244 63.7892C7.92893 63.0842 7.80425 62.5304 8.15833 62.1555C8.39483 61.9273 8.66948 61.7542 8.96624 61.6464L9.08593 61.596L7.34544 59.7497H7.29557C7.25613 59.8689 7.22935 59.9928 7.21578 60.119C7.27243 60.3717 7.40007 60.5973 7.57984 60.7624L5.94906 60.8743C5.8194 60.7176 5.68973 60.5666 5.57503 60.4155C5.15612 59.856 4.99653 59.3916 5.1262 59.028C5.21154 58.8523 5.33476 58.7034 5.4846 58.5949C5.63444 58.4865 5.80613 58.4218 5.98397 58.4069C6.03883 58.4069 6.03883 58.3734 5.98397 58.3118C5.66979 57.9873 5.36059 57.6572 5.05139 57.3271L6.50761 57.4055ZM10.4474 63.0563C10.2928 63.1961 10.0933 63.3024 10.1332 63.5654C10.1731 63.8284 10.7167 64.3767 11.2204 64.5669C11.4681 64.6662 11.7305 64.7118 11.9934 64.7012L10.4474 63.0563ZM10.0484 61.182C10.1831 61.0981 10.3177 61.0309 10.3377 60.8799C10.3726 60.6001 9.83898 60.0686 9.2904 59.8448C9.05601 59.7441 8.83159 59.6882 8.57226 59.6042L10.0484 61.182Z" fill="#9CA3AF"/>
<path d="M33.0234 96.8994L34.2453 100.195C35.1429 102.366 32.2155 106.03 27.7072 108.391C23.1989 110.752 18.8103 110.898 17.9076 108.733L16.6858 105.432L33.0234 96.8994Z" fill="white"/>
<path d="M21.1789 110.551C19.4385 110.551 18.1518 109.991 17.688 108.872L16.4612 105.566C16.437 105.499 16.4364 105.424 16.4596 105.357C16.4827 105.289 16.5279 105.234 16.5859 105.202L32.9235 96.6701C32.9541 96.6549 32.9872 96.647 33.0207 96.647C33.0543 96.647 33.0874 96.6549 33.118 96.6701C33.1494 96.6845 33.1779 96.7057 33.2019 96.7326C33.2259 96.7595 33.2448 96.7915 33.2576 96.8268L34.4795 100.122C35.447 102.455 32.5245 106.215 27.8167 108.677C25.745 109.814 23.4839 110.453 21.1789 110.551ZM17.0098 105.572L18.1368 108.621C18.9597 110.601 23.2935 110.383 27.6123 108.134C31.9311 105.885 34.8535 102.304 34.0256 100.301L32.9036 97.2632L17.0098 105.572Z" fill="#9CA3AF"/>
<path d="M26.4816 105.095C30.9934 102.738 33.9214 99.0693 33.0214 96.9012C32.1215 94.7332 27.7344 94.8863 23.2227 97.2434C18.7109 99.6005 15.7829 103.269 16.6828 105.437C17.5827 107.605 21.9698 107.452 26.4816 105.095Z" fill="white"/>
<path d="M19.9424 107.244C18.1471 107.244 16.9153 106.651 16.4515 105.566C15.4541 103.227 18.4014 99.4619 23.1092 97.0058C27.817 94.5496 32.2655 94.4545 33.238 96.7988C34.2104 99.143 31.288 102.903 26.5802 105.364C24.592 106.452 22.434 107.094 20.2267 107.256L19.9424 107.244ZM29.7819 95.6854C27.5407 95.7887 25.3431 96.4137 23.3287 97.5205C19.0248 99.7584 16.0874 103.35 16.9103 105.353C17.2993 106.282 18.5161 106.774 20.2217 106.718C22.3622 106.562 24.4547 105.937 26.3807 104.878C30.6846 102.64 33.622 99.0479 32.7941 97.0449C32.4151 96.105 31.298 95.6854 29.7819 95.6854Z" fill="#9CA3AF"/>
<path d="M19.5786 102.332L20.7606 101.845L20.8254 101.75C21.0049 101.482 21.1595 101.191 21.364 100.956C21.9032 100.276 22.5446 99.7078 23.2591 99.2772C23.6983 99.001 24.1677 98.7903 24.6555 98.6506C24.9326 98.5497 25.2311 98.5497 25.5083 98.6506C25.5993 98.6925 25.6773 98.7638 25.7323 98.8554C25.7874 98.947 25.817 99.0548 25.8175 99.1653C25.8175 99.3611 25.8524 99.5681 25.8673 99.7751L28.0916 98.8632C28.0317 98.4603 27.6627 98.4156 27.0942 98.6058L27.3984 97.4868C27.7955 97.3046 28.2211 97.2133 28.6501 97.2183C28.8155 97.2095 28.9793 97.2586 29.1187 97.3588C29.2581 97.4591 29.3662 97.6055 29.4281 97.7778C29.482 97.9609 29.5253 98.1478 29.5578 98.3373L30.3657 98.0072L30.2061 99.1653L29.3832 99.5122C29.2436 99.8199 29.1239 100.116 28.9643 100.43C28.6441 101.02 28.2319 101.541 27.7475 101.968C27.1185 102.562 26.3866 103.002 25.598 103.261C24.7802 103.529 24.2864 103.406 24.1418 102.886C24.0641 102.548 24.0472 102.196 24.0919 101.851C24.0919 101.8 24.0919 101.75 24.0919 101.705L21.8478 102.64L21.8079 102.679C21.8839 102.772 21.9712 102.853 22.0672 102.919C22.2932 102.977 22.5298 102.95 22.7405 102.841L22.1071 104.52C21.9226 104.581 21.748 104.643 21.5785 104.687C20.9451 104.866 20.5013 104.822 20.2669 104.525C20.167 104.364 20.1042 104.177 20.0842 103.982C20.0642 103.787 20.0876 103.589 20.1522 103.406C20.1522 103.35 20.1522 103.339 20.0724 103.373L18.8705 103.871L19.5786 102.332ZM25.8424 100.877C25.8873 101.096 25.8823 101.342 26.1067 101.437C26.3494 101.434 26.589 101.374 26.8103 101.263C27.0317 101.151 27.2302 100.989 27.3934 100.788C27.5825 100.581 27.7349 100.336 27.8422 100.066L25.8424 100.877ZM24.1668 100.447C24.1668 100.279 24.1668 100.105 24.052 100.021C23.8476 99.8647 23.1893 100.161 22.7604 100.614C22.5809 100.805 22.4362 101.006 22.2617 101.23L24.1668 100.447Z" fill="#9CA3AF"/>
<path d="M21.0802 76.3104C19.3048 79.6281 21.2946 86.9798 21.2946 86.9798L23.9228 89.1282C24.8597 89.7604 25.8984 90.1795 26.9796 90.3614C28.0608 90.5432 29.1633 90.4845 30.2242 90.1883C31.2852 89.8922 32.2838 89.3645 33.1629 88.6355C34.0421 87.9064 34.7847 86.9902 35.3482 85.9391C35.9118 84.8881 36.2853 83.7229 36.4474 82.5099C36.6095 81.2969 36.5571 80.06 36.2932 78.8698C36.0292 77.6795 35.5589 76.5593 34.909 75.5729C34.2591 74.5866 33.4424 73.7536 32.5056 73.1213L29.5931 71.5156C29.5931 71.5156 22.8556 72.9983 21.0802 76.3104Z" fill="white"/>
<path d="M28.1965 90.7451C26.6462 90.7421 25.1258 90.2663 23.7979 89.3688L21.1447 87.2092C21.1018 87.1726 21.0704 87.1217 21.055 87.0637C20.9702 86.756 19.0602 79.5498 20.8655 76.165C22.6808 72.808 29.2537 71.303 29.533 71.2415C29.5835 71.2252 29.6371 71.2252 29.6876 71.2415L32.61 72.8472C34.2189 73.9299 35.467 75.5744 36.1631 77.5289C36.8593 79.4834 36.965 81.6401 36.4642 83.6685C35.9634 85.6968 34.8836 87.4851 33.3903 88.7592C31.897 90.0333 30.0726 90.7231 28.1965 90.7227V90.7451ZM21.5088 86.8287L24.0722 88.9156C25.9074 90.1455 28.1025 90.5087 30.176 89.9256C32.2496 89.3424 34.0324 87.8605 35.1335 85.8049C36.2345 83.7462 36.5624 81.2816 36.0454 78.9519C35.5283 76.6222 34.2085 74.6179 32.3756 73.3787L29.548 71.8289C28.7849 72.008 22.8902 73.5074 21.2944 76.4727C19.6985 79.4603 21.2944 85.9727 21.5088 86.8119V86.8287Z" fill="#9CA3AF"/>
<path d="M26.4014 89.24C30.9983 89.24 34.7248 85.0594 34.7248 79.9022C34.7248 74.7451 30.9983 70.5645 26.4014 70.5645C21.8045 70.5645 18.078 74.7451 18.078 79.9022C18.078 85.0594 21.8045 89.24 26.4014 89.24Z" fill="white"/>
<path d="M26.3859 89.5309C25.0658 89.527 23.7644 89.1812 22.583 88.5203C21.4016 87.8594 20.3723 86.9014 19.5752 85.7209C18.778 84.5404 18.2347 83.1693 17.9875 81.7145C17.7403 80.2597 17.7959 78.7605 18.1499 77.3338C18.504 75.9071 19.147 74.5914 20.0288 73.4893C20.9106 72.3871 22.0073 71.5283 23.2335 70.9798C24.4598 70.4313 25.7823 70.2079 27.0981 70.3271C28.414 70.4462 29.6875 70.9046 30.8194 71.6666C32.4287 72.7499 33.6766 74.3957 34.3717 76.3514C35.0668 78.3072 35.1706 80.4647 34.6672 82.4931C34.1639 84.5214 33.0811 86.3083 31.5851 87.5797C30.0892 88.851 28.2627 89.5365 26.3859 89.5309ZM26.4159 70.8553C24.4625 70.852 22.5742 71.6433 21.1012 73.0825C19.6281 74.5218 18.67 76.5113 18.4045 78.6824C18.1391 80.8535 18.5842 83.059 19.6574 84.8901C20.7307 86.7211 22.3592 88.0536 24.2413 88.6405C26.1233 89.2275 28.1312 89.029 29.8928 88.082C31.6544 87.135 33.0502 85.5037 33.8216 83.4903C34.5929 81.477 34.6875 79.2181 34.0878 77.1325C33.4881 75.0469 32.2348 73.2759 30.5601 72.1478C29.3093 71.3005 27.877 70.85 26.4159 70.8442V70.8553Z" fill="#9CA3AF"/>
<path d="M21.7329 75.6223L22.7702 76.3273C22.84 76.372 22.8749 76.3664 22.9248 76.2993C23.332 75.7915 23.8465 75.4067 24.4209 75.1803C25.0204 74.943 25.6764 74.9589 26.2661 75.2251C26.4257 75.2978 26.5803 75.3817 26.7648 75.4657L25.7973 77.2672C25.5539 77.1066 25.269 77.0435 24.9894 77.0882C24.7746 77.1511 24.5631 77.2277 24.3561 77.3176V77.3623L26.3509 78.7163L26.4955 78.5484C26.8431 78.1264 27.233 77.7509 27.6575 77.4295C27.9702 77.1768 28.3383 77.0246 28.7223 76.9891C29.1062 76.9536 29.4916 77.0362 29.8369 77.228C30.5084 77.5353 31.0456 78.1259 31.333 78.8729C31.5697 79.4801 31.6291 80.1558 31.5025 80.8031C31.4277 81.206 31.3081 81.6032 31.2033 82.0172L31.9813 82.5431L31.0936 84.2216L30.2957 83.6621C30.0314 83.9419 29.797 84.2216 29.5426 84.4678C29.0472 84.9549 28.4201 85.2406 27.7622 85.279C27.1965 85.2946 26.6393 85.1213 26.1614 84.7811L27.1089 83.0075C27.39 83.1812 27.7141 83.2462 28.0314 83.1926C28.3487 83.139 28.6414 82.9698 28.8644 82.711L26.715 81.2675C26.4506 81.5417 26.1863 81.827 25.917 82.0956C25.6014 82.4358 25.2161 82.6836 24.7949 82.8173C24.3624 82.9385 23.9069 82.9032 23.4933 82.7166C22.9776 82.5149 22.5218 82.1565 22.1767 81.6815C21.9294 81.3375 21.7525 80.9366 21.6585 80.5073C21.5646 80.0781 21.5559 79.6309 21.6331 79.1974C21.693 78.845 21.8177 78.5037 21.9074 78.1624C21.9074 78.1232 21.9074 78.0841 21.9473 78.0393L20.8701 77.312L21.7329 75.6223ZM29.7521 81.0269C29.8674 80.7336 29.9055 80.4094 29.8618 80.0926C29.8171 79.8231 29.6858 79.5813 29.4928 79.4132C29.2997 79.2451 29.0584 79.1623 28.8145 79.1806C28.4694 79.2871 28.1572 79.4981 27.9119 79.7905L29.7521 81.0269ZM23.2938 78.9401C23.2584 79.2142 23.2417 79.4911 23.244 79.7681C23.255 79.918 23.2951 80.0634 23.3614 80.1942C23.4277 80.325 23.5186 80.438 23.6278 80.5253C23.737 80.6127 23.8618 80.6723 23.9936 80.7C24.1254 80.7276 24.261 80.7228 24.391 80.6857C24.6536 80.5568 24.8883 80.366 25.0792 80.1262L23.2938 78.9401Z" fill="#9CA3AF"/>
</g>
</svg>
