<svg width="15" height="14" viewBox="0 0 15 14" fill="none" xmlns="http://www.w3.org/2000/svg">
<path fill-rule="evenodd" clip-rule="evenodd" d="M0.5 1C0.5 0.447715 0.947715 0 1.5 0H4.5C5.05228 0 5.5 0.447715 5.5 1V4C5.5 4.55228 5.05228 5 4.5 5H1.5C0.947715 5 0.5 4.55228 0.5 4V1ZM2.5 3V2H3.5V3H2.5Z" fill="white"/>
<path fill-rule="evenodd" clip-rule="evenodd" d="M0.5 10C0.5 9.44771 0.947715 9 1.5 9H4.5C5.05228 9 5.5 9.44771 5.5 10V13C5.5 13.5523 5.05228 14 4.5 14H1.5C0.947715 14 0.5 13.5523 0.5 13V10ZM2.5 12V11H3.5V12H2.5Z" fill="white"/>
<path fill-rule="evenodd" clip-rule="evenodd" d="M10.5 0C9.94771 0 9.5 0.447715 9.5 1V4C9.5 4.55228 9.94771 5 10.5 5H13.5C14.0523 5 14.5 4.55228 14.5 4V1C14.5 0.447715 14.0523 0 13.5 0H10.5ZM11.5 2V3H12.5V2H11.5Z" fill="white"/>
<path d="M8.5 1C8.5 0.447715 8.05228 0 7.5 0C6.94771 0 6.5 0.447715 6.5 1V2C6.5 2.55228 6.94771 3 7.5 3C8.05228 3 8.5 2.55228 8.5 2V1Z" fill="white"/>
<path d="M7.5 4C8.05228 4 8.5 4.44771 8.5 5V6H10.5C11.0523 6 11.5 6.44771 11.5 7C11.5 7.55228 11.0523 8 10.5 8H7.5C6.94771 8 6.5 7.55228 6.5 7V5C6.5 4.44771 6.94771 4 7.5 4Z" fill="white"/>
<path d="M13.5 6C12.9477 6 12.5 6.44771 12.5 7C12.5 7.55228 12.9477 8 13.5 8C14.0523 8 14.5 7.55228 14.5 7C14.5 6.44771 14.0523 6 13.5 6Z" fill="white"/>
<path d="M6.5 10C6.5 9.44771 6.94771 9 7.5 9H8.5C9.05228 9 9.5 9.44771 9.5 10C9.5 10.5523 9.05228 11 8.5 11V13C8.5 13.5523 8.05228 14 7.5 14C6.94771 14 6.5 13.5523 6.5 13V10Z" fill="white"/>
<path d="M4.5 8C5.05228 8 5.5 7.55228 5.5 7C5.5 6.44771 5.05228 6 4.5 6H1.5C0.947715 6 0.5 6.44771 0.5 7C0.5 7.55228 0.947715 8 1.5 8H4.5Z" fill="white"/>
<path d="M14.5 10C14.5 10.5523 14.0523 11 13.5 11H11.5C10.9477 11 10.5 10.5523 10.5 10C10.5 9.44771 10.9477 9 11.5 9H13.5C14.0523 9 14.5 9.44771 14.5 10Z" fill="white"/>
<path d="M13.5 14C14.0523 14 14.5 13.5523 14.5 13C14.5 12.4477 14.0523 12 13.5 12H10.5C9.94771 12 9.5 12.4477 9.5 13C9.5 13.5523 9.94771 14 10.5 14H13.5Z" fill="white"/>
</svg>
