<svg width="255" height="170" viewBox="0 0 255 170" fill="none" xmlns="http://www.w3.org/2000/svg">
<g clip-path="url(#clip0_689_3511)">
<path d="M174.932 52.9952L164.245 33.0597L174.964 50.5059L175.062 43.3702L167.718 28.9593L175.089 41.4836L175.263 28.6508L167.279 17.1174L175.29 26.6328L175.873 3.2074L175.876 3.11011L175.876 3.20903L175.784 32.9316L184.599 20.8997L175.809 35.4519L176.157 49.7986L176.194 49.4193L186.357 36.7261L176.182 50.7622L176.226 52.5566L176.243 52.5849L176.23 52.7314L176.691 71.72C176.026 71.7464 175.354 71.7571 174.676 71.7522L174.695 70.275L165.422 55.7348L174.714 68.8627L174.932 52.9952Z" fill="#CBCBCB"/>
<path d="M125.139 64.3856L114.452 44.4501L125.172 61.8963L125.269 54.7606L117.925 40.3497L125.296 52.874L125.471 40.0412L117.487 28.5078L125.497 38.0232L126.081 14.5978L126.084 14.5005L126.084 14.5994L125.992 44.322L134.806 32.2901L126.017 46.8423L126.365 61.189L126.401 60.8097L136.565 48.1165L126.389 62.1526L126.433 63.9469L126.45 63.9753L126.438 64.1217L126.899 83.1104C126.233 83.1368 125.562 83.1475 124.883 83.1426L124.903 81.6654L115.63 67.1252L124.922 80.2531L125.139 64.3856Z" fill="#CBCBCB"/>
<path d="M217.784 49.8851L207.097 29.9496L217.817 47.3958L217.914 40.2601L210.57 25.8492L217.941 38.3735L218.116 25.5407L210.132 14.0073L218.142 23.5227L218.725 0.0972901L218.728 0L218.729 0.0989261L218.637 29.8215L227.451 17.7896L218.662 32.3418L219.01 46.6885L219.046 46.3092L229.21 33.616L219.034 47.6521L219.078 49.4465L219.095 49.4748L219.082 49.6213L219.543 68.6099C218.878 68.6363 218.206 68.647 217.528 68.6421L217.547 67.1649L208.274 52.6247L217.566 65.7526L217.784 49.8851Z" fill="#CBCBCB"/>
<path d="M33.811 118.39C40.0362 114.03 46.5645 110.075 53.3512 106.552C72.3324 96.6016 95.6747 88.0931 122.212 81.5018C124.036 81.0474 125.874 80.6032 127.728 80.1692C131.666 79.2434 135.669 78.3618 139.737 77.5245C140.742 77.3186 141.749 77.1135 142.76 76.9093C148.421 75.7784 154.196 74.7343 160.083 73.777C160.201 73.7565 160.319 73.7387 160.44 73.7208C161.822 73.4936 163.211 73.2741 164.605 73.0622C192.47 68.7607 222.667 66.3943 254.215 66.3585C254.476 66.356 254.739 66.356 255 66.356V170H0C0 151.209 12.3013 133.587 33.811 118.39Z" fill="white"/>
<path d="M84.4779 130.212C95.3443 122.536 109.258 115.661 125.549 109.863C127.358 109.218 129.196 108.587 131.063 107.972C131.324 107.885 131.587 107.798 131.85 107.711C134.228 106.935 136.652 106.18 139.121 105.445C143.294 104.206 147.586 103.035 151.995 101.932C155.151 101.14 158.363 100.385 161.631 99.6675C162.681 99.4344 163.735 99.208 164.793 98.9885C167.2 98.4796 169.635 97.9929 172.1 97.5283C197.29 92.7596 225.381 90.097 255 90.097V170H58.4109C58.4109 155.513 67.8961 141.927 84.4779 130.212Z" fill="#CA1F27"/>
<path d="M79.324 165.854L79.8103 166.074C81.4614 162.826 83.4776 159.757 85.8239 156.922L85.3994 156.608C83.03 159.473 80.993 162.573 79.324 165.854ZM93.1649 148.592L93.5331 148.965C96.1696 146.636 98.9416 144.449 101.836 142.414C101.997 142.299 102.161 142.185 102.325 142.07L102.005 141.659C101.841 141.774 101.677 141.889 101.514 142.006C98.6038 144.052 95.8166 146.251 93.1649 148.592ZM111.552 135.632L111.829 136.068C114.962 134.271 118.324 132.504 121.817 130.817L121.572 130.36C118.068 132.055 114.696 133.829 111.552 135.632ZM131.939 125.732L132.151 126.199C135.545 124.797 139.111 123.429 142.744 122.135L142.555 121.658C138.912 122.954 135.341 124.325 131.939 125.732ZM153.365 118.071L153.529 118.556C154.48 118.262 155.434 117.974 156.399 117.685C159.027 116.907 161.741 116.141 164.468 115.416L164.323 114.923C161.59 115.651 158.871 116.417 156.238 117.2C155.274 117.487 154.317 117.777 153.365 118.071ZM178.766 111.418C177.64 111.663 176.506 111.919 175.399 112.174L175.525 112.669C176.632 112.416 177.764 112.161 178.89 111.913C179.956 111.679 181.018 111.449 182.047 111.237C183.581 110.913 185.14 110.594 186.677 110.292L186.569 109.792C185.027 110.096 183.468 110.412 181.931 110.737C180.902 110.951 179.835 111.181 178.766 111.418ZM197.812 107.755L197.906 108.258C201.606 107.643 205.405 107.066 209.194 106.545L209.116 106.039C205.322 106.563 201.52 107.14 197.812 107.755ZM220.469 104.633L220.531 105.141C224.276 104.727 228.103 104.355 231.905 104.03L231.856 103.522C228.052 103.847 224.22 104.219 220.469 104.633ZM243.274 102.698L243.306 103.208C247.079 102.981 250.921 102.797 254.726 102.662L254.707 102.151C250.894 102.289 247.049 102.473 243.274 102.698Z" fill="white"/>
<path d="M135.69 142.162C159.433 125.387 203.973 114.094 255 114.094V170H117.45C117.45 159.865 124.087 150.359 135.69 142.162Z" fill="white"/>
<path d="M64.6092 107.687L62.8876 107.687L62.0684 101.378H64.6095L64.6092 107.687Z" fill="#FFB7B7"/>
<path d="M65.0483 109.273L59.4968 109.273V109.206C59.4969 108.662 59.7245 108.139 60.1298 107.754C60.535 107.37 61.0846 107.153 61.6576 107.153L65.0484 107.153L65.0483 109.273Z" fill="#2F2E41"/>
<path d="M79.8192 106.482L78.1563 106.907L75.6433 101.015L78.0977 100.389L79.8192 106.482Z" fill="#FFB7B7"/>
<path d="M80.676 107.906L75.3142 109.273L75.296 109.208C75.1475 108.683 75.2249 108.122 75.5112 107.651C75.7975 107.179 76.2693 106.835 76.8227 106.694L80.0976 105.859L80.676 107.906Z" fill="#2F2E41"/>
<path d="M57.4398 78.4279C56.4447 79.6434 59.5721 89.7727 59.7143 89.9077C59.8565 90.0428 59.5721 90.8531 59.5721 90.8531C59.5715 90.9993 59.6214 91.1417 59.7143 91.2583C59.8564 91.3933 59.7143 91.5284 59.7143 91.7985C59.7143 92.0686 59.7143 92.0686 59.9986 92.6088C60.1689 92.9924 60.2183 93.4146 60.1408 93.8243L61.9888 104.089C61.8522 104.144 61.7375 104.24 61.6609 104.361C61.5844 104.482 61.5499 104.623 61.5623 104.764C61.5623 105.304 64.4055 105.574 65.4006 105.439C66.3957 105.304 64.6898 93.2841 64.6898 93.2841C64.6898 93.2841 64.6898 90.1778 64.9741 89.9077C65.2585 89.6376 64.9741 89.6376 64.9741 89.0974C64.9741 88.5571 64.5476 87.7468 64.6898 87.3416C64.832 86.9365 64.9741 81.129 64.9741 81.129C64.9741 81.129 68.2438 86.9365 68.2438 87.7468C68.2438 88.5571 69.2389 89.9077 69.2389 89.9077L75.7781 102.581C75.7781 102.581 75.3517 103.392 75.7781 104.067C76.2046 104.742 78.0527 104.202 79.9007 103.527C81.7488 102.851 79.1899 101.771 79.1899 101.771L75.2095 90.9881C75.2189 90.5798 75.2665 90.173 75.3517 89.7726C75.4938 89.0973 74.9252 89.3675 74.4987 89.0973C74.0722 88.8272 74.2144 88.8272 74.4987 88.287C74.783 87.7468 74.0722 86.5313 74.0722 86.5313L72.2242 76.5371C72.2242 76.5371 58.4349 77.2124 57.4398 78.4279Z" fill="#2F2E41"/>
<path d="M62.0201 54.0829C64.0614 54.0829 65.7162 52.5107 65.7162 50.5714C65.7162 48.6321 64.0614 47.0599 62.0201 47.0599C59.9788 47.0599 58.324 48.6321 58.324 50.5714C58.324 52.5107 59.9788 54.0829 62.0201 54.0829Z" fill="#FFB8B8"/>
<path d="M60.6454 55.1532C60.6454 55.1532 55.603 57.3483 55.1766 58.4287C54.7501 59.5092 57.8662 69.5142 57.8662 69.5142C57.8662 69.5142 58.0553 73.7209 57.4866 75.3416C56.918 76.9623 57.0132 77.2124 57.0132 77.2124V78.4279C57.0132 79.1032 61.5623 78.563 63.8368 77.8877C66.1114 77.2124 71.9398 77.3475 72.5085 77.2124C73.0771 77.0774 71.5576 75.3416 71.5576 75.3416C73.5478 75.2066 71.5576 71.2494 71.5576 71.2494C71.5576 71.2494 71.3541 58.4396 70.7855 56.6838C70.2169 54.9281 64.9529 54.6075 64.9529 54.6075L62.2731 55.4683L60.6454 55.1532Z" fill="#CA1F27"/>
<path d="M66.4978 49.6473C66.688 48.7686 66.5073 47.8542 65.9945 47.1009C65.6899 46.6589 65.2918 46.282 64.8254 45.9942C64.3591 45.7064 63.8348 45.5141 63.2859 45.4294C62.1998 45.282 61.0924 45.4602 60.118 45.9391C59.5281 46.2141 58.8899 46.5828 58.2723 46.3815L58.4537 46.6908L57.9943 46.6959L58.1621 47.0577L57.7236 47.1172L58.0628 47.3105C57.6093 48.0778 57.3037 48.9157 57.1603 49.785C57.0739 50.1287 57.1023 50.4893 57.2414 50.817C57.4074 51.1252 57.8358 51.3053 58.1099 51.0927C58.2819 50.9593 58.3405 50.7254 58.4611 50.5423C58.5818 50.3592 58.859 50.2315 59.0027 50.3962L59.3735 49.692L59.6704 49.9216C60.3851 49.324 61.2101 48.8573 62.1035 48.5448C62.2121 48.491 62.3321 48.4613 62.4545 48.4582C62.577 48.455 62.6985 48.4784 62.81 48.5266C63.1413 48.7282 63.0933 49.2442 63.3228 49.5611C63.6959 50.0764 64.6149 49.8625 64.9683 50.3921C65.0721 50.6026 65.1422 50.8267 65.1765 51.0568C65.2397 51.2817 65.3919 51.5182 65.6202 51.5327C66.1017 51.0609 66.2856 50.4068 66.4978 49.6473Z" fill="#2F2E41"/>
<path d="M75.4189 77.5323C75.2301 77.4109 75.0717 77.2517 74.9547 77.0658C74.8377 76.8799 74.7651 76.6719 74.7418 76.4564C74.7186 76.241 74.7454 76.0233 74.8203 75.8188C74.8952 75.6142 75.0165 75.4278 75.1754 75.2726L72.6899 70.5674L75.5495 70.8891L77.4713 75.3079C77.7281 75.5789 77.8714 75.9299 77.8739 76.2945C77.8764 76.6592 77.7381 77.012 77.4851 77.2862C77.2321 77.5604 76.882 77.7369 76.5012 77.7823C76.1204 77.8276 75.7353 77.7387 75.4189 77.5323Z" fill="#FFB8B8"/>
<path d="M73.3714 74.1553L70.4738 65.2443L67.1668 58.4318C67.0272 58.1442 66.9582 57.8303 66.9651 57.5136C66.9719 57.197 67.0544 56.886 67.2063 56.6041C67.3581 56.3222 67.5755 56.0767 67.8418 55.8863C68.1082 55.6959 68.4166 55.5654 68.7438 55.5048C69.2624 55.4112 69.7992 55.4969 70.2571 55.7464C70.7151 55.9959 71.064 56.3928 71.2409 56.8654L77.2717 73.2187C77.3045 73.3076 77.3169 73.402 77.3083 73.4958C77.2996 73.5896 77.27 73.6805 77.2215 73.7626C77.173 73.8447 77.1066 73.916 77.0268 73.9718C76.947 74.0276 76.8556 74.0666 76.7587 74.0862L74.1836 74.6079C74.1348 74.6178 74.0851 74.6228 74.0352 74.6229C73.8864 74.6229 73.7415 74.5774 73.622 74.4932C73.5025 74.409 73.4146 74.2906 73.3714 74.1553Z" fill="#CA1F27"/>
<path d="M55.4676 80.6096C55.6239 80.452 55.742 80.2637 55.8135 80.0581C55.885 79.8524 55.9081 79.6344 55.8813 79.4193C55.8544 79.2042 55.7783 78.9974 55.6582 78.8133C55.5382 78.6292 55.3771 78.4723 55.1863 78.3538L56.5315 73.2468L53.8146 74.1534L52.9538 78.8641C52.7654 79.1818 52.7062 79.5541 52.7875 79.9105C52.8687 80.2668 53.0848 80.5825 53.3946 80.7976C53.7045 81.0128 54.0867 81.1125 54.4687 81.0778C54.8508 81.0432 55.2062 80.8766 55.4676 80.6096Z" fill="#FFB8B8"/>
<path d="M56.1499 77.4834C56.1011 77.4937 56.0514 77.4991 56.0015 77.4996L53.3687 77.5242C53.2696 77.5251 53.1715 77.506 53.0808 77.4681C52.9901 77.4301 52.9089 77.3743 52.8427 77.3043C52.7765 77.2342 52.7267 77.1516 52.6968 77.0619C52.6668 76.9722 52.6573 76.8774 52.6688 76.7839L54.7992 59.5745C54.8633 59.0767 55.1127 58.617 55.5023 58.2786C55.892 57.9402 56.3961 57.7453 56.9238 57.7292C57.257 57.7205 57.5879 57.7839 57.8916 57.9145C58.1953 58.0452 58.4637 58.2397 58.6767 58.4833C58.8896 58.7269 59.0415 59.0134 59.1209 59.3209C59.2003 59.6285 59.2051 59.9492 59.1349 60.2588L57.4718 67.5927L56.6903 76.8895C56.6792 77.0305 56.6206 77.1643 56.5233 77.2713C56.426 77.3782 56.2951 77.4526 56.1499 77.4834Z" fill="#CA1F27"/>
</g>
<defs>
<clipPath id="clip0_689_3511">
<rect width="255" height="170" fill="white"/>
</clipPath>
</defs>
</svg>
