<svg width="43" height="42" viewBox="0 0 43 42" fill="none" xmlns="http://www.w3.org/2000/svg">
<mask id="mask0_689_3055" style="mask-type:alpha" maskUnits="userSpaceOnUse" x="1" y="0" width="41" height="41">
<circle cx="21.5003" cy="20.9998" r="20.0003" fill="#C4C4C4"/>
</mask>
<g mask="url(#mask0_689_3055)">
<rect x="1.49976" y="6.56396" width="18.7503" height="38.1863" rx="2.50004" fill="#1075DB" fill-opacity="0.35"/>
<path fill-rule="evenodd" clip-rule="evenodd" d="M0.499023 9.064C0.499023 7.13099 2.06604 5.56396 3.99906 5.56396H17.7493C19.6823 5.56396 21.2493 7.13099 21.2493 9.064V15.9999H21.4992C22.1896 15.9999 22.7493 16.5595 22.7493 17.2499V24.75C22.7493 25.4404 22.1896 26 21.4992 26H21.2493V42.2502C21.2493 44.1832 19.6823 45.7503 17.7493 45.7503H3.99906C2.06604 45.7503 0.499023 44.1832 0.499023 42.2502V9.064ZM3.99906 7.56396C3.17061 7.56396 2.49902 8.23556 2.49902 9.064V42.2502C2.49902 43.0787 3.17061 43.7503 3.99906 43.7503H17.7493C18.5777 43.7503 19.2493 43.0787 19.2493 42.2502V9.064C19.2493 8.23555 18.5777 7.56396 17.7493 7.56396H14.9997V7.74961C14.9997 8.43997 14.4401 8.99963 13.7497 8.99963H7.24977C6.5594 8.99963 5.99975 8.43997 5.99975 7.74961V7.56396H3.99906Z" fill="#0E83FE"/>
<path d="M37.7502 20.9998H26.5M26.5 20.9998L31.5001 15.9998M26.5 20.9998L31.5001 25.9999" stroke="#0E83FE" stroke-width="2" stroke-linecap="round"/>
</g>
<circle cx="21.5003" cy="20.9998" r="20.0003" stroke="#0E83FE" stroke-width="2"/>
</svg>
