<svg width="255" height="170" viewBox="0 0 255 170" fill="none" xmlns="http://www.w3.org/2000/svg">
<path d="M67.5696 44.6196C67.5696 45.2413 67.5511 45.8605 67.5141 46.4723C67.3027 50.0083 66.473 53.4694 65.0687 56.6737C65.0572 56.7011 65.0456 56.7285 65.0341 56.7533C64.9695 56.9025 64.9025 57.0493 64.8332 57.196C62.7021 61.8079 59.4424 65.7057 55.4055 68.469C51.3687 71.2322 46.7079 72.7561 41.926 72.8761L42.1869 88.9517L45.5698 87.0318L46.1749 88.2704L42.2123 90.516L42.6718 118.872L42.695 120.364H40.1016L40.1271 118.872L40.9145 72.8787C37.449 72.8255 34.0279 72.0313 30.8498 70.5421C27.6718 69.053 24.8001 66.8987 22.4016 64.2043C22.2354 64.0202 22.0737 63.8312 21.9122 63.6422C21.9052 63.6348 21.9006 63.6272 21.8959 63.6222C19.8965 61.2752 18.2797 58.5812 17.1136 55.6541C17.139 55.6865 17.1667 55.7138 17.1921 55.7461C14.5564 49.1101 14.3774 41.6398 16.6916 34.8661C19.0058 28.0925 23.638 22.5287 29.6387 19.315C29.7287 19.2678 29.8234 19.2204 29.9135 19.1707C35.849 16.0918 42.642 15.5269 48.946 17.5883C55.25 19.6496 60.6047 24.1865 63.9487 30.2998C64.1081 30.5882 64.2629 30.8842 64.4106 31.1802C66.4887 35.3058 67.5747 39.926 67.5696 44.6196Z" fill="#F7F7F7"/>
<path d="M85.0485 7.00003C84.7144 7.05661 84.4102 7.23994 84.1906 7.51693C83.9711 7.79392 83.8508 8.14631 83.8513 8.51048V121.145H90.9516V21.3548H247.158V121.528H254.258V8.86502C254.26 8.50653 254.144 8.15891 253.931 7.8832C253.718 7.6075 253.422 7.42135 253.095 7.35746C169.765 -8.08536 95.0249 5.31133 85.0485 7.00003Z" fill="#F7F7F7"/>
<path d="M158.397 100.505V103.946H169.758V121.151H174.373V103.946H220.525V121.151H225.14V103.946H236.5V100.505H158.397Z" fill="#CBCBCB"/>
<path d="M149.878 27.4736H98.0457V103.942H149.878V27.4736Z" fill="#E5E5E5"/>
<path d="M144.951 34.7512H102.967V96.6902H144.951V34.7512Z" fill="#F7F7F7"/>
<path d="M200.274 21.3359H196.014V100.48H200.274V21.3359Z" fill="#E5E5E5"/>
<path d="M253.957 121.205H1.00737C0.936973 121.205 0.869461 121.165 0.819684 121.093C0.769907 121.021 0.741943 120.924 0.741943 120.823C0.741943 120.721 0.769907 120.624 0.819684 120.552C0.869461 120.481 0.936973 120.44 1.00737 120.44H253.957C254.027 120.44 254.094 120.481 254.144 120.552C254.194 120.624 254.222 120.721 254.222 120.823C254.222 120.924 254.194 121.021 254.144 121.093C254.094 121.165 254.027 121.205 253.957 121.205Z" fill="#CCCCCC"/>
<path d="M193.499 167.401H164.033C163.939 167.401 163.848 167.361 163.782 167.289C163.715 167.217 163.678 167.12 163.678 167.019C163.678 166.917 163.715 166.82 163.782 166.748C163.848 166.676 163.939 166.636 164.033 166.636H193.499C193.593 166.636 193.683 166.676 193.75 166.748C193.817 166.82 193.854 166.917 193.854 167.019C193.854 167.12 193.817 167.217 193.75 167.289C193.683 167.361 193.593 167.401 193.499 167.401Z" fill="#CBCBCB"/>
<path d="M42.9908 167.402H13.5247C13.4305 167.402 13.3402 167.362 13.2737 167.29C13.2071 167.218 13.1697 167.121 13.1697 167.02C13.1697 166.918 13.2071 166.821 13.2737 166.749C13.3402 166.677 13.4305 166.637 13.5247 166.637H42.9908C43.085 166.637 43.1753 166.677 43.2419 166.749C43.3085 166.821 43.3459 166.918 43.3459 167.02C43.3459 167.121 43.3085 167.218 43.2419 167.29C43.1753 167.362 43.085 167.402 42.9908 167.402Z" fill="#CBCBCB"/>
<path d="M91.1816 142.01H74.6418L74.4665 136.534C74.4589 136.296 74.4992 136.06 74.5845 135.841C74.6699 135.622 74.7983 135.425 74.9609 135.265C75.1236 135.104 75.3166 134.984 75.5266 134.911C75.7367 134.839 75.9589 134.816 76.1778 134.845L85.8028 136.114H85.804C87.2309 136.118 88.5982 136.732 89.6061 137.819C90.6141 138.907 91.1806 140.381 91.1816 141.918V142.01Z" fill="#CA1F27"/>
<path d="M83.8071 122.583H72.2714C71.9617 122.583 71.6646 122.716 71.4455 122.951C71.2265 123.187 71.1034 123.507 71.1033 123.841V136.265C71.1032 136.43 71.1334 136.594 71.192 136.746C71.2507 136.899 71.3367 137.038 71.4451 137.154C71.5535 137.271 71.6822 137.364 71.8239 137.427C71.9656 137.49 72.1174 137.523 72.2708 137.523H83.8071C83.9605 137.523 84.1123 137.491 84.254 137.427C84.3957 137.364 84.5245 137.272 84.633 137.155C84.7415 137.038 84.8275 136.899 84.8863 136.747C84.945 136.594 84.9752 136.431 84.9753 136.266V123.841C84.9754 123.508 84.8524 123.188 84.6334 122.952C84.4145 122.716 84.1175 122.583 83.8077 122.583H83.8071Z" fill="#CCCCCC"/>
<path d="M81.2101 131.873L75.7636 133.015C75.4405 133.083 75.1058 133.009 74.8329 132.811C74.5601 132.613 74.3713 132.307 74.308 131.959L73.8894 129.643C73.8268 129.296 73.895 128.935 74.0789 128.641C74.2628 128.347 74.5475 128.144 74.8704 128.076L80.3169 126.934C80.64 126.866 80.9747 126.94 81.2475 127.138C81.5204 127.336 81.7092 127.642 81.7724 127.99L82.1911 130.306C82.2537 130.653 82.1855 131.014 82.0016 131.308C81.8177 131.602 81.533 131.805 81.2101 131.873Z" fill="#3F3D56"/>
<path d="M80.1208 129.14L75.9643 130.012C75.9266 130.02 75.8878 130.02 75.8502 130.012C75.8125 130.004 75.7767 129.988 75.7448 129.965C75.713 129.942 75.6856 129.912 75.6644 129.877C75.6432 129.843 75.6285 129.804 75.6211 129.764C75.6138 129.723 75.6139 129.681 75.6216 129.641C75.6293 129.6 75.6443 129.562 75.6658 129.527C75.6873 129.493 75.7149 129.464 75.7469 129.441C75.779 129.418 75.8149 129.403 75.8526 129.395L80.0092 128.523C80.0851 128.507 80.1637 128.525 80.2278 128.571C80.2919 128.618 80.3362 128.69 80.3509 128.772C80.3657 128.853 80.3498 128.938 80.3067 129.007C80.2635 129.076 80.1967 129.124 80.1208 129.14Z" fill="#F7F7F7"/>
<path d="M79.3147 130.42L77.1648 130.871C77.1271 130.879 77.0884 130.879 77.0508 130.871C77.0132 130.862 76.9775 130.846 76.9457 130.823C76.9139 130.8 76.8866 130.771 76.8655 130.736C76.8443 130.702 76.8296 130.663 76.8223 130.623C76.8149 130.582 76.8151 130.54 76.8227 130.5C76.8304 130.459 76.8453 130.421 76.8668 130.387C76.8882 130.352 76.9157 130.323 76.9477 130.3C76.9796 130.277 77.0155 130.262 77.0531 130.254L79.203 129.803C79.279 129.787 79.3577 129.804 79.4218 129.851C79.4859 129.898 79.5302 129.97 79.545 130.052C79.5598 130.133 79.5438 130.218 79.5006 130.287C79.4575 130.356 79.3906 130.404 79.3147 130.42Z" fill="#F7F7F7"/>
<path d="M84.9753 123.841V125.493H71.1033V123.841C71.1032 123.508 71.2261 123.188 71.4451 122.952C71.6641 122.716 71.9611 122.583 72.2708 122.583H83.8071C83.9605 122.583 84.1123 122.616 84.254 122.679C84.3957 122.742 84.5245 122.835 84.633 122.951C84.7415 123.068 84.8275 123.207 84.8862 123.359C84.945 123.512 84.9752 123.676 84.9753 123.841V123.841Z" fill="#B3B3B3"/>
<path d="M112.68 126.005C112.6 125.726 112.464 125.47 112.282 125.255C112.1 125.039 111.877 124.869 111.627 124.756C111.378 124.643 111.108 124.591 110.838 124.603C110.567 124.614 110.302 124.69 110.062 124.824L94.1917 118.691L93.4927 122.961L109.313 127.646C109.548 128.067 109.918 128.379 110.354 128.525C110.789 128.67 111.258 128.639 111.673 128.437C112.088 128.234 112.42 127.875 112.606 127.427C112.791 126.979 112.818 126.473 112.68 126.005Z" fill="#FFB8B8"/>
<path opacity="0.2" d="M112.68 126.005C112.6 125.726 112.464 125.47 112.282 125.255C112.1 125.039 111.877 124.869 111.627 124.756C111.378 124.643 111.108 124.591 110.838 124.603C110.567 124.614 110.302 124.69 110.062 124.824L94.1917 118.691L93.4927 122.961L109.313 127.646C109.548 128.067 109.918 128.379 110.354 128.525C110.789 128.67 111.258 128.639 111.673 128.437C112.088 128.234 112.42 127.875 112.606 127.427C112.791 126.979 112.818 126.473 112.68 126.005Z" fill="black"/>
<path d="M97.0036 119.457L95.5049 123.673C95.4623 123.793 95.3962 123.902 95.311 123.992C95.2259 124.082 95.1237 124.151 95.0115 124.194C94.8993 124.238 94.7797 124.255 94.6608 124.244C94.542 124.234 94.4266 124.196 94.3227 124.133L90.6804 121.925C90.1119 121.686 89.6544 121.215 89.4082 120.613C89.162 120.012 89.1471 119.33 89.3669 118.717C89.5867 118.104 90.0232 117.61 90.5807 117.343C91.1382 117.076 91.7713 117.058 92.3412 117.293L96.4084 118.264C96.5248 118.292 96.6343 118.347 96.7294 118.424C96.8245 118.502 96.903 118.601 96.9595 118.714C97.0159 118.827 97.0491 118.952 97.0567 119.08C97.0644 119.208 97.0462 119.337 97.0036 119.457Z" fill="#CA1F27"/>
<path d="M113.919 129.903L108.232 132.687L108.979 135.714C110.421 141.56 110.803 147.65 110.106 153.651L114.264 154.586L117.71 145.121L116.504 134.357L113.919 129.903Z" fill="#CA1F27"/>
<path d="M125.079 143.919C121.343 143.919 118.298 146.844 118.15 150.508H132.008C131.86 146.844 128.815 143.919 125.079 143.919Z" fill="#3F3D56"/>
<path d="M122.177 144.559C121.982 128.023 113.238 129.544 113.238 129.544C113.238 129.544 113.401 134.691 113.48 134.851C119.052 146.205 109.856 159.516 98.1502 157.068C97.9294 157.021 97.7174 156.975 97.514 156.927C96.0308 156.594 94.7213 155.664 93.8517 154.328C92.9822 152.991 92.618 151.349 92.8332 149.733C93.9863 139.761 88.251 139.937 88.251 139.937H79.8647L75.5095 135.716C75.3558 135.567 75.1705 135.461 74.9698 135.407C74.7692 135.353 74.5593 135.352 74.3586 135.406C74.1578 135.459 73.9722 135.565 73.8181 135.713C73.664 135.862 73.5461 136.049 73.4746 136.258L72.9143 137.896C72.9143 137.896 64.6428 138.824 65.3321 147.546H67.8893C67.8831 147.794 67.8924 148.042 67.9169 148.289L87.0018 148.121C87.5472 148.115 88.0734 148.338 88.4678 148.744C88.8622 149.15 89.0937 149.706 89.1126 150.293C89.1149 150.871 88.9037 151.427 88.5255 151.838C88.1472 152.249 87.633 152.481 87.0958 152.483C87.0705 152.483 87.0452 152.483 87.0199 152.482L83.943 152.371C82.9952 156.918 85.3215 159.981 87.8849 161.906C90.2982 163.693 93.162 164.64 96.0905 164.62H104.449C115.306 164.62 117.201 154.784 117.201 154.784C122.888 152.186 122.177 144.559 122.177 144.559Z" fill="#3F3D56"/>
<path d="M124.56 170C129.914 170 134.254 165.326 134.254 159.561C134.254 153.795 129.914 149.122 124.56 149.122C119.207 149.122 114.867 153.795 114.867 159.561C114.867 165.326 119.207 170 124.56 170Z" fill="#3F3D56"/>
<path d="M124.562 162.107C125.874 162.107 126.938 160.962 126.938 159.549C126.938 158.136 125.874 156.99 124.562 156.99C123.25 156.99 122.187 158.136 122.187 159.549C122.187 160.962 123.25 162.107 124.562 162.107Z" fill="#F7F7F7"/>
<path d="M75.6259 170C81.7883 170 86.7838 164.62 86.7838 157.983C86.7838 151.346 81.7883 145.966 75.6259 145.966C69.4636 145.966 64.468 151.346 64.468 157.983C64.468 164.62 69.4636 170 75.6259 170Z" fill="#3F3D56"/>
<path d="M75.631 160.921C77.1414 160.921 78.3658 159.602 78.3658 157.976C78.3658 156.349 77.1414 155.031 75.631 155.031C74.1206 155.031 72.8962 156.349 72.8962 157.976C72.8962 159.602 74.1206 160.921 75.631 160.921Z" fill="#F7F7F7"/>
<path d="M108.248 133.516L106.202 127.531C105.987 126.901 106.013 126.205 106.274 125.596C106.535 124.986 107.011 124.514 107.596 124.282L113.462 121.956C114.491 121.548 115.628 121.597 116.624 122.092C117.62 122.587 118.392 123.488 118.771 124.596C118.94 125.089 119.027 125.61 119.026 126.135C119.024 126.802 118.884 127.46 118.616 128.062C118.348 128.663 117.959 129.192 117.478 129.611C117.13 129.912 116.738 130.15 116.319 130.315L108.248 133.516Z" fill="#3F3D56"/>
<path d="M118.946 126.127C118.946 126.781 118.81 127.426 118.547 128.015C118.285 128.604 117.903 129.122 117.43 129.531C116.704 129.325 116.029 128.951 115.451 128.435C114.873 127.92 114.407 127.275 114.084 126.546C113.761 125.816 113.589 125.02 113.581 124.212C113.572 123.404 113.727 122.603 114.035 121.866C114.626 121.728 115.239 121.734 115.827 121.883C116.416 122.033 116.966 122.323 117.437 122.732C117.908 123.141 118.288 123.658 118.549 124.245C118.811 124.833 118.946 125.476 118.946 126.127Z" fill="#CA1F27"/>
<path d="M66.7966 148.748C68.129 148.748 69.2091 147.336 69.2091 145.593C69.2091 143.851 68.129 142.438 66.7966 142.438C65.4642 142.438 64.384 143.851 64.384 145.593C64.384 147.336 65.4642 148.748 66.7966 148.748Z" fill="#CA1F27"/>
<path d="M98.6793 156.751H100.792L101.797 150.85L98.679 150.851L98.6793 156.751Z" fill="#FFB8B8"/>
<path d="M98.145 156.009L102.306 156.009C102.654 156.009 102.999 156.083 103.32 156.227C103.642 156.37 103.934 156.58 104.181 156.846C104.427 157.111 104.622 157.425 104.755 157.772C104.889 158.118 104.957 158.49 104.957 158.865V158.958L98.1452 158.958L98.145 156.009Z" fill="#2F2E41"/>
<path d="M101.137 154.343C101.113 154.343 101.088 154.342 101.063 154.339L98.1393 154.11C98.0211 154.098 97.907 154.057 97.8057 153.99C97.7045 153.923 97.6189 153.832 97.5554 153.724C97.492 153.616 97.4525 153.494 97.4399 153.367C97.4273 153.239 97.4421 153.111 97.4829 152.991L101.396 143.523C101.424 143.439 101.435 143.349 101.429 143.26C101.424 143.17 101.401 143.083 101.362 143.004C101.323 142.923 101.27 142.853 101.204 142.796C101.138 142.74 101.062 142.699 100.981 142.677C99.141 142.159 94.4202 140.78 90.3337 139.166C88.5829 138.475 87.4802 137.476 87.0563 136.196C86.8973 135.655 86.8422 135.084 86.8943 134.518C86.9465 133.953 87.1048 133.405 87.3597 132.908L87.3874 132.857L91.2328 133.233L95.4015 133.615L104.537 138.891C105.302 139.337 105.884 140.077 106.165 140.964C106.447 141.85 106.408 142.819 106.057 143.676L101.845 153.848C101.784 153.995 101.685 154.12 101.559 154.208C101.433 154.296 101.287 154.343 101.137 154.343Z" fill="#2F2E41"/>
<path d="M91.906 114.488C94.2435 114.488 96.1384 112.447 96.1384 109.93C96.1384 107.412 94.2435 105.372 91.906 105.372C89.5685 105.372 87.6736 107.412 87.6736 109.93C87.6736 112.447 89.5685 114.488 91.906 114.488Z" fill="#FFB8B8"/>
<path d="M97.4803 157.32H99.593L100.598 151.419L97.48 151.419L97.4803 157.32Z" fill="#FFB8B8"/>
<path d="M96.9343 156.577L101.095 156.577C101.443 156.577 101.788 156.651 102.11 156.794C102.431 156.938 102.724 157.148 102.97 157.413C103.216 157.678 103.411 157.993 103.545 158.34C103.678 158.686 103.746 159.057 103.746 159.432V159.525L96.9345 159.525L96.9343 156.577Z" fill="#2F2E41"/>
<path d="M99.9336 154.881C99.909 154.881 99.8843 154.88 99.8594 154.878L96.9357 154.648C96.8175 154.636 96.7034 154.596 96.6021 154.529C96.5009 154.462 96.4152 154.371 96.3518 154.263C96.2884 154.155 96.2489 154.032 96.2363 153.905C96.2237 153.778 96.2384 153.649 96.2793 153.529L100.192 144.062C100.22 143.977 100.232 143.888 100.226 143.798C100.22 143.709 100.197 143.622 100.158 143.542C100.12 143.462 100.066 143.391 100 143.335C99.9346 143.279 99.8586 143.238 99.7773 143.216C97.9374 142.698 93.2166 141.318 89.1301 139.705C87.3793 139.013 86.2766 138.014 85.8527 136.735C85.6937 136.193 85.6385 135.622 85.6907 135.057C85.7428 134.492 85.9012 133.943 86.1561 133.446L86.1838 133.396L90.0291 133.772L94.1978 134.154L103.333 139.43C104.099 139.875 104.68 140.615 104.962 141.502C105.243 142.389 105.205 143.357 104.853 144.215L100.641 154.386C100.58 154.534 100.481 154.659 100.355 154.747C100.23 154.835 100.083 154.881 99.9336 154.881Z" fill="#2F2E41"/>
<path d="M93.2073 117.088L88.727 115.417C88.727 115.417 85.9143 117.745 87.2655 123.518C87.9709 126.497 87.7654 129.642 86.6796 132.486C86.5488 132.837 86.3981 133.18 86.2283 133.512C86.2283 133.512 91.2256 140.008 95.8784 135.182L94.069 125.81C94.069 125.81 96.9123 119.593 93.2073 117.088Z" fill="#CA1F27"/>
<path d="M92.4283 114.646C91.8259 113.675 91.3505 112.328 92.0137 111.405C92.6684 110.493 93.9596 110.627 94.9623 110.223C96.3588 109.661 97.1687 107.894 96.9161 106.312C96.7604 105.524 96.4169 104.793 95.9194 104.192C95.422 103.59 94.7877 103.139 94.079 102.881C92.6439 102.387 91.0903 102.478 89.7135 103.137C88.8588 103.504 88.0838 104.057 87.4374 104.762C86.791 105.467 86.2871 106.309 85.9574 107.234C85.644 108.167 85.5696 109.173 85.7421 110.147C85.9146 111.121 86.3277 112.027 86.9378 112.77C88.2929 114.306 90.4197 114.716 92.3871 114.691" fill="#2F2E41"/>
<path d="M88.4947 106.359C87.7356 107.025 86.5775 106.729 85.7627 106.145C84.9479 105.561 84.2868 104.73 83.4052 104.272C81.851 103.464 79.9719 104.001 78.4592 104.895C76.9466 105.789 75.6057 107.025 74.0079 107.727C72.4101 108.428 70.3712 108.463 69.1613 107.138C68.8636 108.067 68.8393 109.072 69.0917 110.017C69.344 110.961 69.8608 111.799 70.5715 112.415C71.2823 113.032 72.1523 113.397 73.0629 113.461C73.9735 113.526 74.8803 113.286 75.6597 112.775C77.4104 111.626 78.3774 109.218 80.341 108.584C81.4276 108.233 82.5943 108.516 83.6925 108.822C84.7907 109.128 85.9358 109.458 87.044 109.198C88.1523 108.937 89.1889 107.865 89.0479 106.653L88.4947 106.359Z" fill="#2F2E41"/>
<path d="M112.471 125.82C112.36 125.555 112.196 125.319 111.99 125.129C111.785 124.939 111.544 124.8 111.283 124.721C111.022 124.642 110.749 124.626 110.482 124.674C110.215 124.721 109.961 124.831 109.738 124.996L93.286 121.02L93.0815 125.35L109.317 127.897C109.599 128.282 110.002 128.543 110.451 128.63C110.899 128.717 111.362 128.623 111.751 128.367C112.139 128.111 112.427 127.711 112.56 127.241C112.693 126.772 112.661 126.266 112.471 125.82Z" fill="#FFB8B8"/>
<path d="M96.1703 121.407L95.1661 125.79C95.1376 125.915 95.0844 126.031 95.0102 126.132C94.936 126.233 94.8425 126.315 94.7362 126.373C94.6298 126.431 94.5131 126.464 94.3939 126.469C94.2747 126.474 94.1559 126.452 94.0455 126.403L90.1782 124.696C89.5863 124.535 89.0778 124.128 88.7643 123.564C88.4508 123 88.3578 122.325 88.5057 121.687C88.6537 121.05 89.0305 120.501 89.5535 120.162C90.0765 119.823 90.703 119.721 91.2956 119.879L95.443 120.303C95.5617 120.315 95.6767 120.354 95.7799 120.419C95.8832 120.483 95.9723 120.57 96.0414 120.675C96.1104 120.78 96.1576 120.9 96.1799 121.026C96.2021 121.152 96.1988 121.282 96.1703 121.407Z" fill="#CA1F27"/>
<path d="M110.56 129.26C111.226 129.26 111.767 128.679 111.767 127.961C111.767 127.244 111.226 126.662 110.56 126.662C109.894 126.662 109.354 127.244 109.354 127.961C109.354 128.679 109.894 129.26 110.56 129.26Z" fill="#CA1F27"/>
<path d="M143.834 74.6565C143.384 78.4502 141.731 81.9211 139.967 85.2645C139.909 85.3784 139.849 85.4905 139.788 85.6043H121.457C121.086 85.5007 120.72 85.3868 120.356 85.2645C118.286 84.5857 116.331 83.5501 114.568 82.198C107.824 76.9654 105.229 67.0777 106.401 58.2179C107.13 52.7134 109.373 47.0934 113.742 44.1288C116.113 42.573 118.943 42.039 121.665 42.6338C121.735 42.6474 121.804 42.6644 121.875 42.6796C124.159 43.2335 126.194 44.6096 127.352 46.8267C129.434 50.8106 128.195 55.746 127.171 60.1801C126.15 64.6143 125.596 69.9217 128.559 73.1921C128.125 71.8244 128.037 70.3568 128.303 68.9403C128.57 67.5237 129.183 66.2092 130.078 65.132C130.972 64.0548 132.118 63.2536 133.395 62.8109C134.673 62.3681 136.037 62.2998 137.347 62.6129C137.562 62.6622 137.773 62.7183 137.981 62.7862C138.485 62.9449 138.97 63.1638 139.428 63.4386C142.922 65.5401 144.337 70.3804 143.834 74.6565Z" fill="#52E945"/>
<path d="M132.964 85.2317C133.472 85.3592 133.982 85.4713 134.494 85.5715H131.723C131.36 85.4662 130.998 85.3541 130.64 85.2317C129.853 84.9667 129.078 84.6626 128.315 84.3194C125.221 82.9663 122.473 80.8327 120.303 78.098C119.26 76.7596 118.408 75.2611 117.776 73.652C117.09 71.8332 116.655 69.9165 116.482 67.9623C116.096 63.9529 116.49 59.833 117.227 55.8949C117.987 51.8133 119.214 47.849 120.881 44.0926C121.081 43.6424 121.288 43.195 121.502 42.7505C121.517 42.7139 121.539 42.6814 121.567 42.6555C121.595 42.6296 121.629 42.6109 121.664 42.601C121.737 42.5858 121.813 42.6023 121.874 42.6469C121.948 42.6925 122.003 42.767 122.027 42.8548C122.052 42.9427 122.044 43.0374 122.005 43.1192C120.287 46.7269 118.985 50.5472 118.128 54.4951C117.245 58.3672 116.857 62.3512 116.975 66.3365C117.129 70.0367 118.027 73.6758 120.063 76.7015C121.961 79.4517 124.457 81.6576 127.332 83.1251C129.131 84.0517 131.02 84.7583 132.964 85.2317Z" fill="#F7F7F7"/>
<path d="M139.044 85.5927H138.227C138.136 85.4805 138.047 85.3667 137.961 85.2529C136.099 82.8173 134.838 79.9156 134.295 76.8161C133.634 72.9481 134.148 68.9538 135.76 65.4249C136.21 64.4354 136.74 63.4905 137.344 62.6013C137.558 62.6506 137.77 62.7066 137.978 62.7746C135.67 66.0389 134.486 70.0651 134.629 74.1651C134.772 78.2651 136.233 82.1843 138.762 85.2529C138.853 85.3667 138.948 85.4805 139.044 85.5927Z" fill="#F7F7F7"/>
<path d="M36.9785 84.9414L36.7549 85.1003L53.5864 112.564L53.81 112.405L36.9785 84.9414Z" fill="#2F2E41"/>
<path d="M26.8942 118.629H28.5365L29.3178 111.806H26.8938L26.8942 118.629Z" fill="#A0616A"/>
<path d="M26.4739 118.059L29.7084 118.059C30.2551 118.059 30.7795 118.293 31.166 118.71C31.5526 119.126 31.7698 119.69 31.7698 120.279V120.351L26.474 120.352L26.4739 118.059Z" fill="#2F2E41"/>
<path d="M16.1592 116.928L17.7028 117.532L20.6036 111.409L18.3258 110.516L16.1592 116.928Z" fill="#A0616A"/>
<path d="M15.9459 116.247L18.9854 117.438C19.4991 117.639 19.9176 118.052 20.1486 118.586C20.3796 119.12 20.4044 119.73 20.2174 120.283L20.1945 120.351L15.218 118.4L15.9459 116.247Z" fill="#2F2E41"/>
<path d="M26.4234 72.0527L29.9066 73.207L32.7199 78.2568L31.6482 84.1722L31.1123 89.3663V112.451C31.1123 112.451 26.9899 113.605 25.233 112.451L25.8875 99.033L21.4666 113.317L16.5098 111.297L22.1364 91.2419C22.0459 89.7589 22.2764 88.2734 22.8096 86.9026C23.2924 85.6821 24.1399 84.6703 25.2177 84.028V82.8737L24.1459 75.5154L26.4234 72.0527Z" fill="#2F2E41"/>
<path d="M29.067 71.4589C30.8842 71.4589 32.3574 69.8723 32.3574 67.9152C32.3574 65.9581 30.8842 64.3716 29.067 64.3716C27.2498 64.3716 25.7766 65.9581 25.7766 67.9152C25.7766 69.8723 27.2498 71.4589 29.067 71.4589Z" fill="#A0616A"/>
<path d="M32.2414 66.9868C31.796 66.8911 31.334 66.9476 30.9198 67.1483C30.5056 67.349 30.1599 67.6839 29.931 68.1063C29.818 67.6579 29.1463 67.681 28.8978 68.0608C28.7974 68.2667 28.7358 68.4918 28.7164 68.7234C28.697 68.9549 28.7203 69.1883 28.7849 69.4102C28.9157 69.8563 28.9073 70.3363 28.7611 70.7768C28.6566 70.9701 28.5065 71.1303 28.3259 71.2409C28.1454 71.3514 27.9409 71.4085 27.7332 71.4064C27.3166 71.3955 26.9115 71.2567 26.5657 71.0063C25.9216 70.5794 25.4064 69.9601 25.0831 69.2237C24.7597 68.4873 24.642 67.6656 24.7444 66.8585C24.8467 66.0514 25.1646 65.2937 25.6594 64.6776C26.1543 64.0616 26.8047 63.6136 27.5315 63.3884C28.3576 63.1828 29.2099 63.1279 30.0529 63.2259C30.7415 63.2271 31.4247 63.3559 32.0727 63.6067C32.3958 63.7358 32.6844 63.9485 32.9132 64.2259C33.1419 64.5034 33.3039 64.8372 33.3847 65.198C33.5014 65.9272 33.1051 67.2332 32.4206 67.2973" fill="#2F2E41"/>
<path d="M27.0539 63.9142C27.3522 63.8608 27.6418 63.761 27.9134 63.6178C28.0478 63.5466 28.1659 63.4444 28.2594 63.3185C28.3529 63.1925 28.4196 63.0459 28.4546 62.8891C28.4822 62.7328 28.4548 62.571 28.3778 62.4351C28.3008 62.2993 28.1797 62.1991 28.038 62.154C27.821 62.1347 27.603 62.1735 27.4033 62.267C27.3039 62.3128 27.1955 62.3309 27.0879 62.3197C26.9803 62.3085 26.8771 62.2683 26.7877 62.2028C26.6107 62.0241 26.6531 61.701 26.5018 61.4978C26.4206 61.4097 26.3163 61.3504 26.2029 61.3278C26.0895 61.3052 25.9724 61.3204 25.8673 61.3713C25.6573 61.4766 25.4698 61.6276 25.3166 61.8148L24.5057 62.6798C24.348 62.8481 24.1773 63.057 24.2174 63.2866C24.2544 63.4046 24.3304 63.5039 24.4309 63.5656C24.5314 63.6273 24.6495 63.6472 24.7627 63.6214C24.992 63.5643 25.2048 63.4475 25.3823 63.2812C25.128 63.4518 24.9232 63.6958 24.7912 63.9854C24.7281 64.1281 24.7028 64.2868 24.7182 64.444C24.7336 64.6012 24.7891 64.7507 24.8784 64.8761C25.168 65.2355 25.7169 65.1863 26.1384 65.007C26.6955 64.7696 27.1777 64.3654 27.5282 63.8421" fill="#2F2E41"/>
<path d="M27.0578 62.8425C26.3434 62.7035 25.6645 62.403 25.0659 61.9607C24.55 61.5241 24.2932 60.8833 24.5859 60.3447C24.4381 60.618 24.3667 60.9313 24.3803 61.2472C24.3938 61.5631 24.4918 61.868 24.6624 62.1254C25.1072 62.7422 25.7463 63.1624 26.4591 63.3066C26.6095 63.3568 26.7705 63.3563 26.9207 63.3052C27.0545 63.241 27.0588 63.0523 26.9029 63.0278" fill="#2F2E41"/>
<path d="M36.2799 83.7143C36.2156 83.7541 36.1543 83.7993 36.0966 83.8494L29.7541 81.7187L29.3974 80.0234L26.9514 80.2688L27.312 83.3361C27.3412 83.5839 27.4442 83.8148 27.6055 83.9942C27.7669 84.1736 27.978 84.2918 28.207 84.331L35.6719 85.6093C35.7807 85.8937 35.9672 86.1357 36.2068 86.3031C36.4463 86.4705 36.7275 86.5554 37.013 86.5465C37.2984 86.5375 37.5746 86.4352 37.8048 86.2532C38.0349 86.0711 38.2082 85.8179 38.3014 85.5272C38.3947 85.2365 38.4036 84.9221 38.3269 84.6259C38.2502 84.3296 38.0915 84.0655 37.8721 83.8687C37.6526 83.6719 37.3827 83.5517 37.0983 83.5242C36.8139 83.4966 36.5284 83.5629 36.2799 83.7143Z" fill="#A0616A"/>
<path d="M26.6903 74.5087C26.6903 74.5087 27.2633 72.7452 28.9863 72.9056C30.7093 73.0659 29.7716 80.1356 29.7716 80.1356L26.4224 85.0411L26.6903 74.5087Z" fill="#2F2E41"/>
<path d="M45.8278 118.471L44.6299 115.71L46.4813 114.779L47.6792 117.539C47.7939 117.804 47.8064 118.106 47.7139 118.381C47.6214 118.655 47.4316 118.879 47.186 119.002C46.9405 119.126 46.6595 119.139 46.4048 119.04C46.15 118.94 45.9425 118.736 45.8278 118.471Z" fill="#3F3D56"/>
<path d="M41.7063 112.548C42.4008 112.548 42.9639 111.942 42.9639 111.194C42.9639 110.446 42.4008 109.84 41.7063 109.84C41.0118 109.84 40.4487 110.446 40.4487 111.194C40.4487 111.942 41.0118 112.548 41.7063 112.548Z" fill="#3F3D56"/>
<path d="M51.3363 119.008L50.1384 116.247L51.9898 115.315L53.1877 118.076C53.3024 118.34 53.3149 118.643 53.2224 118.917C53.13 119.192 52.9401 119.415 52.6946 119.539C52.4491 119.662 52.1681 119.676 51.9133 119.576C51.6586 119.477 51.451 119.272 51.3363 119.008Z" fill="#3F3D56"/>
<path d="M41.7109 113.933C41.7773 113.173 42.1208 112.473 42.666 111.985C43.2112 111.498 43.9136 111.264 44.6192 111.333L53.0423 112.177C53.3404 112.207 53.6153 112.363 53.8065 112.612C53.9977 112.86 54.0898 113.179 54.0624 113.501L53.9733 114.533C53.8925 115.457 53.4744 116.31 52.8108 116.903C52.1473 117.496 51.2923 117.781 50.4336 117.696L44.1244 117.065C43.419 116.993 42.7688 116.623 42.3163 116.036C41.8638 115.449 41.6461 114.692 41.7109 113.933Z" fill="#3F3D56"/>
<path d="M43.2702 118.545L43.5321 115.511L45.5669 115.715L45.305 118.749C45.2797 119.04 45.1484 119.307 44.9399 119.494C44.7314 119.68 44.4628 119.769 44.1931 119.742C43.9234 119.715 43.6746 119.574 43.5016 119.35C43.3285 119.125 43.2453 118.836 43.2702 118.545Z" fill="#3F3D56"/>
<path d="M49.177 119.148L49.4389 116.114L51.4737 116.317L51.2118 119.352C51.1867 119.642 51.0554 119.91 50.8469 120.096C50.6384 120.283 50.3696 120.372 50.0998 120.345C49.83 120.318 49.5812 120.177 49.4081 119.952C49.235 119.728 49.1519 119.438 49.177 119.148Z" fill="#3F3D56"/>
<path d="M58.4894 107.961C58.7214 107.703 59.0391 107.555 59.3726 107.549C59.7061 107.543 60.028 107.681 60.2676 107.931C60.5072 108.18 60.6448 108.523 60.6502 108.882C60.6555 109.241 60.5282 109.588 60.2961 109.846L57.9996 112.4L56.1929 110.515L58.4894 107.961Z" fill="#3F3D56"/>
<path d="M53.0604 112.91L54.9002 110.864C55.3475 110.368 55.9592 110.083 56.6013 110.072C57.2433 110.061 57.8632 110.324 58.325 110.805L58.8017 111.302C59.3511 111.876 59.6666 112.662 59.6788 113.486C59.6911 114.311 59.3992 115.107 58.8672 115.7L57.3514 117.385C57.184 117.571 56.9549 117.678 56.7146 117.682C56.4742 117.686 56.2421 117.587 56.0692 117.407L53.081 114.291C52.9084 114.11 52.8094 113.864 52.8055 113.605C52.8017 113.346 52.8933 113.096 53.0604 112.91Z" fill="#3F3D56"/>
<path d="M58.7628 107.656C58.8417 107.568 58.936 107.497 59.0402 107.449C59.1445 107.4 59.2566 107.374 59.3702 107.372C59.4838 107.37 59.5967 107.392 59.7024 107.437C59.8081 107.482 59.9045 107.549 59.9861 107.634C60.0677 107.719 60.133 107.821 60.1781 107.933C60.2232 108.045 60.2474 108.166 60.2491 108.288C60.2509 108.411 60.2302 108.532 60.1883 108.646C60.1464 108.76 60.0841 108.864 60.0049 108.951L57.435 111.809L56.1929 110.514L58.7628 107.656Z" fill="#3F3D56"/>
<path d="M55.0151 112.482L58.2899 115.898C58.4087 116.022 58.5038 116.169 58.5696 116.333C58.6355 116.496 58.6708 116.671 58.6735 116.849C58.6763 117.027 58.6464 117.204 58.5857 117.37C58.5249 117.535 58.4345 117.686 58.3195 117.814C58.2045 117.942 58.0673 118.044 57.9156 118.115C57.7639 118.186 57.6008 118.223 57.4355 118.226C57.2702 118.229 57.1061 118.197 56.9525 118.131C56.7988 118.065 56.6587 117.968 56.5401 117.844L53.2654 114.428L55.0151 112.482Z" fill="#3F3D56"/>
<path d="M58.4652 117.949C58.669 117.722 58.7394 117.439 58.6225 117.317C58.5056 117.195 58.2455 117.28 58.0417 117.507C57.8379 117.734 57.7674 118.016 57.8843 118.138C58.0013 118.26 58.2613 118.175 58.4652 117.949Z" fill="#CA1F27"/>
<path d="M53.4158 115.833H54.0857V111.793H53.4158V115.833Z" fill="#2F2E41"/>
<path d="M194.131 79.9483C196.357 79.9483 198.162 78.0048 198.162 75.6072C198.162 73.2097 196.357 71.2661 194.131 71.2661C191.905 71.2661 190.1 73.2097 190.1 75.6072C190.1 78.0048 191.905 79.9483 194.131 79.9483Z" fill="#2F2E41"/>
<path d="M184.094 112.736H182.329L181.489 105.405H184.094L184.094 112.736Z" fill="#FEB8B8"/>
<path d="M181.066 112.189H184.47V114.497H178.923C178.923 114.194 178.978 113.894 179.086 113.614C179.194 113.334 179.352 113.079 179.551 112.865C179.75 112.651 179.986 112.481 180.246 112.365C180.506 112.249 180.785 112.189 181.066 112.189Z" fill="#2F2E41"/>
<path d="M181.337 111.673L179.654 111.104L180.891 103.838L183.376 104.678L181.337 111.673Z" fill="#FEB8B8"/>
<path d="M178.604 110.19L181.851 111.287L181.21 113.489L175.917 111.701C176.087 111.117 176.466 110.629 176.97 110.346C177.474 110.063 178.061 110.006 178.604 110.19Z" fill="#2F2E41"/>
<path d="M181.917 108.74C181.84 108.74 181.763 108.725 181.691 108.696L180.392 108.172C180.247 108.113 180.126 107.999 180.051 107.851C179.977 107.704 179.954 107.532 179.987 107.368C180.314 105.785 181.428 100.396 182.038 97.5053C182.762 94.0765 193.317 93.4394 193.766 93.414L193.803 93.4119L194.99 95.0181C195.419 96.5033 195.283 97.6617 194.586 98.4613C192.551 100.794 186.477 99.3466 185.752 99.1634L182.524 108.291C182.477 108.423 182.394 108.537 182.285 108.617C182.177 108.698 182.048 108.74 181.917 108.74Z" fill="#2F2E41"/>
<path d="M183.787 109.847C183.71 109.847 183.634 109.832 183.561 109.803L182.263 109.279C182.117 109.219 181.996 109.106 181.922 108.958C181.847 108.811 181.825 108.639 181.858 108.475C182.185 106.892 183.299 101.503 183.909 98.6122C184.632 95.1835 195.187 94.5463 195.636 94.5209L195.673 94.5188L196.86 96.1255C197.289 97.6106 197.153 98.7691 196.456 99.5687C194.421 101.901 188.347 100.454 187.623 100.271L184.394 109.398C184.347 109.53 184.264 109.644 184.155 109.724C184.047 109.804 183.919 109.847 183.787 109.847Z" fill="#2F2E41"/>
<path d="M180.035 87.5178C180.083 87.5865 180.125 87.6592 180.162 87.7351L187.262 88.5407L188.285 87.0314L190.601 88.3949L188.594 92.0572L179.886 89.666C179.666 89.8967 179.386 90.0499 179.084 90.1052C178.781 90.1605 178.47 90.1153 178.192 89.9757C177.914 89.836 177.682 89.6085 177.527 89.3233C177.372 89.0382 177.301 88.709 177.324 88.3795C177.347 88.0499 177.463 87.7357 177.655 87.4786C177.848 87.2215 178.109 87.0337 178.403 86.9401C178.698 86.8466 179.011 86.8517 179.303 86.9549C179.594 87.058 179.85 87.2545 180.035 87.5178Z" fill="#FEB8B8"/>
<path d="M196.528 96.7241C196.426 96.7239 196.325 96.6973 196.233 96.6467C194.814 95.8692 192.049 94.5228 189.485 94.241C189.398 94.2318 189.313 94.2028 189.236 94.1561C189.159 94.1094 189.092 94.0459 189.04 93.9698C188.986 93.8928 188.948 93.8047 188.927 93.7111C188.906 93.6174 188.904 93.5202 188.92 93.4255C189.151 92.0463 189.682 88.5343 189.613 85.7197C189.593 84.8543 189.847 84.0073 190.333 83.3178C190.819 82.6284 191.509 82.1377 192.288 81.9262C192.757 81.7929 193.234 81.6917 193.715 81.6232C194.268 81.5478 194.83 81.6129 195.355 81.8133C195.881 82.0138 196.355 82.3439 196.741 82.7774C197.127 83.2109 197.413 83.7356 197.576 84.3096C197.74 84.8835 197.776 85.4907 197.682 86.0825C197.225 88.9994 196.764 93.0733 197.165 95.9172C197.183 96.0447 197.169 96.1751 197.122 96.2941C197.076 96.4131 197 96.5161 196.903 96.5915C196.794 96.6772 196.663 96.7236 196.528 96.7241Z" fill="#CA1F27"/>
<path d="M189.749 89.3083C189.66 89.3081 189.573 89.2884 189.491 89.2505L187.642 88.3883C187.484 88.3146 187.36 88.1766 187.297 88.0046C187.234 87.8326 187.236 87.6407 187.305 87.4708L188.734 83.9139C188.906 83.4786 189.231 83.1345 189.638 82.9573C190.045 82.7801 190.501 82.7843 190.905 82.9691C191.309 83.1538 191.629 83.5039 191.793 83.9423C191.958 84.3807 191.954 84.8715 191.782 85.3068L191.773 85.3303L190.343 88.8874C190.293 89.0122 190.21 89.1185 190.104 89.1933C189.999 89.2681 189.875 89.308 189.749 89.3083Z" fill="#CA1F27"/>
<path d="M193.977 80.4109C195.93 80.4109 197.513 78.706 197.513 76.6029C197.513 74.4998 195.93 72.7949 193.977 72.7949C192.025 72.7949 190.442 74.4998 190.442 76.6029C190.442 78.706 192.025 80.4109 193.977 80.4109Z" fill="#FEB8B8"/>
<path d="M190.379 74.7468C192.054 75.8479 193.942 76.5179 195.897 76.7047L195.315 75.9543C195.739 76.1229 196.184 76.2182 196.635 76.2366C196.861 76.2436 197.086 76.1936 197.29 76.0904C197.495 75.9872 197.674 75.8338 197.814 75.6425C197.928 75.4439 197.996 75.2185 198.011 74.9856C198.027 74.7527 197.99 74.5192 197.904 74.305C197.727 73.8775 197.451 73.506 197.103 73.2258C196.485 72.6999 195.757 72.3467 194.982 72.1976C194.207 72.0485 193.411 72.1081 192.662 72.3711C192.149 72.5363 191.689 72.8538 191.336 73.2874C191.001 73.7327 190.356 74.1295 190.527 74.6722L190.379 74.7468Z" fill="#2F2E41"/>
<path d="M194.295 71.5164C195 70.7465 195.853 70.1523 196.794 69.7757C197.391 69.5051 198.046 69.4176 198.687 69.5227C199.005 69.5802 199.304 69.7288 199.551 69.953C199.798 70.1772 199.985 70.4688 200.092 70.7973C200.2 71.3581 200.119 71.942 199.863 72.4443C199.64 72.9582 199.341 73.4343 199.161 73.9671C198.976 74.5107 198.921 75.0954 198.999 75.668C199.078 76.2406 199.288 76.783 199.61 77.246C199.933 77.7089 200.358 78.0778 200.846 78.3191C201.335 78.5604 201.872 78.6664 202.408 78.6276C201.798 78.7801 201.198 78.9706 200.609 79.1983C200.002 79.3654 199.287 79.3542 198.836 78.8862C198.359 78.3911 198.35 77.5862 198.373 76.8733L198.475 73.6941C198.526 73.1545 198.476 72.6094 198.327 72.0913C198.248 71.8336 198.1 71.6068 197.902 71.4393C197.704 71.2718 197.465 71.171 197.214 71.1497C196.833 71.1956 196.475 71.3694 196.191 71.6464C195.908 71.923 195.559 72.1107 195.184 72.1889C194.805 72.2253 194.372 71.9236 194.4 71.5146" fill="#2F2E41"/>
<path d="M188.039 95.7563C187.805 95.7559 187.573 95.6997 187.362 95.5915C187.15 95.4833 186.963 95.326 186.815 95.1307C186.667 94.9355 186.56 94.7072 186.504 94.4624C186.447 94.2175 186.442 93.9622 186.488 93.7148C186.534 93.4674 186.63 93.2341 186.77 93.0317C186.91 92.8293 187.09 92.6628 187.296 92.5442C187.503 92.4256 187.732 92.3579 187.966 92.3459C188.2 92.3339 188.433 92.378 188.65 92.475C188.715 92.5046 188.778 92.539 188.838 92.578L195.279 89.4641L195.46 87.5827L198.237 87.5027L198.218 90.6348C198.215 90.9976 198.103 91.3497 197.899 91.6386C197.695 91.9275 197.41 92.1379 197.087 92.2385L189.555 94.5471C189.54 94.6007 189.523 94.6534 189.503 94.7051C189.383 95.0159 189.179 95.2815 188.919 95.4684C188.658 95.6554 188.353 95.7555 188.04 95.7562L188.039 95.7563Z" fill="#FEB8B8"/>
<path d="M198.002 89.0293C197.923 89.0723 197.837 89.0974 197.748 89.1031L195.737 89.2363C195.565 89.2474 195.397 89.1849 195.268 89.0624C195.139 88.9399 195.061 88.7674 195.05 88.5828L194.83 84.714C194.816 84.4803 194.846 84.2461 194.916 84.0247C194.987 83.8032 195.098 83.599 195.242 83.4236C195.386 83.2481 195.56 83.105 195.756 83.0023C195.951 82.8995 196.163 82.8393 196.38 82.8249C196.597 82.8105 196.815 82.8423 197.02 82.9185C197.226 82.9946 197.416 83.1136 197.579 83.2687C197.741 83.4238 197.874 83.6119 197.97 83.8224C198.065 84.0328 198.121 84.2614 198.134 84.4951L198.355 88.3638C198.363 88.4997 198.334 88.6351 198.271 88.7533C198.208 88.8715 198.115 88.9674 198.002 89.0293Z" fill="#CA1F27"/>
<path d="M193.945 95.0439H181.93C181.829 95.0439 181.747 95.1319 181.747 95.2405V95.9327C181.747 96.0412 181.829 96.1292 181.93 96.1292H193.945C194.046 96.1292 194.128 96.0412 194.128 95.9327V95.2405C194.128 95.1319 194.046 95.0439 193.945 95.0439Z" fill="#3F3D56"/>
<path d="M177.133 95.1463V87.5493C177.134 87.2821 177.232 87.026 177.408 86.837C177.583 86.6481 177.821 86.5418 178.069 86.5415H190.882C191.13 86.5418 191.367 86.6481 191.543 86.837C191.718 87.0259 191.817 87.2821 191.817 87.5493V95.1463C191.817 95.4135 191.718 95.6697 191.543 95.8586C191.367 96.0475 191.13 96.1538 190.882 96.1541H178.069C177.821 96.1538 177.583 96.0475 177.408 95.8586C177.232 95.6697 177.134 95.4135 177.133 95.1463Z" fill="#3F3D56"/>
<path d="M184.628 92.2551C185.105 92.2551 185.492 91.8386 185.492 91.3248C185.492 90.811 185.105 90.3945 184.628 90.3945C184.151 90.3945 183.765 90.811 183.765 91.3248C183.765 91.8386 184.151 92.2551 184.628 92.2551Z" fill="#F7F7F7"/>
</svg>
