<svg width="50" height="50" viewBox="0 0 50 50" fill="none" xmlns="http://www.w3.org/2000/svg">
<g clip-path="url(#clip0_1653_2406)">
<path fill-rule="evenodd" clip-rule="evenodd" d="M14.847 1.64421e-06C12.6594 1.64421e-06 10.5614 0.86902 9.01455 2.41588C7.46768 3.96275 6.59867 6.06074 6.59867 8.24833V9.19194C6.59867 10.67 7.03748 12.0459 7.79303 13.1973H4.949C3.63644 13.1973 2.37765 13.7187 1.44953 14.6469C0.521411 15.575 0 16.8338 0 18.1463L0 21.4457C0 22.7582 0.521411 24.017 1.44953 24.9451C2.37765 25.8733 3.63644 26.3947 4.949 26.3947H23.0953V13.1973H26.3947V26.3947H44.541C45.8536 26.3947 47.1124 25.8733 48.0405 24.9451C48.9686 24.017 49.49 22.7582 49.49 21.4457V18.1463C49.49 16.8338 48.9686 15.575 48.0405 14.6469C47.1124 13.7187 45.8536 13.1973 44.541 13.1973H41.697C42.4525 12.0459 42.8913 10.67 42.8913 9.19194V8.24833C42.8913 6.06074 42.0223 3.96275 40.4755 2.41588C38.9286 0.86902 36.8306 1.64421e-06 34.643 1.64421e-06C30.4429 1.64421e-06 26.7642 2.24355 24.745 5.59567C23.7185 3.88788 22.2674 2.47493 20.5329 1.49434C18.7984 0.513755 16.8395 -0.0010618 14.847 1.64421e-06ZM26.3947 13.1973H35.5866C37.7972 13.1973 39.592 11.4025 39.592 9.19194V8.24833C39.592 6.93578 39.0706 5.67698 38.1425 4.74886C37.2144 3.82075 35.9556 3.29934 34.643 3.29934C32.4554 3.29934 30.3574 4.16835 28.8105 5.71522C27.2637 7.26208 26.3947 9.36007 26.3947 11.5477V13.1973ZM23.0953 13.1973H13.9034C11.6928 13.1973 9.898 11.4025 9.898 9.19194V8.24833C9.898 6.93578 10.4194 5.67698 11.3475 4.74886C12.2756 3.82075 13.5344 3.29934 14.847 3.29934C15.9302 3.29934 17.0028 3.51268 18.0035 3.9272C19.0042 4.34172 19.9135 4.94929 20.6795 5.71522C21.4454 6.48114 22.0529 7.39043 22.4675 8.39117C22.882 9.3919 23.0953 10.4645 23.0953 11.5477V13.1973Z" fill="#CA1F27"/>
<path d="M23.0953 29.6941H3.29932V41.2418C3.29932 43.4294 4.16833 45.5273 5.7152 47.0742C7.26206 48.6211 9.36006 49.4901 11.5476 49.4901H23.0953V29.6941ZM26.3946 49.4901H37.9423C40.1299 49.4901 42.2279 48.6211 43.7748 47.0742C45.3216 45.5273 46.1907 43.4294 46.1907 41.2418V29.6941H26.3946V49.4901Z" fill="#CA1F27"/>
</g>
<defs>
<clipPath id="clip0_1653_2406">
<rect width="49.49" height="49.49" fill="white"/>
</clipPath>
</defs>
</svg>
