<svg width="305" height="218" viewBox="0 0 305 218" fill="none" xmlns="http://www.w3.org/2000/svg">
<g clip-path="url(#clip0_697_36303)">
<path d="M295.458 63.7568H129.169C126.828 63.759 124.584 64.6898 122.929 66.3449C121.274 68 120.343 70.2443 120.341 72.585V99.5341C120.343 101.875 121.274 104.119 122.929 105.774C124.584 107.429 126.828 108.36 129.169 108.362H295.458C297.799 108.36 300.043 107.429 301.698 105.774C303.353 104.119 304.284 101.875 304.286 99.5341V72.585C304.284 70.2443 303.353 68 301.698 66.3449C300.043 64.6898 297.799 63.759 295.458 63.7568Z" fill="#F2F2F2"/>
<path d="M67.2449 217.569H1.08785C0.947483 217.569 0.812856 217.513 0.713601 217.414C0.614346 217.315 0.558594 217.18 0.558594 217.04C0.558594 216.9 0.614346 216.765 0.713601 216.666C0.812856 216.567 0.947483 216.511 1.08785 216.511H67.2449C67.3853 216.511 67.5199 216.567 67.6192 216.666C67.7184 216.765 67.7742 216.9 67.7742 217.04C67.7742 217.18 67.7184 217.315 67.6192 217.414C67.5199 217.513 67.3853 217.569 67.2449 217.569Z" fill="#3F3D56"/>
<path d="M57.531 51.8558C56.9174 52.243 56.3963 52.7601 56.0042 53.3706C55.6121 53.981 55.3587 54.67 55.2617 55.3891C55.1647 56.1081 55.2265 56.8396 55.4429 57.5321C55.6592 58.2247 56.0247 58.8614 56.5137 59.3974L51.7041 69.6679L57.2326 74.1129L63.821 59.5135C64.667 58.6324 65.1603 57.4715 65.2076 56.2509C65.2549 55.0303 64.8527 53.8347 64.0774 52.8908C63.3021 51.9468 62.2074 51.3201 61.0009 51.1293C59.7943 50.9386 58.5597 51.1971 57.531 51.8558Z" fill="#FFB8B8"/>
<path d="M29.8925 56.0238C31.4146 55.1095 33.2303 54.8161 34.9629 55.2045C36.6955 55.5929 38.2122 56.6333 39.1984 58.1099L49.0398 72.8456L52.4564 65.3135C52.6697 64.8432 53.0476 64.4671 53.519 64.256C53.9903 64.0449 54.5225 64.0134 55.0155 64.1673L60.1722 65.7782C60.4416 65.8623 60.6915 65.9995 60.9071 66.1816C61.1227 66.3638 61.2998 66.5872 61.4278 66.8387C61.5558 67.0903 61.6322 67.3649 61.6525 67.6464C61.6729 67.9279 61.6367 68.2106 61.5462 68.478L58.0162 78.9013C57.5697 80.2198 56.8237 81.4169 55.8366 82.3986C54.8496 83.3803 53.6485 84.1198 52.3276 84.5591C51.0067 84.9985 49.6019 85.1257 48.2235 84.9308C46.8452 84.7359 45.5307 84.2241 44.3834 83.4358C43.8473 83.0674 43.3527 82.642 42.9082 82.167L28.4052 66.6707C27.7009 65.9182 27.1739 65.0177 26.8627 64.0351C26.5514 63.0526 26.4639 62.0129 26.6065 60.9921C26.7491 59.9714 27.1182 58.9954 27.6867 58.1358C28.2553 57.2761 29.0089 56.5545 29.8925 56.0238Z" fill="#CCCCCC"/>
<path d="M61.7291 40.7979C61.9932 40.8045 62.244 40.9157 62.4261 41.1071C62.6082 41.2985 62.7069 41.5545 62.7003 41.8186L62.6154 45.239L62.7869 45.2547L62.7253 47.5778L62.5578 47.5569L62.2534 59.8105C62.243 60.2298 62.0804 60.6311 61.7958 60.9394C61.5113 61.2477 61.1243 61.4419 60.7071 61.4858L52.9155 62.3061C52.7258 62.3261 52.534 62.3043 52.3536 62.2423C52.1732 62.1804 52.0085 62.0797 51.8712 61.9473C51.7338 61.815 51.627 61.6542 51.5584 61.4762C51.4897 61.2983 51.4608 61.1074 51.4737 60.9171L52.6554 43.4689C52.6802 43.1024 52.829 42.7553 53.0773 42.4846C53.3255 42.2138 53.6585 42.0356 54.0215 41.9792L61.5432 40.8107C61.6046 40.8006 61.6669 40.7964 61.7291 40.7979Z" fill="#3F3D56"/>
<path d="M55.6986 42.6139L59.6529 41.9996C59.724 41.9885 59.7896 41.9543 59.8393 41.9023C59.8891 41.8502 59.9203 41.7832 59.9282 41.7116C59.937 41.6304 59.9724 41.5545 60.0287 41.4956C60.0851 41.4366 60.1593 41.3978 60.24 41.3853L61.0729 41.2559C61.1866 41.2382 61.3027 41.2457 61.4131 41.2779C61.5236 41.31 61.6256 41.366 61.7121 41.4419C61.7985 41.5177 61.8673 41.6117 61.9134 41.717C61.9596 41.8223 61.9821 41.9365 61.9794 42.0515L61.5512 59.8171C61.5459 60.0376 61.4596 60.2484 61.3088 60.4093C61.158 60.5701 60.9532 60.6699 60.7335 60.6894L52.9477 61.3816C52.8483 61.3904 52.7483 61.3777 52.6543 61.3444C52.5604 61.311 52.4747 61.2577 52.4032 61.1882C52.3317 61.1187 52.2761 61.0346 52.2401 60.9416C52.2041 60.8486 52.1886 60.7489 52.1946 60.6494L53.2452 43.3624C53.2606 43.1077 53.3628 42.8659 53.5346 42.6773C53.7064 42.4886 53.9376 42.3644 54.1897 42.3252L55.0678 42.1888C55.1 42.3261 55.1829 42.4461 55.2999 42.5249C55.4168 42.6038 55.5592 42.6355 55.6986 42.6139Z" fill="white"/>
<path d="M37.3537 211.145L43.4041 211.144L46.2817 187.806L37.3516 187.807L37.3537 211.145Z" fill="#FFB8B8"/>
<path d="M55.0732 216.762L36.0572 216.764L36.0565 209.417L47.7255 209.416C48.6903 209.415 49.6457 209.605 50.5371 209.975C51.4286 210.344 52.2385 210.885 52.9208 211.567C53.6031 212.249 54.1444 213.059 54.5137 213.95C54.883 214.842 55.0732 215.797 55.0732 216.762Z" fill="#2F2E41"/>
<path d="M18.758 211.145L24.8084 211.144L27.686 187.806L18.7559 187.807L18.758 211.145Z" fill="#FFB8B8"/>
<path d="M36.4775 216.762L17.4615 216.764L17.4608 209.417L29.1298 209.416C31.0783 209.415 32.9472 210.189 34.3252 211.567C35.7031 212.945 36.4774 214.813 36.4775 216.762Z" fill="#2F2E41"/>
<path d="M36.4776 48.0919C43.6568 48.0919 49.4767 42.272 49.4767 35.0928C49.4767 27.9136 43.6568 22.0938 36.4776 22.0938C29.2984 22.0938 23.4785 27.9136 23.4785 35.0928C23.4785 42.272 29.2984 48.0919 36.4776 48.0919Z" fill="#FFB8B8"/>
<path d="M43.1677 69.8717C43.0615 66.5296 42.1206 63.2673 40.4308 60.3819C38.741 57.4966 36.3559 55.08 33.4931 53.3524C30.1348 51.3735 26.4588 50.6017 23.5343 53.5262C21.7783 55.3263 20.372 57.437 19.3871 59.7509C16.6818 66.0563 16.5048 73.1606 18.8928 79.5929L25.8533 98.8229L41.9634 100.568C42.266 100.601 42.5721 100.568 42.8609 100.472C43.1497 100.376 43.4142 100.218 43.6367 100.01C43.8591 99.8026 44.0341 99.5493 44.1497 99.2677C44.2654 98.9862 44.3189 98.683 44.3068 98.3789L43.1677 69.8717Z" fill="#2F2E41"/>
<path d="M26.8748 96.4548C26.8748 96.4548 14.8388 100.948 17.9856 119.974C20.8094 137.047 18.5654 193.715 18.0749 205.17C18.0515 205.716 18.2404 206.25 18.602 206.66C18.9635 207.07 19.4696 207.324 20.0142 207.369L27.0401 207.954C27.5904 208 28.1368 207.829 28.5629 207.478C28.9889 207.126 29.2608 206.623 29.3205 206.074L32.9491 172.744C32.9633 172.614 33.0258 172.493 33.1242 172.406C33.2227 172.318 33.3501 172.271 33.4817 172.272C33.6132 172.274 33.7395 172.325 33.8358 172.414C33.9321 172.504 33.9916 172.626 34.0026 172.757L36.7064 204.828C36.752 205.368 37.0031 205.87 37.4081 206.231C37.8131 206.591 38.341 206.783 38.8829 206.766L44.7842 206.579C45.0623 206.57 45.336 206.507 45.5895 206.392C45.843 206.277 46.0714 206.114 46.2617 205.911C46.452 205.708 46.6004 205.47 46.6985 205.209C46.7965 204.949 46.8423 204.672 46.8332 204.394L43.3569 98.6771L26.8748 96.4548Z" fill="#2F2E41"/>
<path d="M39.086 34.2365C43.4335 36.0195 48.9855 33.9366 51.0874 29.7341C53.1893 25.5315 51.5258 19.8398 47.4915 17.4307C43.4572 15.0215 37.6574 16.2564 34.9544 20.1C32.7557 16.1387 26.9955 15.1288 23.0407 17.3392C19.0859 19.5495 16.9317 24.1792 16.6762 28.7026C16.4207 33.226 17.7959 37.6822 19.4735 41.8907C22.1871 48.6983 30.9229 52.3638 37.6816 49.5307C34.5875 44.9223 35.1983 38.1784 39.086 34.2365Z" fill="#2F2E41"/>
<path d="M56.606 53.4321C56.4903 53.4323 56.3777 53.3949 56.2851 53.3255L56.2794 53.3212L55.0707 52.3965C55.0147 52.3536 54.9677 52.3001 54.9324 52.239C54.8971 52.178 54.8742 52.1105 54.865 52.0406C54.8557 51.9707 54.8604 51.8996 54.8786 51.8315C54.8968 51.7633 54.9283 51.6994 54.9712 51.6435C55.0141 51.5875 55.0676 51.5405 55.1287 51.5052C55.1898 51.4699 55.2572 51.447 55.3272 51.4378C55.3971 51.4285 55.4681 51.4331 55.5363 51.4514C55.6044 51.4696 55.6683 51.5011 55.7243 51.544L56.5072 52.1443L58.3572 49.7308C58.4001 49.6748 58.4536 49.6278 58.5147 49.5926C58.5757 49.5573 58.6431 49.5344 58.713 49.5251C58.7829 49.5159 58.854 49.5205 58.9221 49.5387C58.9902 49.557 59.054 49.5884 59.11 49.6313C59.2229 49.7181 59.2972 49.8462 59.3158 49.9874C59.3344 50.1285 59.2963 50.2713 59.2098 50.3844L57.0337 53.222C56.9834 53.2874 56.9187 53.3403 56.8446 53.3766C56.7705 53.4129 56.689 53.4317 56.6065 53.4314L56.606 53.4321Z" fill="#CA1F27"/>
<path d="M295.614 0H129.325C126.985 0.00212029 124.74 0.932915 123.085 2.58806C121.43 4.2432 120.499 6.48743 120.497 8.82816V35.7773C120.499 38.118 121.43 40.3622 123.085 42.0174C124.74 43.6725 126.985 44.6033 129.325 44.6054H295.614C297.955 44.6033 300.199 43.6725 301.854 42.0174C303.51 40.3622 304.44 38.118 304.442 35.7773V8.82816C304.44 6.48744 303.51 4.24319 301.854 2.58805C300.199 0.932908 297.955 0.00212029 295.614 0ZM303.513 35.7773C303.51 37.8713 302.677 39.8787 301.196 41.3593C299.716 42.84 297.708 43.6732 295.614 43.6761H129.325C127.231 43.6732 125.224 42.84 123.743 41.3593C122.262 39.8787 121.429 37.8713 121.426 35.7773V8.82816C121.429 6.73415 122.262 4.72677 123.743 3.24608C125.224 1.7654 127.231 0.93224 129.325 0.929276H295.614C297.708 0.93224 299.716 1.7654 301.196 3.24608C302.677 4.72677 303.51 6.73415 303.513 8.82816V35.7773Z" fill="#3F3D56"/>
<path d="M163.165 37.6683C160.126 37.6683 157.156 36.7671 154.629 35.0788C152.102 33.3904 150.132 30.9906 148.969 28.183C147.806 25.3753 147.502 22.2858 148.095 19.3052C148.688 16.3246 150.151 13.5867 152.3 11.4378C154.449 9.28884 157.187 7.82541 160.168 7.23251C163.148 6.63962 166.238 6.94391 169.045 8.10688C171.853 9.26986 174.253 11.2393 175.941 13.7661C177.63 16.293 178.531 19.2637 178.531 22.3028C178.526 26.3765 176.906 30.2821 174.025 33.1627C171.145 36.0432 167.239 37.6636 163.165 37.6683Z" fill="#CA1F27"/>
<path d="M272.926 34.8481H193.06C192.074 34.8481 191.129 34.4564 190.431 33.7593C189.734 33.0622 189.343 32.1168 189.343 31.1309C189.343 30.1451 189.734 29.1996 190.431 28.5026C191.129 27.8055 192.074 27.4138 193.06 27.4138H272.926C273.912 27.4138 274.857 27.8055 275.554 28.5026C276.251 29.1996 276.643 30.1451 276.643 31.1309C276.643 32.1168 276.251 33.0622 275.554 33.7593C274.857 34.4564 273.912 34.8481 272.926 34.8481Z" fill="#CCCCCC"/>
<path d="M219.492 19.0502H193.06C192.074 19.0502 191.129 18.6586 190.431 17.9615C189.734 17.2644 189.343 16.3189 189.343 15.3331C189.343 14.3472 189.734 13.4018 190.431 12.7047C191.129 12.0076 192.074 11.616 193.06 11.616H219.492C220.478 11.616 221.424 12.0076 222.121 12.7047C222.818 13.4018 223.209 14.3472 223.209 15.3331C223.209 16.3189 222.818 17.2644 222.121 17.9615C221.424 18.6586 220.478 19.0502 219.492 19.0502Z" fill="#CCCCCC"/>
<path d="M162.38 27.7085C161.999 27.7092 161.628 27.5858 161.323 27.3571L161.304 27.3429L157.321 24.2962C157.136 24.1549 156.981 23.9786 156.865 23.7773C156.748 23.576 156.672 23.3536 156.641 23.123C156.611 22.8923 156.626 22.6579 156.686 22.4331C156.746 22.2083 156.85 21.9976 156.991 21.8129C157.133 21.6283 157.309 21.4734 157.511 21.357C157.712 21.2407 157.935 21.1652 158.166 21.1349C158.396 21.1046 158.631 21.1201 158.855 21.1805C159.08 21.2409 159.291 21.345 159.475 21.4869L162.055 23.4652L168.151 15.5121C168.292 15.3277 168.469 15.173 168.67 15.0568C168.871 14.9405 169.093 14.865 169.323 14.8346C169.554 14.8041 169.788 14.8194 170.012 14.8794C170.237 14.9395 170.447 15.0431 170.631 15.1845L170.632 15.1849L170.594 15.2374L170.633 15.1849C171.005 15.4708 171.248 15.8926 171.31 16.3577C171.371 16.8228 171.245 17.2933 170.96 17.6659L163.79 27.0162C163.624 27.2316 163.411 27.406 163.167 27.5257C162.922 27.6454 162.654 27.7072 162.382 27.7064L162.38 27.7085Z" fill="white"/>
<path d="M224.164 72.5083H57.875C55.5343 72.5104 53.2901 73.4412 51.6349 75.0964C49.9798 76.7515 49.049 78.9957 49.0469 81.3365V108.286C49.049 110.626 49.9798 112.871 51.6349 114.526C53.2901 116.181 55.5343 117.112 57.875 117.114H224.164C226.505 117.112 228.749 116.181 230.404 114.526C232.059 112.871 232.99 110.626 232.992 108.286V81.3365C232.99 78.9957 232.059 76.7515 230.404 75.0964C228.749 73.4412 226.505 72.5104 224.164 72.5083Z" fill="white"/>
<path d="M224.164 72.5083H57.875C55.5343 72.5104 53.2901 73.4412 51.6349 75.0964C49.9798 76.7515 49.049 78.9957 49.0469 81.3365V108.286C49.049 110.626 49.9798 112.871 51.6349 114.526C53.2901 116.181 55.5343 117.112 57.875 117.114H224.164C226.505 117.112 228.749 116.181 230.404 114.526C232.059 112.871 232.99 110.626 232.992 108.286V81.3365C232.99 78.9957 232.059 76.7515 230.404 75.0964C228.749 73.4412 226.505 72.5104 224.164 72.5083ZM232.063 108.286C232.06 110.38 231.227 112.387 229.746 113.868C228.265 115.348 226.258 116.181 224.164 116.184H57.875C55.781 116.181 53.7736 115.348 52.2929 113.868C50.8123 112.387 49.9791 110.38 49.9761 108.286V81.3365C49.9791 79.2425 50.8122 77.2351 52.2929 75.7544C53.7736 74.2737 55.781 73.4405 57.875 73.4376H224.164C226.258 73.4405 228.265 74.2737 229.746 75.7544C231.227 77.2351 232.06 79.2425 232.063 81.3365V108.286Z" fill="#3F3D56"/>
<path d="M91.7152 110.176C88.6762 110.176 85.7055 109.275 83.1786 107.587C80.6517 105.898 78.6823 103.499 77.5193 100.691C76.3563 97.8834 76.052 94.7939 76.6448 91.8132C77.2377 88.8326 78.7011 86.0947 80.85 83.9458C82.9989 81.7969 85.7368 80.3335 88.7174 79.7406C91.698 79.1477 94.7875 79.452 97.5952 80.6149C100.403 81.7779 102.803 83.7474 104.491 86.2742C106.179 88.801 107.081 91.7718 107.081 94.8108C107.076 98.8846 105.456 102.79 102.575 105.671C99.6945 108.551 95.789 110.172 91.7152 110.176Z" fill="#CA1F27"/>
<path d="M201.476 107.356H121.61C120.624 107.356 119.678 106.964 118.981 106.267C118.284 105.57 117.893 104.625 117.893 103.639C117.893 102.653 118.284 101.708 118.981 101.011C119.678 100.314 120.624 99.9219 121.61 99.9219H201.476C202.462 99.9219 203.407 100.314 204.104 101.011C204.801 101.708 205.193 102.653 205.193 103.639C205.193 104.625 204.801 105.57 204.104 106.267C203.407 106.964 202.462 107.356 201.476 107.356Z" fill="#CCCCCC"/>
<path d="M148.042 91.5585H121.61C121.122 91.5585 120.638 91.4624 120.187 91.2756C119.736 91.0888 119.326 90.815 118.981 90.4698C118.636 90.1246 118.362 89.7149 118.176 89.2639C117.989 88.8129 117.893 88.3295 117.893 87.8414C117.893 87.3532 117.989 86.8699 118.176 86.4189C118.362 85.9679 118.636 85.5582 118.981 85.213C119.326 84.8678 119.736 84.594 120.187 84.4072C120.638 84.2204 121.122 84.1243 121.61 84.1243H148.042C149.028 84.1243 149.973 84.5159 150.671 85.213C151.368 85.9101 151.759 86.8555 151.759 87.8414C151.759 88.8272 151.368 89.7727 150.671 90.4698C149.973 91.1669 149.028 91.5585 148.042 91.5585Z" fill="#CCCCCC"/>
<path d="M90.9313 100.217C90.55 100.217 90.1788 100.094 89.8738 99.8652L89.8549 99.851L85.8721 96.8042C85.6872 96.663 85.532 96.4866 85.4153 96.2853C85.2987 96.084 85.2228 95.8617 85.1922 95.631C85.1615 95.4004 85.1767 95.166 85.2367 94.9412C85.2967 94.7164 85.4005 94.5056 85.542 94.321C85.6836 94.1363 85.8602 93.9814 86.0617 93.8651C86.2632 93.7487 86.4856 93.6733 86.7163 93.643C86.947 93.6127 87.1814 93.6282 87.4061 93.6886C87.6308 93.749 87.8414 93.8531 88.0258 93.9949L90.6056 95.9732L96.7017 88.0202C96.843 87.8358 97.0193 87.6811 97.2205 87.5648C97.4216 87.4486 97.6437 87.3731 97.874 87.3426C98.1044 87.3122 98.3385 87.3274 98.5629 87.3875C98.7873 87.4475 98.9978 87.5512 99.1821 87.6925L99.1827 87.6929L99.1448 87.7455L99.1837 87.6929C99.5557 87.9788 99.7991 88.4006 99.8604 88.8657C99.9218 89.3309 99.7961 89.8013 99.511 90.1739L92.3406 99.5242C92.1747 99.7397 91.9614 99.914 91.7173 100.034C91.4732 100.153 91.2047 100.215 90.9328 100.214L90.9313 100.217Z" fill="white"/>
<path d="M52.4827 78.5873C51.8145 78.3047 51.0924 78.172 50.3674 78.1987C49.6423 78.2253 48.9319 78.4106 48.2863 78.7414C47.6406 79.0723 47.0753 79.5407 46.6302 80.1137C46.1851 80.6867 45.8711 81.3503 45.7102 82.0578L34.5321 83.9727L34.0391 91.0494L49.7867 88.1234C50.9931 88.3149 52.2278 88.0572 53.2569 87.3991C54.2861 86.741 55.038 85.7283 55.3703 84.5529C55.7026 83.3774 55.5923 82.1209 55.0601 81.0214C54.5278 79.9219 53.6108 79.0559 52.4827 78.5873Z" fill="#FFB8B8"/>
<path d="M33.2822 58.2753C34.9019 59.0029 36.1794 60.3261 36.8497 61.9704C37.52 63.6146 37.5317 65.4538 36.8824 67.1065L30.4029 83.5992L38.5374 82.1041C39.0453 82.0107 39.5699 82.1062 40.0123 82.3727C40.4547 82.6391 40.7845 83.0581 40.9395 83.5508L42.5611 88.7041C42.6458 88.9734 42.6758 89.2568 42.6494 89.5378C42.6229 89.8188 42.5406 90.0917 42.4072 90.3404C42.2737 90.5891 42.0919 90.8086 41.8724 90.9861C41.6529 91.1635 41.4001 91.2952 41.1289 91.3735L30.556 94.4262C29.2185 94.8124 27.8098 94.8833 26.4403 94.6334C25.0709 94.3835 23.7779 93.8196 22.6631 92.986C21.5482 92.1523 20.6418 91.0716 20.0149 89.8287C19.388 88.5858 19.0577 87.2144 19.0499 85.8224C19.0463 85.1719 19.1132 84.5229 19.2493 83.8868L23.6919 63.1327C23.9076 62.1249 24.3461 61.1781 24.9751 60.3616C25.6041 59.5451 26.4077 58.8796 27.3272 58.4139C28.2466 57.9482 29.2586 57.6941 30.289 57.6701C31.3194 57.6461 32.3421 57.8529 33.2822 58.2753Z" fill="#CCCCCC"/>
</g>
<defs>
<clipPath id="clip0_697_36303">
<rect width="303.884" height="217.569" fill="white" transform="translate(0.558594)"/>
</clipPath>
</defs>
</svg>
