<svg width="233" height="170" viewBox="0 0 233 170" fill="none" xmlns="http://www.w3.org/2000/svg">
<g id="undraw_schedule_meeting_52nu (1)" clip-path="url(#clip0_2387_1458)">
<path id="Vector" d="M141.409 80.4466C140.688 80.4455 139.994 80.1703 139.468 79.6768C138.942 79.1833 138.623 78.5083 138.575 77.7885L138.153 71.3446C138.104 70.5919 138.356 69.8505 138.853 69.2834C139.351 68.7164 140.053 68.3701 140.805 68.3208L191.291 65.0145C192.897 64.9105 194.479 65.4487 195.689 66.5106C196.899 67.5726 197.638 69.0715 197.743 70.6779C197.848 72.2843 197.311 73.8668 196.25 75.0775C195.189 76.2881 193.691 77.028 192.084 77.1344L141.599 80.4404C141.536 80.4445 141.472 80.4465 141.409 80.4466Z" fill="#CA1F27"/>
<path id="Vector_2" d="M151.364 81.2775C150.629 81.2762 149.922 80.9905 149.393 80.4802C148.863 79.9698 148.552 79.2744 148.523 78.5395L148.163 68.9147C148.15 68.5415 148.209 68.1692 148.339 67.8191C148.469 67.4689 148.667 67.1478 148.921 66.8741C149.175 66.6003 149.48 66.3793 149.82 66.2236C150.159 66.0679 150.526 65.9806 150.899 65.9667L192.415 64.4151C193.169 64.3869 193.903 64.6594 194.455 65.1724C195.008 65.6855 195.335 66.3972 195.363 67.1509L195.723 76.7757C195.737 77.1489 195.677 77.5212 195.547 77.8713C195.417 78.2215 195.22 78.5426 194.965 78.8163C194.711 79.0901 194.406 79.3111 194.066 79.4668C193.727 79.6225 193.36 79.7098 192.987 79.7237L151.471 81.2753C151.436 81.2768 151.4 81.2775 151.364 81.2775Z" fill="#2F2E41"/>
<path id="Vector_3" d="M200.013 170H193.556C192.802 169.999 192.079 169.699 191.546 169.166C191.012 168.633 190.713 167.91 190.712 167.156V113.334C190.713 112.58 191.012 111.857 191.546 111.324C192.079 110.791 192.802 110.491 193.556 110.49H200.013C200.767 110.491 201.49 110.791 202.023 111.324C202.557 111.857 202.857 112.58 202.857 113.334V167.156C202.857 167.91 202.557 168.633 202.023 169.166C201.49 169.699 200.767 169.999 200.013 170Z" fill="#2F2E41"/>
<path id="Vector_4" d="M183.8 170H177.342C176.588 169.999 175.865 169.699 175.332 169.166C174.799 168.633 174.499 167.91 174.498 167.156V113.334C174.499 112.58 174.799 111.857 175.332 111.324C175.865 110.791 176.588 110.491 177.342 110.49H183.8C184.554 110.491 185.276 110.791 185.81 111.324C186.343 111.857 186.643 112.58 186.644 113.334V167.156C186.643 167.91 186.343 168.633 185.81 169.166C185.276 169.699 184.554 169.999 183.8 170Z" fill="#2F2E41"/>
<path id="Vector_5" d="M190.205 54.3204C202.529 54.3204 212.519 44.33 212.519 32.0064C212.519 19.6827 202.529 9.69238 190.205 9.69238C177.882 9.69238 167.891 19.6827 167.891 32.0064C167.891 44.33 177.882 54.3204 190.205 54.3204Z" fill="#CA1F27"/>
<path id="Vector_6" d="M178.127 39.6253C177.409 39.3894 176.75 39.0026 176.194 38.4909C175.826 38.1255 175.542 37.684 175.363 37.1974C175.183 36.7107 175.112 36.1907 175.154 35.6736C175.178 35.3053 175.286 34.9473 175.47 34.6277C175.655 34.308 175.911 34.0354 176.219 33.8312C177.017 33.3193 178.084 33.3178 179.17 33.7967L179.129 25.0856L180.004 25.0814L180.053 35.3222L179.378 34.8981C178.597 34.4071 177.48 34.0615 176.691 34.5677C176.496 34.7015 176.335 34.8784 176.219 35.0847C176.104 35.291 176.037 35.5212 176.025 35.7573C175.996 36.1425 176.05 36.5294 176.183 36.8919C176.317 37.2544 176.527 37.5839 176.799 37.8579C177.765 38.7809 179.175 39.0695 180.782 39.3275L180.644 40.1914C179.79 40.0782 178.947 39.8888 178.127 39.6253Z" fill="#2F2E41"/>
<path id="Vector_7" d="M170.109 24.6464L169.995 25.5138L174.667 26.1309L174.782 25.2634L170.109 24.6464Z" fill="#2F2E41"/>
<path id="Vector_8" d="M184.857 26.5925L184.742 27.46L189.415 28.077L189.529 27.2096L184.857 26.5925Z" fill="#2F2E41"/>
<path id="Vector_9" d="M171.21 127.774C170.224 127.773 169.279 127.381 168.582 126.684C167.884 125.987 167.492 125.041 167.491 124.055C167.491 124.055 173.42 91.8861 176.808 73.0315C177.467 69.3651 179.393 66.0469 182.25 63.657C185.108 61.267 188.714 59.9575 192.439 59.9574C197.775 59.9574 202.892 62.0769 206.664 65.8497C210.437 69.6225 212.557 74.7395 212.557 80.075V86.4279C212.557 97.3937 208.201 107.91 200.447 115.664C192.693 123.418 182.176 127.774 171.21 127.774Z" fill="#2F2E41"/>
<path id="Vector_10" d="M199.363 124.554C199.134 125.053 198.766 125.475 198.303 125.77C197.839 126.065 197.301 126.22 196.752 126.215L190.294 126.159C189.921 126.156 189.552 126.079 189.208 125.933C188.864 125.787 188.552 125.575 188.29 125.309C188.029 125.043 187.822 124.727 187.682 124.381C187.542 124.035 187.472 123.664 187.475 123.291L187.914 72.6992C187.92 71.9015 188.084 71.1129 188.395 70.3784C188.707 69.6439 189.16 68.9779 189.728 68.4186C190.297 67.8592 190.971 67.4174 191.71 67.1184C192.45 66.8194 193.241 66.6691 194.039 66.676C194.837 66.6829 195.625 66.8469 196.359 67.1587C197.094 67.4705 197.759 67.9239 198.319 68.493C198.878 69.0622 199.319 69.7359 199.618 70.4757C199.916 71.2154 200.066 72.0068 200.059 72.8045L199.62 123.396C199.617 123.796 199.529 124.191 199.363 124.554Z" fill="#CA1F27"/>
<path id="Vector_11" d="M202.216 111.048C201.987 111.547 201.619 111.97 201.155 112.264C200.692 112.559 200.154 112.714 199.604 112.71L188.575 112.614C187.821 112.606 187.1 112.3 186.572 111.763C186.043 111.225 185.75 110.499 185.756 109.745L186.116 68.2025C186.119 67.829 186.196 67.4598 186.342 67.116C186.488 66.7722 186.7 66.4605 186.966 66.1987C187.232 65.937 187.548 65.7302 187.894 65.5903C188.24 65.4504 188.611 65.38 188.984 65.3833L200.014 65.4789C200.387 65.4821 200.757 65.5589 201.1 65.7048C201.444 65.8507 201.756 66.0629 202.018 66.3292C202.279 66.5956 202.486 66.9109 202.626 67.2572C202.766 67.6035 202.836 67.9739 202.833 68.3474L202.473 109.89C202.47 110.29 202.382 110.685 202.216 111.048Z" fill="#2F2E41"/>
<path id="Vector_12" d="M183.765 18.8577C180.287 19.4479 176.405 20.1227 173.092 18.5103C170.483 17.2411 168.69 14.7062 169.326 11.7277C170.59 5.80027 177.376 3.17967 182.829 3.70852C186.036 4.00795 189.052 5.36777 191.4 7.57301C191.512 7.67853 191.651 7.74955 191.802 7.77747C191.953 7.80538 192.108 7.78901 192.25 7.73032C192.392 7.67163 192.513 7.57315 192.6 7.44677C192.687 7.3204 192.736 7.17156 192.74 7.01825C192.716 4.831 194.353 3.00582 196.292 2.18191C198.719 1.15034 201.54 1.51898 204.035 2.07101C210.862 3.59348 217.062 7.16172 221.808 12.2995C226.553 17.4374 229.619 23.9004 230.597 30.8261C231.291 35.7018 230.919 40.6702 229.505 45.3876C228.181 49.7362 225.736 54.1069 221.712 56.4728C218.085 58.6047 212.811 59.1537 209.464 56.1627C206.784 53.7668 205.575 49.2879 207.775 46.1883C208.423 45.2895 209.302 44.5827 210.319 44.143C211.336 43.7033 212.453 43.5469 213.552 43.6906C214.591 43.8549 215.561 44.3138 216.347 45.0129C217.133 45.7121 217.702 46.6221 217.987 47.6349C218.195 48.6075 218.131 49.6188 217.801 50.557C217.47 51.4953 216.887 52.3238 216.115 52.951C215.538 53.3657 214.882 53.6586 214.188 53.8117C213.494 53.9649 212.776 53.9751 212.078 53.8419C211.38 53.7086 210.717 53.4346 210.128 53.0366C209.539 52.6386 209.038 52.1249 208.654 51.5267C208.121 50.6716 206.763 51.4584 207.299 52.3187C207.915 53.2816 208.758 54.0779 209.755 54.637C210.752 55.1962 211.871 55.5009 213.014 55.5242C214.153 55.545 215.277 55.2627 216.27 54.7061C217.264 54.1495 218.092 53.3387 218.67 52.3567C219.289 51.3547 219.633 50.2072 219.668 49.0298C219.703 47.8524 219.427 46.6866 218.868 45.6497C218.257 44.5923 217.387 43.708 216.339 43.0806C215.291 42.4531 214.1 42.1031 212.88 42.0637C211.613 42.0538 210.364 42.352 209.238 42.9326C208.113 43.5132 207.146 44.3587 206.42 45.3964C205.245 47.1919 204.812 49.3725 205.211 51.4806C205.565 53.6245 206.602 55.5965 208.169 57.1019C209.983 58.7438 212.318 59.6935 214.763 59.7837C220.083 60.0871 224.833 57.0222 227.767 52.7618C230.812 48.3409 232.174 42.7935 232.448 37.4899C232.727 32.0843 231.784 26.6852 229.688 21.6946C227.592 16.704 224.398 12.2504 220.342 8.66529C216.485 5.28942 211.962 2.76195 207.065 1.2468C202.218 -0.238005 195.45 -1.32031 192.177 3.63228C191.511 4.63517 191.161 5.81445 191.17 7.01829L192.51 6.46353C187.774 1.93793 180.329 0.794374 174.415 3.57622C171.445 4.97344 168.87 7.57159 167.947 10.7751C166.989 14.099 168.374 17.3613 171.215 19.2464C175.081 21.8119 179.876 21.1015 184.182 20.3708C185.175 20.2022 184.754 18.6898 183.765 18.8577Z" fill="#2F2E41"/>
<path id="Vector_13" d="M134.698 115.305H7.64091C5.61512 115.303 3.67297 114.497 2.24052 113.065C0.808072 111.632 0.00231122 109.69 0 107.664V31.6917C0.00231122 29.6659 0.808072 27.7237 2.24052 26.2913C3.67297 24.8589 5.61512 24.0531 7.64091 24.0508H134.698C136.724 24.0531 138.666 24.8589 140.099 26.2913C141.531 27.7237 142.337 29.6659 142.339 31.6917V107.664C142.337 109.69 141.531 111.632 140.099 113.065C138.666 114.497 136.724 115.303 134.698 115.305ZM7.64091 25.3607C5.9624 25.3626 4.3532 26.0302 3.16632 27.2171C1.97944 28.404 1.3118 30.0132 1.30987 31.6917V107.664C1.3118 109.343 1.97944 110.952 3.16632 112.139C4.3532 113.326 5.9624 113.993 7.64091 113.995H134.698C136.377 113.993 137.986 113.326 139.173 112.139C140.36 110.952 141.027 109.343 141.029 107.664V31.6917C141.027 30.0132 140.36 28.404 139.173 27.2171C137.986 26.0302 136.377 25.3626 134.698 25.3607H7.64091Z" fill="#3F3D56"/>
<path id="Vector_14" d="M24.6692 41.9523C23.5898 41.9523 22.5346 41.6322 21.637 41.0325C20.7395 40.4328 20.04 39.5804 19.6269 38.5831C19.2138 37.5859 19.1057 36.4885 19.3163 35.4298C19.5269 34.3711 20.0467 33.3986 20.81 32.6353C21.5733 31.872 22.5458 31.3522 23.6045 31.1416C24.6632 30.931 25.7605 31.0391 26.7578 31.4522C27.7551 31.8653 28.6075 32.5648 29.2072 33.4624C29.8069 34.3599 30.127 35.4151 30.127 36.4945C30.1254 37.9415 29.5498 39.3288 28.5267 40.352C27.5035 41.3752 26.1162 41.9507 24.6692 41.9523ZM24.6692 32.3466C23.8488 32.3466 23.0469 32.5899 22.3648 33.0457C21.6826 33.5014 21.151 34.1493 20.837 34.9072C20.5231 35.6651 20.4409 36.4991 20.601 37.3038C20.761 38.1084 21.1561 38.8475 21.7362 39.4276C22.3163 40.0077 23.0554 40.4027 23.86 40.5628C24.6646 40.7228 25.4986 40.6407 26.2566 40.3267C27.0145 40.0128 27.6623 39.4811 28.1181 38.799C28.5739 38.1169 28.8171 37.3149 28.8171 36.4945C28.8159 35.3948 28.3785 34.3405 27.6009 33.5629C26.8233 32.7853 25.7689 32.3479 24.6692 32.3466Z" fill="#3F3D56"/>
<path id="Vector_15" d="M116.797 41.9523C115.717 41.9523 114.662 41.6322 113.764 41.0325C112.867 40.4328 112.167 39.5804 111.754 38.5831C111.341 37.5859 111.233 36.4885 111.444 35.4298C111.654 34.3711 112.174 33.3986 112.937 32.6353C113.701 31.872 114.673 31.3522 115.732 31.1416C116.791 30.931 117.888 31.0391 118.885 31.4522C119.883 31.8653 120.735 32.5648 121.335 33.4624C121.934 34.3599 122.254 35.4151 122.254 36.4945C122.253 37.9415 121.677 39.3288 120.654 40.352C119.631 41.3752 118.244 41.9507 116.797 41.9523ZM116.797 32.3466C115.976 32.3466 115.174 32.5899 114.492 33.0457C113.81 33.5014 113.278 34.1493 112.964 34.9072C112.651 35.6651 112.568 36.4991 112.728 37.3038C112.889 38.1084 113.284 38.8475 113.864 39.4276C114.444 40.0077 115.183 40.4027 115.987 40.5628C116.792 40.7228 117.626 40.6407 118.384 40.3267C119.142 40.0128 119.79 39.4811 120.246 38.799C120.701 38.1169 120.945 37.3149 120.945 36.4945C120.943 35.3948 120.506 34.3405 119.728 33.5629C118.951 32.7853 117.896 32.3479 116.797 32.3466Z" fill="#3F3D56"/>
<path id="Vector_16" d="M37.5496 75.1357H13.9719C12.988 75.1346 12.0447 74.7432 11.3489 74.0474C10.6532 73.3517 10.2618 72.4084 10.2606 71.4245V57.4525C10.2618 56.4686 10.6532 55.5253 11.3489 54.8295C12.0447 54.1338 12.988 53.7424 13.9719 53.7412H37.5496C38.5335 53.7424 39.4768 54.1338 40.1726 54.8295C40.8683 55.5253 41.2597 56.4686 41.2609 57.4525V71.4245C41.2597 72.4084 40.8683 73.3517 40.1726 74.0474C39.4768 74.7432 38.5335 75.1346 37.5496 75.1357Z" fill="#E6E6E6"/>
<path id="Vector_17" d="M82.9584 75.1357H59.3807C58.3968 75.1346 57.4535 74.7432 56.7577 74.0474C56.062 73.3517 55.6706 72.4084 55.6694 71.4245V57.4525C55.6706 56.4686 56.062 55.5253 56.7577 54.8295C57.4535 54.1338 58.3968 53.7424 59.3807 53.7412H82.9584C83.9423 53.7424 84.8856 54.1338 85.5814 54.8295C86.2771 55.5253 86.6685 56.4686 86.6697 57.4525V71.4245C86.6685 72.4084 86.2771 73.3517 85.5814 74.0474C84.8856 74.7432 83.9423 75.1346 82.9584 75.1357Z" fill="#E6E6E6"/>
<path id="Vector_18" d="M104.79 54.1777C103.921 54.1787 103.089 54.524 102.475 55.1379C101.861 55.7518 101.516 56.5842 101.515 57.4524V71.4244C101.516 72.2926 101.861 73.1249 102.475 73.7389C103.089 74.3528 103.921 74.6981 104.79 74.699H128.367C129.235 74.6981 130.068 74.3528 130.682 73.7389C131.296 73.1249 131.641 72.2926 131.642 71.4244V57.4524C131.641 56.5842 131.296 55.7518 130.682 55.1379C130.068 54.524 129.235 54.1787 128.367 54.1777H104.79Z" fill="#E6E6E6"/>
<path id="Vector_19" d="M37.768 103.08H14.1903C13.2064 103.078 12.2631 102.687 11.5673 101.991C10.8716 101.296 10.4802 100.352 10.479 99.3683V85.3964C10.4802 84.4124 10.8716 83.4691 11.5673 82.7734C12.2631 82.0776 13.2064 81.6862 14.1903 81.6851H37.768C38.7519 81.6862 39.6952 82.0776 40.3909 82.7734C41.0867 83.4691 41.4781 84.4124 41.4793 85.3964V99.3683C41.4781 100.352 41.0867 101.296 40.3909 101.991C39.6952 102.687 38.7519 103.078 37.768 103.08Z" fill="#E6E6E6"/>
<path id="Vector_20" d="M83.1768 103.08H59.5991C58.6152 103.078 57.6719 102.687 56.9761 101.991C56.2804 101.296 55.889 100.352 55.8878 99.3683V85.3964C55.889 84.4124 56.2804 83.4691 56.9761 82.7734C57.6719 82.0776 58.6152 81.6862 59.5991 81.6851H83.1768C84.1607 81.6862 85.104 82.0776 85.7998 82.7734C86.4955 83.4691 86.8869 84.4124 86.8881 85.3964V99.3683C86.8869 100.352 86.4955 101.296 85.7998 101.991C85.104 102.687 84.1607 103.078 83.1768 103.08Z" fill="#E6E6E6"/>
<path id="Vector_21" d="M128.586 103.08H105.008C104.024 103.078 103.081 102.687 102.385 101.991C101.689 101.296 101.298 100.352 101.297 99.3683V85.3964C101.298 84.4124 101.689 83.4691 102.385 82.7734C103.081 82.0776 104.024 81.6862 105.008 81.6851H128.586C129.57 81.6862 130.513 82.0776 131.209 82.7734C131.904 83.4691 132.296 84.4124 132.297 85.3964V99.3683C132.296 100.352 131.904 101.296 131.209 101.991C130.513 102.687 129.57 103.078 128.586 103.08Z" fill="#E6E6E6"/>
<path id="Vector_22" d="M24.6692 38.0228C24.264 38.0223 23.8756 37.8611 23.5891 37.5746C23.3026 37.2882 23.1415 36.8997 23.141 36.4946V14.6634C23.141 14.2581 23.302 13.8694 23.5886 13.5828C23.8752 13.2963 24.2639 13.1353 24.6692 13.1353C25.0745 13.1353 25.4632 13.2963 25.7498 13.5828C26.0363 13.8694 26.1974 14.2581 26.1974 14.6634V36.4946C26.1969 36.8997 26.0357 37.2882 25.7492 37.5746C25.4627 37.8611 25.0743 38.0223 24.6692 38.0228Z" fill="#3F3D56"/>
<path id="Vector_23" d="M116.797 38.0228C116.392 38.0223 116.003 37.8611 115.717 37.5746C115.43 37.2882 115.269 36.8997 115.269 36.4946V14.6634C115.269 14.2581 115.43 13.8694 115.716 13.5828C116.003 13.2963 116.391 13.1353 116.797 13.1353C117.202 13.1353 117.591 13.2963 117.877 13.5828C118.164 13.8694 118.325 14.2581 118.325 14.6634V36.4946C118.324 36.8997 118.163 37.2882 117.877 37.5746C117.59 37.8611 117.202 38.0223 116.797 38.0228Z" fill="#3F3D56"/>
<path id="Path 395" d="M24.8694 70.102C24.2266 70.1031 23.6008 69.8951 23.0865 69.5095L23.0546 69.4855L16.339 64.3484C15.7109 63.8668 15.2998 63.1554 15.1961 62.3707C15.0925 61.5861 15.3048 60.7923 15.7864 60.1642C16.2679 59.536 16.9793 59.1249 17.764 59.0213C18.5486 58.9176 19.3424 59.1299 19.9705 59.6115L24.3203 62.9471L34.5991 49.5373C34.8375 49.2264 35.1347 48.9655 35.4739 48.7694C35.8131 48.5734 36.1875 48.4461 36.5759 48.3948C36.9643 48.3435 37.359 48.3692 37.7374 48.4705C38.1159 48.5717 38.4706 48.7465 38.7815 48.9848L38.7824 48.9855L38.7186 49.074L38.7841 48.9855C39.4114 49.4675 39.8217 50.1787 39.9252 50.963C40.0286 51.7473 39.8167 52.5406 39.3359 53.1688L27.2458 68.9347C26.9661 69.2979 26.6065 69.5919 26.1948 69.7937C25.7831 69.9955 25.3305 70.0998 24.8721 70.0985L24.8694 70.102Z" fill="#CA1F27"/>
<path id="Path 395_2" d="M71.5882 97.6092C70.9453 97.6103 70.3196 97.4023 69.8052 97.0167L69.7734 96.9928L63.0578 91.8556C62.4296 91.374 62.0185 90.6626 61.9149 89.8779C61.8112 89.0933 62.0235 88.2995 62.5051 87.6714C62.9867 87.0432 63.698 86.6321 64.4827 86.5285C65.2674 86.4248 66.0611 86.6371 66.6893 87.1187L71.0391 90.4543L81.3179 77.0445C81.5562 76.7336 81.8535 76.4727 82.1926 76.2766C82.5318 76.0806 82.9063 75.9533 83.2947 75.902C83.683 75.8507 84.0777 75.8764 84.4562 75.9777C84.8346 76.0789 85.1894 76.2537 85.5003 76.492L85.5012 76.4927L85.4374 76.5812L85.5029 76.4927C86.1301 76.9747 86.5405 77.6859 86.6439 78.4702C86.7474 79.2545 86.5355 80.0478 86.0547 80.676L73.9645 96.4419C73.6848 96.8051 73.3252 97.0991 72.9135 97.3009C72.5019 97.5027 72.0493 97.607 71.5908 97.6057L71.5882 97.6092Z" fill="#CA1F27"/>
<path id="Path 395_3" d="M115.687 70.102C115.044 70.1031 114.418 69.8951 113.904 69.5095L113.872 69.4855L107.157 64.3484C106.529 63.8668 106.117 63.1554 106.014 62.3707C105.91 61.5861 106.122 60.7923 106.604 60.1642C107.086 59.536 107.797 59.1249 108.582 59.0213C109.366 58.9176 110.16 59.1299 110.788 59.6115L115.138 62.9471L125.417 49.5373C125.655 49.2264 125.952 48.9655 126.292 48.7694C126.631 48.5734 127.005 48.4461 127.394 48.3948C127.782 48.3435 128.177 48.3692 128.555 48.4705C128.933 48.5717 129.288 48.7465 129.599 48.9848L129.6 48.9855L129.536 49.074L129.602 48.9855C130.229 49.4675 130.639 50.1787 130.743 50.963C130.846 51.7473 130.634 52.5406 130.154 53.1688L118.063 68.9347C117.784 69.2979 117.424 69.5919 117.012 69.7937C116.601 69.9955 116.148 70.0998 115.69 70.0985L115.687 70.102Z" fill="#CA1F27"/>
</g>
<defs>
<clipPath id="clip0_2387_1458">
<rect width="232.495" height="170" fill="white"/>
</clipPath>
</defs>
</svg>
