<svg width="42" height="42" viewBox="0 0 42 42" fill="none" xmlns="http://www.w3.org/2000/svg">
<path d="M34.0658 26.2262H26.2265C24.7892 26.2262 23.6133 25.0503 23.6133 23.6131C23.6133 22.1759 24.7892 21 26.2265 21H34.0658C34.0658 21 41.9052 12.2623 41.9052 7.93435C41.9052 3.60636 38.3938 0.0949707 34.0658 0.0949707C29.7379 0.0949707 26.2265 3.60636 26.2265 7.93435C26.2265 10.0167 28.0393 13.1116 29.9257 15.7737H26.2265C21.9066 15.7737 18.3871 19.2933 18.3871 23.6131C18.3871 27.9329 21.9066 31.4525 26.2265 31.4525H34.0658C35.5031 31.4525 36.679 32.6284 36.679 34.0656C36.679 35.5028 35.5031 36.6787 34.0658 36.6787H15.2432C13.9366 38.7039 12.4831 40.5739 11.3806 41.905H34.0658C38.3857 41.905 41.9052 38.3854 41.9052 34.0656C41.9052 29.7458 38.3857 26.2262 34.0658 26.2262ZM34.0658 5.32122C35.5112 5.32122 36.679 6.48896 36.679 7.93435C36.679 9.37973 35.5112 10.5475 34.0658 10.5475C32.6205 10.5475 31.4527 9.37973 31.4527 7.93435C31.4527 6.48896 32.6205 5.32122 34.0658 5.32122ZM7.93459 21C3.6066 21 0.0952148 24.5114 0.0952148 28.8393C0.0952148 33.1673 7.93459 41.905 7.93459 41.905C7.93459 41.905 15.774 33.1673 15.774 28.8393C15.774 24.5114 12.2626 21 7.93459 21ZM7.93459 31.4525C6.48921 31.4525 5.32147 30.2847 5.32147 28.8393C5.32147 27.394 6.48921 26.2262 7.93459 26.2262C9.37998 26.2262 10.5477 27.394 10.5477 28.8393C10.5477 30.2847 9.37998 31.4525 7.93459 31.4525Z" fill="#CA1F27"/>
</svg>
