<svg width="50" height="50" viewBox="0 0 50 50" fill="none" xmlns="http://www.w3.org/2000/svg">
<g id="zondicons:location" clip-path="url(#clip0_1942_1571)">
<path id="Vector" d="M25.2205 49.7725C25.2205 49.7725 7.89868 27.1799 7.89868 17.6033C7.89868 15.3286 8.34672 13.0761 9.21723 10.9746C10.0877 8.87298 11.3637 6.96343 12.9721 5.35495C14.5806 3.74646 16.4902 2.47055 18.5918 1.60004C20.6933 0.729537 22.9458 0.281494 25.2205 0.281494C27.4953 0.281494 29.7477 0.729537 31.8493 1.60004C33.9509 2.47055 35.8605 3.74646 37.4689 5.35495C39.0774 6.96343 40.3533 8.87298 41.2238 10.9746C42.0944 13.0761 42.5424 15.3286 42.5424 17.6033C42.5424 27.1799 25.2205 49.7725 25.2205 49.7725ZM25.2205 22.5525C26.5331 22.5525 27.7919 22.031 28.7201 21.1029C29.6482 20.1748 30.1696 18.9159 30.1696 17.6033C30.1696 16.2908 29.6482 15.0319 28.7201 14.1038C27.7919 13.1757 26.5331 12.6542 25.2205 12.6542C23.908 12.6542 22.6491 13.1757 21.721 14.1038C20.7929 15.0319 20.2714 16.2908 20.2714 17.6033C20.2714 18.9159 20.7929 20.1748 21.721 21.1029C22.6491 22.031 23.908 22.5525 25.2205 22.5525Z" fill="#CA1F27"/>
</g>
<defs>
<clipPath id="clip0_1942_1571">
<rect width="49.491" height="49.491" fill="white" transform="translate(0.475098 0.281494)"/>
</clipPath>
</defs>
</svg>
